<svg xmlns="http://www.w3.org/2000/svg" viewBox="0 0 639 568"><defs><style>.cls-1{fill:#e9eced;}.cls-2{fill:#757575;}.cls-3{fill:#6d6769;}.cls-4{fill:#202532;}.cls-5{fill:#06c918;}.cls-6{fill:#e50a15;}.cls-7{fill:#efef45;}.cls-8{fill:#350fd3;}.cls-9{fill:#312abc;}.cls-10{fill:#37a537;}.cls-11{fill:#e81f33;}.cls-12{fill:#feee95;}.cls-13{fill:#fad9b0;}.cls-14{fill:#f4912d;}.cls-15{fill:#f2c89c;}.cls-16{fill:#191d26;}.cls-17{fill:#b4dca7;}.cls-18{fill:#c46e2d;}.cls-19{fill:#eaac41;}.cls-20{fill:#c07d08;}.cls-21{fill:#fecda4;}.cls-22{fill:#333;}.cls-23{fill:#962d69;}.cls-24{fill:#72263c;}.cls-25{fill:#fff;}.cls-26{fill:#edb143;}.cls-27{fill:#ffc79f;}.cls-28{fill:#d17a2c;}.cls-29{fill:#72665e;}.cls-30{fill:#b19e8f;}.cls-31{fill:#73b5c9;}.cls-32{fill:#89cce5;}.cls-33{fill:#f2b186;}.cls-34{fill:#a92d2b;}.cls-35{fill:#952819;}.cls-36{fill:#c95b6e;}.cls-37{fill:#f5f7f7;}</style></defs><title>babysitting</title><g id="Layer_2" data-name="Layer 2"><g id="Layer_1-2" data-name="Layer 1"><path class="cls-1" d="M9.57,566.7A9.63,9.63,0,0,1,0,557.14V9.56A9.63,9.63,0,0,1,9.57,0H629.43A9.63,9.63,0,0,1,639,9.56V557.14a9.63,9.63,0,0,1-9.57,9.56Z"/><path class="cls-2" d="M12,567.3c-5.2,0-9.5-1.1-9.5-2.4v-139c0-1.31,4.3-2.4,9.5-2.4H627c5.2,0,9.5,1.1,9.5,2.4v139c0,1.31-4.3,2.4-9.5,2.4Z"/><path class="cls-2" d="M627,424.12c3.9,0,7,.8,7,1.81v139c0,1-3.1,1.81-7,1.81H12c-3.9,0-7-.8-7-1.81v-139c0-1,3.1-1.81,7-1.81H627m0-1.31H12c-6.6,0-12,1.41-12,3.1v139c0,1.7,5.4,3.1,12,3.1H627c6.6,0,12-1.41,12-3.1v-139c0-1.71-5.4-3.1-12-3.1Z"/><path class="cls-3" d="M414.53,393.4"/><path class="cls-3" d="M343.71,372.92"/><rect class="cls-4" x="336.61" y="360.6" width="117.34" height="5.61"/><path class="cls-3" d="M459.14,362.47H327.8a4.24,4.24,0,0,1-4.2-4.21v-3.77a4.24,4.24,0,0,1,4.2-4.21H459a4.24,4.24,0,0,1,4.2,4.21v3.81a4.08,4.08,0,0,1-4,4.21h0Z"/><polygon class="cls-3" points="343.71 366.1 332.8 425.93 341.01 425.93 361.31 366.1 343.71 366.1"/><polygon class="cls-3" points="446.94 366.1 457.84 425.93 449.54 425.93 429.23 366.1 446.94 366.1"/><rect class="cls-5" x="350.41" y="341.66" width="8.5" height="8.52"/><rect class="cls-6" x="354.81" y="334.45" width="8.5" height="8.52"/><rect class="cls-7" x="351.91" y="326.24" width="8.5" height="8.52"/><rect class="cls-8" x="361.31" y="342.87" width="8.5" height="8.52"/><rect class="cls-9" x="385.24" y="341.63" width="8.5" height="8.52" transform="translate(-12.56 14.68) rotate(-2.13)"/><polygon class="cls-10" points="388.93 338.49 394.94 332.46 400.96 338.49 394.94 344.5 388.93 338.49"/><rect class="cls-11" x="397.1" y="341.67" width="8.5" height="8.52" transform="translate(-12.55 15.12) rotate(-2.13)"/><path class="cls-12" d="M54.12,229v27s6.5,6.71,11.8,6.71,12.2-6.71,12.2-6.71l-.8-27H54.12Z"/><polygon class="cls-13" points="306.9 399.58 307.9 458.49 316.3 459.09 320.6 400.57 306.9 399.58"/><polyline class="cls-4" points="332.5 354.18 329.3 408.9 306 406.69 304.89 348.67 332.5 352.69"/><path class="cls-14" d="M258.68,340.26s46.61,38.17,88,4.61c0,0-10.2-34.67-8.6-36.78s-10.9-57.81-10.9-57.81l-8.7-2.6-21,4-29.31,5.61s6.1,44.59,3.4,47.89S258.68,340.26,258.68,340.26Z"/><path class="cls-14" d="M320.5,256s17,0,26,4.91,20.41,25.35,20.41,25.35,6.5,12,5.7,15.53-11.4,7.81-14.7,9.42S335,319,335,319l-11.9,2.9-4.9-10.62,21.61-7.51,16-5.61L341.11,287l-11-10.12Z"/><polygon class="cls-15" points="291.59 398.47 296.89 457.19 305.4 457.19 305.4 398.47 291.59 398.47"/><polyline class="cls-16" points="280.39 354.89 283.59 409.49 306.9 407.39 308 349.27 280.39 353.28"/><path class="cls-17" d="M311.7,394.26"/><path class="cls-18" d="M297.39,251.73l7.3,107s-40.61-5.31-46-18.44c0,0,9.5-36.17,12.8-35.07s-3.4-47.89-3.4-47.89Z"/><path class="cls-19" d="M341.91,256.6c2.9-8.82.9-12,.8-29.25-.1-17.63,2-21.14-.8-31.56-2.7-10.12-6.7-14.33-7.7-15.32-5.9-6-13.2-7.51-17.71-8.42a39.89,39.89,0,0,0-20,.8c-3.8,1.21-9.3,2.8-13.8,7.71-2.2,2.3-5,6.42-6.9,18.44-1.8,11.12-.2,13.13-.8,28.45-.6,15.63-2.5,19.44,0,28.45"/><path class="cls-20" d="M334.3,262.81c1.4-3.61,1.6-6.61,1.5-12.32-.1-12.12-1.1-17.74-1.5-26.94-.7-14.53.9-14.73-.8-17.74-7.6-13-42.71-12.62-49.92.8-1.1,2-.5,2.3-.8,13-.4,14.73-1.6,20.24-.8,33.06"/><path class="cls-21" d="M287.49,189.77a20.88,20.88,0,0,0-1.9,2.7c-3.1,5.11-1.5,14.23-1.2,24.94.3,8.42-.4,8.11.4,11.12,2.5,9.22,10,14.13,10.7,14.63,7.7,4.81,18.31,5.51,26.51.4a26.79,26.79,0,0,0,10.7-14.63,36.13,36.13,0,0,0,.8-6.91c1.3-22.45.3-25.45-.8-27.66a24.73,24.73,0,0,0-8.4-9.22c-12.6-8.42-27.81-2.3-31.51,0A23.69,23.69,0,0,0,287.49,189.77Z"/><path class="cls-22" d="M290.49,208.21c-.1-.2.8-1.51,2.3-2.3a6.57,6.57,0,0,1,6.1,0,4.92,4.92,0,0,1,2.3,2.3,13.54,13.54,0,0,0-3.1-1.51,8.22,8.22,0,0,0-4.6,0C291.69,207.2,290.69,208.31,290.49,208.21Z"/><path class="cls-22" d="M317.4,208.21c-.1-.2.8-1.51,2.3-2.3a6.57,6.57,0,0,1,6.1,0,4.92,4.92,0,0,1,2.3,2.3,13.54,13.54,0,0,0-3.1-1.51,8.22,8.22,0,0,0-4.6,0A14.13,14.13,0,0,0,317.4,208.21Z"/><circle class="cls-22" cx="297.09" cy="214.01" r="2.7"/><circle class="cls-22" cx="321.6" cy="214.01" r="2.7"/><path class="cls-23" d="M294.79,226.24s1.5,2.6,2.2,3.61a15.08,15.08,0,0,0,5.1,5.11,12,12,0,0,0,10.9,0,12.82,12.82,0,0,0,4.4-3.61,25.7,25.7,0,0,0,2.9-5.11Z"/><path class="cls-24" d="M299.19,232.05c.1-.5.6-.9,1.5-1.51a9.56,9.56,0,0,1,4.4-1.51c1.7-.2,6.3-.5,10.2,2.2.3.2.7.4.7.7.3,1.41-4.2,4.51-8.8,4.41C303.09,236.36,299,233.77,299.19,232.05Z"/><path class="cls-25" d="M297.69,228.44H317.4v-2.2H297.69Z"/><path class="cls-21" d="M305.6,254c.7-2.7,1.2-3.61.6-4.21s-1.6,0-4.3,0c-2.3,0-3.1-.5-3.7,0s-.3,1.51.3,3.91"/><path class="cls-26" d="M275.19,205.9c.8,2.5,10.6,2.4,18.41-.8,2.9-1.21,7-2.8,10-6.91s3.1-8.42,4.6-8.42,1.8,4.41,5.4,9.22a24.81,24.81,0,0,0,6.9,6.12c8.8,5.21,21.71,3.91,23,0,.2-.4.1-.8,0-1.51-.8-5.11-1.1-7.71-2.3-10.73-1.8-4.71-3-8.11-6.1-11.52-4.2-4.71-9.1-6.52-12.3-7.71a39.59,39.59,0,0,0-15.3-2.3c-4,.1-9.3.2-15.3,3.1a25.45,25.45,0,0,0-10,7.71,29.9,29.9,0,0,0-4.6,10c-.2.7-.7,2.8-1.5,6.91,0,0-.3,1.51-.8,6.12C275.09,205.6,275.09,205.7,275.19,205.9Z"/><path class="cls-27" d="M340.71,287s1.2-2.2,2.6-2.2c0,0,.4-4.71,1.4-4.71s.7,4.21.7,4.21,4.9-3.4,5.7-2.5-4.6,3.2-4.6,3.2l4.7-1.51s1.3.6.6,1.1a38.82,38.82,0,0,1-4.8,1.81,42.89,42.89,0,0,1,5-.7c0,.2.9.5.5.7s-5,.8-5,.8,3.7.1,3.7.6a1,1,0,0,1-.5,1,20.39,20.39,0,0,1-3.5,0,10.08,10.08,0,0,1-3.8,1.1C341.61,289.86,340.71,287,340.71,287Z"/><path class="cls-27" d="M327.4,315.58s-20.41-4.11-20.21-2,13.7,4.31,13.7,4.31-13.3-1.81-13.7,0,12.1,1.81,12.1,1.81-12.7,2-10.8,2.9,9-1,9-1-5.2,2.5-4.3,3.3,12.4-4.51,12.4-4.51v-6.12Z"/><path class="cls-27" d="M283.59,322.12s20.41-4.11,20.21-2-13.7,4.31-13.7,4.31,13.3-1.81,13.7,0-12.1,1.81-12.1,1.81,12.7,2,10.8,2.9-9-1-9-1,5.2,2.5,4.3,3.3-12.4-4.51-12.4-4.51v-6.12Z"/><path class="cls-28" d="M295.49,254.19s-17,0-26,4.91-20.41,25.35-20.41,25.35-6.5,12-5.7,15.53,11.4,7.81,14.7,9.42S281,317.22,281,317.22l11.9,2.9,4.9-10.62L276.19,302l-16-5.61,15.9-9.22Z"/><ellipse class="cls-29" cx="297.29" cy="458.39" rx="9.6" ry="2.5"/><ellipse class="cls-30" cx="316.9" cy="458.39" rx="9.6" ry="2.5"/><path class="cls-31" d="M300.39,290.16l10.1,43-6.1,2.6s7.5,25.75,4.6,28.93c0,0-6.6,7.11-8.6,6.32s-9.7.3,2.1-6.32c0,0-12.4-6.71-13.5-10.32s-8.4-43.48-5.4-43.79-3.9-2-7.2-1.51S259.88,311,259.88,311v-8.11h13.9s11.6-17.43,20.51-9.42Z"/><path class="cls-27" d="M262.08,306.39s-1.2-2.2-2.6-2.2c0,0-.4-4.71-1.4-4.71s-.7,4.21-.7,4.21-4.9-3.4-5.7-2.5,4.6,3.2,4.6,3.2l-4.7-1.51s-1.3.6-.6,1.1a38.83,38.83,0,0,0,4.8,1.81,42.89,42.89,0,0,0-5-.7c0,.2-.9.5-.5.7s5,.8,5,.8-3.7.1-3.7.6a1,1,0,0,0,.5,1c.3.1,3.5,0,3.5,0a10.08,10.08,0,0,0,3.8,1.1C261.08,309.29,262.08,306.39,262.08,306.39Z"/><path class="cls-32" d="M298.09,291.07l11.4,42.58,6.6-.5s5.5,26.25,9.6,27.76c0,0,9.2,3.1,10.6,1.51s8.7-4.31-4.9-4.51c0,0,7.8-11.72,7-15.53s-13.1-42.38-15.8-41.18,2.5-3.61,5.6-4.71,15.5-6.12,15.5-6.12l-3.8-7.11-12.3,6.61s-18.51-9.92-22.51,1.41Z"/><path class="cls-27" d="M296.89,298.88l-2.9-8.42s-20.91,3.1-27-15,0,2.5,0,2.5l7-15.53,4.1,4.11,9-9,1.2,4.91,12.7-4.91,2.9,4.91,2-4.91,16.41,6.52v6.52s-4.1,18.44-14.7,19.83v8.42S301.39,303.79,296.89,298.88Z"/><ellipse class="cls-22" cx="281.59" cy="270.02" rx="1.9" ry="1.91"/><ellipse class="cls-22" cx="301.19" cy="268.82" rx="1.9" ry="1.91"/><path class="cls-33" d="M289,281.15l11.5-.8s-1.1,3.71-2.5,3.71c0,0-5.6,1.51-6.4.6S289,281.15,289,281.15Z"/><path class="cls-27" d="M332.6,310.5s-18.6-3.9-18.4-1.91,13.7,4.31,13.7,4.31-13.3-1.81-13.7,0,12.1,1.81,12.1,1.81-12.7,2-10.8,2.9,9-1,9-1-5.2,2.5-4.3,3.3,12.4-4.51,12.4-4.51V310.5Z"/><path class="cls-27" d="M281.79,310.7S300.4,307,300.2,309s-13.7,4.31-13.7,4.31,13.3-1.81,13.7,0-12.1,1.81-12.1,1.81,12.7,2,10.8,2.9-9-1-9-1,5.2,2.5,4.3,3.3-12.4-4.51-12.4-4.51V310.7Z"/><path class="cls-34" d="M266.78,277.14l6.4-14.43,4.1,4.11,9-9,1.2,4.91,12.7-4.91,2.9,4.91,2-4.91,16.41,6.52s-2.2-15.32-10.2-17.43-11.9-4.51-15.1-2.7c0,0,3.5-4.31,4.5-2.9,0,0-8.9-1.21-8.1,1,0,0-18.31-1.41-21.31,4.11s-10.1,20.74-4.9,29.25"/><path class="cls-35" d="M300.59,241.37s-8,1.51-7.7,2.6l-1.4,17.13-4,1.51-1.1-4.21-9.2,8.32-4.1-4.11-6.3,15.53s-9.5-23.55,3.2-32.07c0,0,13.3-7.91,21.61-4.21C291.69,241.87,300.09,240.06,300.59,241.37Z"/><path class="cls-32" d="M20.81,403.78S19,377,27.51,378.23H209.67s9.2,2.4,9.8,6.71a3.65,3.65,0,0,1-.3,2c-2.5,5.51.4-1.31.4-1.31l-.4,23.45L20.51,407.89Z"/><path class="cls-29" d="M14,427.42H24.4V308.7s-6.1-9-10.4-1.1Z"/><path class="cls-29" d="M71.72,394.47"/><path class="cls-29" d="M214,425.93h10.4V307.2s-6.1-9-10.4-1.1Z"/><rect class="cls-29" x="19.21" y="325.13" width="199.96" height="5.21"/><rect class="cls-29" x="40.11" y="327.73" width="4.9" height="80.06"/><rect class="cls-29" x="60.92" y="327.73" width="4.9" height="80.06"/><rect class="cls-29" x="83.03" y="327.73" width="4.9" height="80.06"/><rect class="cls-29" x="103.93" y="327.73" width="4.9" height="80.06"/><rect class="cls-29" x="127.04" y="327.73" width="4.9" height="80.06"/><rect class="cls-29" x="148.55" y="327.73" width="4.9" height="80.06"/><rect class="cls-29" x="170.55" y="327.73" width="4.9" height="80.06"/><rect class="cls-29" x="192.26" y="327.73" width="4.9" height="80.06"/><rect class="cls-29" x="19.21" y="405.18" width="199.96" height="5.21"/><rect class="cls-36" x="64.12" y="235.95" width="3.5" height="52"/><polygon class="cls-14" points="35.11 235.95 96.63 235.95 83.13 184.96 49.82 184.96 35.11 235.95"/><rect class="cls-4" x="529.67" y="373.43" width="101.83" height="44.29"/><rect class="cls-12" x="529.67" y="355.59" width="101.83" height="17.84"/><rect class="cls-4" x="529.67" y="337.15" width="101.83" height="17.84"/><rect class="cls-12" x="529.67" y="319.92" width="101.83" height="17.84"/><ellipse class="cls-29" cx="580.58" cy="386.35" rx="2.5" ry="2.5"/><ellipse class="cls-29" cx="580.58" cy="365.41" rx="2.5" ry="2.5"/><ellipse class="cls-29" cx="580.58" cy="346.07" rx="2.5" ry="2.5"/><ellipse class="cls-29" cx="580.58" cy="328.84" rx="2.5" ry="2.5"/><rect class="cls-29" x="525.36" y="313.21" width="111.03" height="6.71"/><rect class="cls-29" x="540.67" y="417.61" width="11.3" height="11.32"/><rect class="cls-29" x="608.59" y="417.61" width="11.3" height="11.32"/><path class="cls-3" d="M457.64,218.22H429.43a12,12,0,0,1-12-12V173.64a12,12,0,0,1,11.95-12h28.26a12,12,0,0,1,12,12V206.2a12,12,0,0,1-11.95,12Z"/><path class="cls-37" d="M454.34,214.81h-21.6a12,12,0,0,1-12-12v-25.7a12,12,0,0,1,11.95-12h21.66a12,12,0,0,1,12,12v25.75a12,12,0,0,1-12,12Z"/><ellipse class="cls-3" cx="443.04" cy="190.67" rx="1.8" ry="1.81"/><path class="cls-3" d="M443,192.37s1.4,8.32,4,8.62C447,201,445.74,192.07,443,192.37Z"/><path class="cls-3" d="M441.44,190s-10-6-10.3-8,0-.8,0-.8S439.84,187.46,441.44,190Z"/><circle class="cls-3" cx="427.33" cy="179.85" r="0.8"/><circle class="cls-3" cx="432.74" cy="173.94" r="0.8"/><circle class="cls-3" cx="458.94" cy="202.69" r="0.8"/><circle class="cls-3" cx="434.34" cy="209" r="0.8"/><circle class="cls-3" cx="426.43" cy="201.89" r="0.8"/><circle class="cls-3" cx="458.94" cy="180.65" r="0.8"/><circle class="cls-3" cx="453.74" cy="173.94" r="0.8"/><circle class="cls-3" cx="453.74" cy="209.8" r="0.8"/></g></g></svg>
