<svg xmlns="http://www.w3.org/2000/svg" xmlns:xlink="http://www.w3.org/1999/xlink" viewBox="0 0 639 568"><defs><style>.cls-1{fill:#152230;}.cls-2{fill:#e5b090;}.cls-3{fill:#333;}.cls-4{fill:#962d69;}.cls-5{fill:#72263c;}.cls-6{fill:#fff;}.cls-7{fill:#eaac41;}.cls-8{fill:#dba426;}.cls-9{fill:#20d7a4;}.cls-10{fill:#e5dee5;}.cls-11{fill:#f18302;}.cls-12{fill:#882e00;}.cls-13{fill:#9e7138;}.cls-14{fill:#bb0d04;}.cls-15{fill:#e47a0a;}.cls-16{fill:#180700;}.cls-17{fill:#f7d5a8;}.cls-18{fill:#fecda4;}.cls-19{fill:url(#linear-gradient);}.cls-20{fill:#c07d08;}.cls-21{fill:#cdcfd0;}.cls-22{fill:#33100a;}.cls-23{fill:#000100;}.cls-24{fill:none;stroke:#152230;}.cls-24,.cls-25{stroke-miterlimit:10;}.cls-25{fill:#2c4963;stroke:#424242;}.cls-26{fill:url(#linear-gradient-2);}</style><linearGradient id="linear-gradient" x1="43.43" y1="578.19" x2="200.4" y2="578.19" gradientTransform="translate(0 -73.52)" gradientUnits="userSpaceOnUse"><stop offset="0.52" stop-color="#7e8083"/><stop offset="0.53" stop-color="#cdcfd0"/></linearGradient><linearGradient id="linear-gradient-2" x1="440.06" y1="464.98" x2="568.1" y2="464.98" gradientTransform="translate(0 -73.52)" gradientUnits="userSpaceOnUse"><stop offset="0.52" stop-color="#20d7a4"/><stop offset="0.53" stop-color="#5cbfa0"/></linearGradient></defs><title>druk</title><g id="Layer_2" data-name="Layer 2"><g id="Layer_1-2" data-name="Layer 1"><path class="cls-1" d="M12,565.5A9.56,9.56,0,0,1,2.5,556V12A9.56,9.56,0,0,1,12,2.5H627a9.56,9.56,0,0,1,9.5,9.5V556a9.56,9.56,0,0,1-9.5,9.5Z"/><path class="cls-1" d="M627,5a7,7,0,0,1,7,7V556a7,7,0,0,1-7,7H12a7,7,0,0,1-7-7V12a7,7,0,0,1,7-7H627m0-5H12A12,12,0,0,0,0,12V556a12,12,0,0,0,12,12H627a12,12,0,0,0,12-12V12A12,12,0,0,0,627,0Z"/><path class="cls-2" d="M565,125.8a65.33,65.33,0,0,1,5.3,7.5c8.5,14.2,4.3,39.5,3.2,69.4-.9,23.4,1.2,22.6-1.1,31-6.9,25.6-27.9,39.3-29.9,40.6-21.3,13.5-50.8,15.2-73.7,1.1-1.4-.9-22.9-14.6-29.9-40.6-1.2-4.4-1.5-7.3-2.1-19.2-3.5-62.3-1-70.6,2.1-76.9,7.1-14.5,18.6-22.4,23.5-25.6,35.2-23.5,77.5-6.3,87.5,0A69.47,69.47,0,0,1,565,125.8Z"/><path class="cls-3" d="M556.5,177.1c.3-.4-2.2-4.2-6.4-6.4a18.46,18.46,0,0,0-17.1,0c-4.2,2.3-6.8,6-6.4,6.4s3.2-2.7,8.5-4.3a24.15,24.15,0,0,1,12.8,0C553.2,174.4,556.1,177.5,556.5,177.1Z"/><circle class="cls-3" cx="538.3" cy="193.1" r="7.5"/><circle class="cls-3" cx="470" cy="193.1" r="7.5"/><path class="cls-4" d="M541.5,221.9s-4.4,7.6-6.4,10.7-6.9,10.6-14.9,14.9c-10.1,5.5-22.8,4.6-32,0a37.86,37.86,0,0,1-12.8-10.7c-4.6-6-8.5-14.9-8.5-14.9h74.6Z"/><path class="cls-5" d="M528.7,239c-.2-1.6-1.8-2.6-4.3-4.3-3.6-2.5-7.6-3.7-12.8-4.3-4.9-.6-18.3-1.4-29.9,6.4-1,.7-1.9,1.2-2.1,2.1-.8,4.2,12.4,13.1,25.6,12.8C517.3,251.6,529.3,243.7,528.7,239Z"/><path class="cls-6" d="M533,228.3H475.4v-6.4H533Z"/><path class="cls-2" d="M518,283.6c1.9,1.8.9,5.1-1.1,13.4-4.2,17.3-3.9,19.2-7.5,29.5-4.3,12.5-5.8,12.9-6.4,12.8-1.5-.1-2.1-3.2-4.3-12.8s-3.9-19.1-6.4-28.5-4.1-12.6-2.1-14.4c2.1-2,5.4.2,14.9,0C513.3,283.5,516.1,281.8,518,283.6Z"/><path class="cls-7" d="M417.5,192h0s-.2-23.4,3.2-41.6c1.8-9.7,4.9-26.3,17.1-42.7,4.8-6.4,19-23.6,43.8-31,7.3-2.2,20.3-5.9,36.3-2.1,19.6,4.6,31.1,17.4,38.4,25.6,7.5,8.4,13.5,15.1,14.9,25.6,1.8,13.1-4.7,23.6-8.5,29.9-13.7,22.3-36.8,30.2-42.7,32-9.3,2.9-8,.7-53.4,2.1C466.6,189.9,459.5,190.1,417.5,192Z"/><path class="cls-8" d="M461.8,224.5a14.84,14.84,0,0,1,8.5-.9,13.08,13.08,0,0,1,6,2.9c.5.4,6.9,6.1,4.3,11.8-1.9,4.3-7.7,6.4-11,4.7-2.9-1.5-3.8-6.2-4.3-8.5s-.3-4.2-1.5-6.9A13.86,13.86,0,0,0,461.8,224.5Z"/><path class="cls-9" d="M471.8,344.4c-3.3-12-16.2-16.1-33-24.3-28.2-13.8-59.2-29.4-72.6-57.3-8.6-18-10.5-42.3-10.7-44.9-.6-8.1-.9-13.4,0-20.8,1.4-11,4-13.3,2.1-17-4.5-8.9-26.8-10.7-36.7-.9-2.1,2.1-5.8,6.7-6.6,27.2-.6,16.2-1.2,39.1,10.5,66.1a117.44,117.44,0,0,0,17.9,30.1c12.7,15.1,23.5,19.4,49,34,49,27.9,59.8,41.1,70.7,34.9C470.6,367,474.3,353.8,471.8,344.4Z"/><path class="cls-8" d="M444.5,226.9a39.35,39.35,0,0,1-5.3-2.7c-7.6-4-15.7-7.3-23.1-11.8a19.47,19.47,0,0,0-5.6-2.4,14.75,14.75,0,0,0-5.6-.5c-3.4.4-4,1.8-6.6,1.8a9.35,9.35,0,0,1-4.9-1.7c-7.6-4.8-53.7-32.8-62.3-36.1a32,32,0,0,1-5.2-2.7c-1.8-1.2-3.8-2.6-4.7-4.4-.4-.8-1.2-2.9,2.3-11.3a60.19,60.19,0,0,1,8.7-14.9c3-3.8,4.5-5.7,6.6-6,4.1-.6,9.6,3.7,10.2,4.2a10.42,10.42,0,0,0,1.8,1.3c1.7,1.1,3,1.8,3.4,2,4.7,2.3,38.9,22.5,48.3,28.2,6.3,3.9,5.5,3.7,7.2,4.5,2,.9,3.9,1.5,5.6,3.5a13.93,13.93,0,0,1,1.9,3.1c.6,1.4.6,1.9,1.4,4.4a15.8,15.8,0,0,0,1.3,3.6c.2.4.8,1.2,3.9,3.4,2,1.4,3,2,3,2,5.8,3.5,20.1,12.8,23.7,15.4,1,.7,2.1,1.3,3,2s1.4,1.3,2.3,1.3,1-.4,1.5-.2.9.7,1.5,1.7c.4.7.6,1.1.8,1,.4,0,.2-1,.7-1.3.8-.4,2.7,1.1,3.1,2.9a3.08,3.08,0,0,1,0,1.4c-.4,2.3-1.8,3.9-3.1,5.8-2,3.1-2.1,4.9-4.4,7a4.57,4.57,0,0,1-2,1.1c-1.2.2-2.7-.3-3-1.2-.1-.4,0-.6-.3-1a1.54,1.54,0,0,0-1.1-.6c-.5-.1-.6,0-1.1-.1a1.93,1.93,0,0,1-1.4-1.1c-.1-.3-.1-.4-.2-.7C446.5,227.2,444.8,227,444.5,226.9Z"/><path class="cls-10" d="M377.1,199.7a3.49,3.49,0,0,1,1.3-1.8,1.72,1.72,0,0,1,1-.3c1.4,0,4.9-2.2,7.1-4a29.23,29.23,0,0,0,9.2-15.8c.1-.8.2-1.4.2-1.8.3-2.6.3-6.1-.2-6.9a2,2,0,0,1-.2-.7.52.52,0,0,1,.2-.4,2.83,2.83,0,0,0,.4-1.7h0L375,153.8h0s-5.8,7.5-10.7,15.5c-1.2,1.9-1.9,3.2-9.3,17.5h0c.2,0,22.1,12.9,22.1,12.9Z"/><path class="cls-11" d="M341.9,179c.6-.1.9-1,.9-1.1.5-1.3,3.1-6,8.5-15.6,2.6-4.6,9.1-14.6,10.1-15.5,0,0,.5-.4.4-.6a.35.35,0,0,0-.2-.1.76.76,0,0,0-.4-.2l-3.6-2.1c-.3-.2-.4-.2-.4-.2a48.28,48.28,0,0,0-4.2-2.4,2,2,0,0,0-1.2-.4c-1.1.1-1.8,1.5-2,1.9-2.5,5.1-6.5,9.3-9.4,14.2s-4.5,10.3-7.8,14.9c-.2.3-1.1,1.5-.7,2.1a1.77,1.77,0,0,0,.8.5,33.75,33.75,0,0,1,4.3,2.2c.6.3,2.1,1.2,2.9,1.7l.4.2C341.1,178.8,341.5,179.1,341.9,179Z"/><path class="cls-12" d="M450.8,231.5c-.3-.8.6-1.5,1.8-3.2a26.53,26.53,0,0,0,2.4-3.7c2-3.3,3.4-7,4.2-8.2a5.92,5.92,0,0,0,.4-.6c.4-.9.3-1.2.5-1.4.5-.3,1.6.5,2.3,1.3a4.09,4.09,0,0,1,.9,1.9c.1.6,0,1.6-1.1,3.9-.9,1.9-1.4,1.8-2.5,3.9-.9,1.6-.8,2-1.9,3.7a7.68,7.68,0,0,1-2,2.5,4.24,4.24,0,0,1-3.1,1C452.5,232.5,451.1,232.3,450.8,231.5Z"/><circle class="cls-13" cx="391.59" cy="185.54" r="7.9" transform="translate(34.75 431.37) rotate(-59.91)"/><circle class="cls-14" cx="391.75" cy="185.7" r="6.3" transform="translate(34.68 431.59) rotate(-59.91)"/><path class="cls-15" d="M445,227c1.6.1,2.1-3.8,5-8.1,2.1-3.1,4.7-5.3,4-6.4a8.21,8.21,0,0,0-1.1-.9c-.3-.2-1-.8-1.6-1.2-2.3-1.7-14.3-9.7-14.3-9.7h0l-11.7-7h0s-.4-.3-1.8-1.3c-1.2,1.9-4.2,7-5.3,9-1.3,2.1-4.3,7.3-5.6,9.4,0,0,.7.3,1.3.6a12.88,12.88,0,0,0,1.3.6c1.8.9,6.1,3.5,9.8,5.4.8.4.3.1,3.1,1.5,3.2,1.6,10.4,5.2,13.1,6.5l2.2,1A13.56,13.56,0,0,0,445,227Z"/><path class="cls-16" d="M372.7,193.4a2.19,2.19,0,0,0,.2-1.3,2,2,0,0,0-.9-1.4,2.31,2.31,0,0,0-1.9-.4,1,1,0,0,0-.3.1.35.35,0,0,0,.1-.2c.2-.3,0-.7-.1-.9a4.1,4.1,0,0,0-3.6-2.1c-.2,0-.9.3-2.4.8a17,17,0,0,0-1.8.7l9.8,5.9C371.8,194.7,372.4,194.1,372.7,193.4Z"/><path class="cls-10" d="M371.3,193.2h0l-2.3-1.3h0a2.75,2.75,0,0,1,1.2-.7,1.47,1.47,0,0,1,1.4.5,1.57,1.57,0,0,1,.1.9Z"/><path class="cls-10" d="M367.9,191.3h0s-3.4-1.9-3.4-2h0a3.36,3.36,0,0,1,2.1-.7,2.92,2.92,0,0,1,1.4.5,1.2,1.2,0,0,1,.7.7,1.37,1.37,0,0,1-.4,1.2C368.2,191.1,367.7,191.4,367.9,191.3Z"/><path class="cls-16" d="M374.1,190.7a6.06,6.06,0,0,0,.7-1.3c.4-.8.7-1.3.6-1.9a2.6,2.6,0,0,0-.9-1.4,1.84,1.84,0,0,0-2-.3c-.4.2-.5.4-.8.4s-.3-.2-.5-.6a8.94,8.94,0,0,1-1-2.2c0-.5.1-.8-.1-.9s-.9.5-.9,1.1c0,.4.2.7.6,1.5a11.67,11.67,0,0,0,.9,1.4.62.62,0,0,1,.3.5.52.52,0,0,1-.2.4c-.2.1-.5,0-1.2-.4-1.3-.7-1.7-.9-1.8-1.3,0-.2,0-.3-.1-.3-.3-.1-1.2,1-1.2,1S374.1,190.7,374.1,190.7Z"/><path class="cls-10" d="M373.8,189.4a2.13,2.13,0,0,0,.5-.8,1.17,1.17,0,0,0-.1-.9,1.76,1.76,0,0,0-1.1-.9,1.46,1.46,0,0,0-1.5.6,4,4,0,0,0-.4.6A21.48,21.48,0,0,1,373.8,189.4Z"/><path class="cls-16" d="M376.5,186.2h0c1.3-2.2,2.1-3.6,2.1-3.6h0s-.7-.9-.9-.8-.1.4-.2.8c-.1,1-.7,2.1-1.2,2.1-.3,0-.3-.2-1.1-.6-.3-.2-.4-.2-.4-.2-.1-.3.6-1,1.2-1.6a.35.35,0,0,0,.1-.2c0-.2-.2-.3-.7-.7-.2-.2-.3-.3-.4-.2s-.1.2-.1.2-.4,1.9-.9,2c-.2.1-.3-.1-.8-.5-.9-.6-1.2-.5-1.3-.7-.2-.6.8-1.8,1.9-2.3a2.19,2.19,0,0,0,.5-.3c0-.3-1.3-.8-1.7-.4a.31.31,0,0,0-.1.2,11.13,11.13,0,0,1-2.2,3.2h0C370.2,182.5,376.5,186.2,376.5,186.2Z"/><path class="cls-16" d="M379.2,181.5h0c1.3-2.2,2.1-3.6,2.1-3.6h0s-.7-.9-.9-.8-.1.4-.2.8c-.1,1-.7,2.1-1.2,2.1-.3,0-.3-.2-1.1-.6-.3-.2-.4-.2-.4-.2-.1-.3.6-1,1.2-1.6a.35.35,0,0,0,.1-.2c0-.2-.2-.3-.7-.7-.2-.2-.3-.3-.4-.2s-.1.2-.1.2-.4,1.9-.9,2c-.2.1-.3-.1-.8-.5-.9-.6-1.2-.5-1.3-.7-.2-.6.8-1.8,1.9-2.3a2.19,2.19,0,0,0,.5-.3c0-.3-1.3-.8-1.7-.4a.31.31,0,0,0-.1.2,11.13,11.13,0,0,1-2.2,3.2h0C372.9,177.9,379.2,181.5,379.2,181.5Z"/><path class="cls-16" d="M384.8,171.9c.6-1.1,1.3-2.2,2-3.4h0s-1.2-.8-1.3-.7a1.41,1.41,0,0,1,.3.5c.1.3-.1.6-.4,1.2s-.6.9-.8.9h-.1c-.2,0-.3-.2-1-.6-.5-.3-.6-.2-.6-.4-.1-.4.6-1.3,1-1.7a.35.35,0,0,0,.1-.2c0-.1-.4,0-.8-.2a.76.76,0,0,0-.4-.2l-.2-.1c-.3,0-.1,1.8-.6,1.9-.2,0-.3-.1-.6-.4-1.1-.8-1.7-.6-1.9-1.1a6.47,6.47,0,0,1,.3-1,2.61,2.61,0,0,1,.7-1.3c.3-.2.5-.2.5-.3s-1-.3-1.5-.3a.37.37,0,0,0-.3.1,1.2,1.2,0,0,0-.2.8,6.37,6.37,0,0,1-.5,2.8C380.6,169.4,382.7,170.6,384.8,171.9Z"/><path class="cls-16" d="M380.8,176.3c.1.3,1.5.3,1.5.3h0l2.2-3.8h0s-1.6-.1-2.2-.1c-3.4-.2-4.7.2-4.9-.3s.7-1.6,1.6-2.2c.3-.2.6-.3.6-.5,0-.4-1.4-.8-2-.3-.3.2-.3.5-.5,1.4,0,0-.1.3-1.4,2.9h0s1.7.2,2.9.3c2.5.1,3.7-.4,3.9,0s-.6,1.3-1,1.7S380.8,176.1,380.8,176.3Z"/><path class="cls-16" d="M387.1,167.9h0l-7.4-4.3h0s-.3-1.2,0-1.4c.5-.3,2.9,2.8,3.7,2.4a.76.76,0,0,0,.2-.4c0-.3-.5-.6-.7-.7a9.56,9.56,0,0,1-2.2-2.1,6.09,6.09,0,0,1-1.3-2.1c-.1-.5-.1-1,.1-1.1s.3.4.6.9c1,1.8,1.7,1.5,3.1,3.5.3.4.6.9,1.1.9a1.45,1.45,0,0,0,.7-.2c1.1-.4,3.4.9,3.5,2.3C388.5,166.6,387.1,167.9,387.1,167.9Z"/><path class="cls-10" d="M386.7,166.5a1.89,1.89,0,0,0,.4-.6,1.33,1.33,0,0,0-.3-1,1.43,1.43,0,0,0-1.3-.7,2.94,2.94,0,0,0-1.4.9h0l2.6,1.4Z"/><path class="cls-17" d="M325.9,175.3a6.93,6.93,0,0,0,2-3c.2-1-.3-1.7-.8-2.9s-.9-3.1-1.7-7.2a49.57,49.57,0,0,1-1-5.7c-.4-5.3,2.8-6.1,6-15,.8-2.2,3.1-9.1,5.6-10.9a7.47,7.47,0,0,1,2.3-1.1,5.3,5.3,0,0,1,2.9-.1,4.57,4.57,0,0,1,2.5,1.5,3.57,3.57,0,0,1,1.1,2.3c0,.6-.3,1-.1,1.7.1.3.2.9.6,1s.9-.4,1-.6a2.77,2.77,0,0,0,.5-1.2c.5-1.5,2.5-2.2,2.8-2.3a5,5,0,0,1,2.9-.1,4.86,4.86,0,0,1,2.8,2.3,3.7,3.7,0,0,1,.8,2.9,2.36,2.36,0,0,0-.2,1.3,1.4,1.4,0,0,0,.3.9c.4.2.9-.4,1.5-1.1a19.74,19.74,0,0,1,1.5-1.8,4.76,4.76,0,0,1,2.3-1.1,5.27,5.27,0,0,1,3.7,1.3,3.74,3.74,0,0,1,1.2,1.3,4.44,4.44,0,0,1,.3,3.3,12,12,0,0,0-.5,2.6.4.4,0,0,0,.2.4c.1,0,.3.1.9-.3,1-.7,1.1-1.5,1.7-2.1,1.3-1.4,4.3-.5,4.5-.5a4.73,4.73,0,0,1,3.1,2.5,4.16,4.16,0,0,1,.1,2.9,8.52,8.52,0,0,1-1.5,3.2c-.3.4-.7,1-.5,1.2s.5,0,.7,0a7.75,7.75,0,0,1,3.5.1,4.52,4.52,0,0,1,2.4,1.8,5,5,0,0,1,1,2.6,6.21,6.21,0,0,1-.7,3.2c-1.5,2.9-2.7,5.9-4.3,8.7-4.3,7.5-2.7,8.9-5.9,11.5a23.94,23.94,0,0,1-6.2,3.6c-1.8.7-3.5,1.5-5.3,2.2a3.92,3.92,0,0,0-1.4.8s-.8.7-2,3.7h0c.1,0-30.6-13.8-30.6-13.8Z"/><path class="cls-18" d="M34.8,187.3A93.74,93.74,0,0,0,27,198.2c-12.5,20.8-6.3,57.9-4.7,101.6,1.3,34.2-1.8,33.1,1.6,45.3,10.1,37.5,40.8,57.5,43.7,59.4,31.2,19.7,74.3,22.3,107.8,1.6,2.1-1.3,33.5-21.4,43.7-59.4,1.7-6.4,2.1-10.8,3.1-28.1,5.2-91.2,1.4-103.3-3.1-112.5-10.4-21.2-27.3-32.7-34.4-37.5-51.5-34.4-113.4-9.2-128.1,0A103.83,103.83,0,0,0,34.8,187.3Z"/><path class="cls-3" d="M47.3,262.3c-.5-.6,3.3-6.1,9.4-9.4a26.94,26.94,0,0,1,25,0c6.1,3.3,9.9,8.8,9.4,9.4s-4.8-4-12.5-6.2a33.85,33.85,0,0,0-18.7,0C52.1,258.4,47.8,262.9,47.3,262.3Z"/><circle class="cls-3" cx="73.9" cy="285.8" r="10.9"/><circle class="cls-3" cx="173.9" cy="285.8" r="10.9"/><path class="cls-4" d="M69.2,327.9s6.4,11.1,9.4,15.6,10.1,15.5,21.9,21.9c14.8,8,33.3,6.7,46.9,0a55.86,55.86,0,0,0,18.7-15.6c6.8-8.8,12.5-21.9,12.5-21.9H69.2Z"/><path class="cls-5" d="M87.9,352.9c.3-2.3,2.6-3.7,6.2-6.2,5.3-3.6,11.2-5.4,18.7-6.2,7.1-.8,26.8-2.1,43.7,9.4,1.5,1,2.8,1.7,3.1,3.1,1.2,6.2-18.1,19.1-37.5,18.7C104.7,371.3,87.1,359.9,87.9,352.9Z"/><path class="cls-6" d="M81.7,337.3h84.4v-9.4H81.7C81.7,331.1,81.7,334.2,81.7,337.3Z"/><path class="cls-19" d="M44.2,546.7c0,.1.1.1,0,0,.4.1,4.8,21.3,4.8,21.3H199a186.87,186.87,0,0,0,1.4-21.3v-3.1c-.1-8.9,0-14.6,0-15.6-.1-31.4-15.6-53.1-15.6-53.1-12.4-17.4-29.3-25.1-37.5-28.1-6.8-2.5-30.7-10.9-56.2,0-15.2,6.5-23.9,16.8-28.1,21.9a87.63,87.63,0,0,0-18.7,43.7C42.4,527.1,44.2,546.7,44.2,546.7Z"/><path class="cls-18" d="M103.6,418.3c-2.9,2.6-1.4,7.4,1.6,19.6,6.1,25.3,5.7,28.2,10.9,43.2,6.3,18.3,8.5,18.8,9.4,18.7,2.1-.2,3-4.7,6.2-18.7s5.7-27.9,9.4-41.6,6-18.4,3.1-21.1c-3.1-3-7.9.2-21.9,0C110.5,418.1,106.5,415.6,103.6,418.3Z"/><path class="cls-7" d="M250.7,284.2h0s.3-34.3-4.7-60.9c-2.6-14.2-7.2-38.5-25-62.5-7-9.4-27.7-34.5-64.1-45.3-10.7-3.2-29.8-8.6-53.1-3.1-28.6,6.7-45.5,25.5-56.2,37.5-11,12.3-19.8,22.1-21.9,37.5-2.6,19.2,6.8,34.6,12.5,43.7,20.1,32.6,53.9,44.2,62.5,46.9,13.6,4.2,11.7,1,78.1,3.1C178.8,281.1,189.2,281.4,250.7,284.2Z"/><path class="cls-20" d="M22.6,327.9s-1.2-8.4-3.5-24.6c-3.9-27.4-5.9-41-5.9-41-1.1-7.3-1.8-14.6-3.1-21.9C8,228.8,6.1,222.3,7,212.3c.7-7.8,2.6-11.4,3.1-12.5,4.5-8.4,13.8-14,15.6-12.5.7.6.2,2.2,0,3.1-1.7,6.6,0,9.5,0,25,0,19.8-2.8,41.7-3.1,78.1C22.5,306,22.6,327.9,22.6,327.9Z"/><path class="cls-8" d="M185.9,331.8a21.15,21.15,0,0,0-12.5-1.3,20.38,20.38,0,0,0-8.8,4.3c-.7.6-10,8.9-6.3,17.3,2.8,6.2,11.3,9.3,16.1,6.8,4.3-2.2,5.6-9,6.2-12.4s.4-6.1,2.3-10.1A21.5,21.5,0,0,1,185.9,331.8Z"/><path class="cls-21" d="M171.3,507.2c4.8-17.6,23.8-23.5,48.3-35.5,41.2-20.1,86.7-43.1,106.3-83.8,12.6-26.3,15.3-61.9,15.6-65.7.8-11.9,1.4-19.6,0-30.4-2-16.2-5.8-19.4-3-24.8,6.7-13,39.3-15.6,53.8-1.4,3.1,3.1,8.5,9.8,9.6,39.9.9,23.8,1.7,57.2-15.3,96.8-4.2,9.8-11.6,26.5-26.3,44.1-18.5,22.1-34.3,28.4-71.8,49.7C216.7,537,200.9,556.2,185,547.2,173,540.2,167.6,521,171.3,507.2Z"/><path class="cls-8" d="M211.3,335.3a76.7,76.7,0,0,0,7.8-3.9c11.2-5.9,23-10.7,33.8-17.3a29.21,29.21,0,0,1,8.2-3.5,23.36,23.36,0,0,1,8.2-.7c4.9.6,5.9,2.6,9.7,2.6a13.46,13.46,0,0,0,7.2-2.5c11.2-7,78.6-48,91.1-52.8a34.35,34.35,0,0,0,7.6-4c2.7-1.8,5.6-3.8,6.9-6.5.6-1.2,1.8-4.2-3.4-16.5a93.2,93.2,0,0,0-12.7-21.9c-4.3-5.6-6.6-8.4-9.6-8.8-6.1-.8-14,5.4-14.9,6.2-.3.2-1.2,1-2.6,1.9a52.12,52.12,0,0,1-4.9,2.9c-6.9,3.4-56.9,32.9-70.6,41.3-9.2,5.6-8,5.4-10.6,6.6-3,1.4-5.7,2.3-8.1,5.1a18.87,18.87,0,0,0-2.8,4.5c-.9,2-.8,2.8-2,6.5a27.27,27.27,0,0,1-1.9,5.2c-.3.5-1.2,1.7-5.8,5-2.9,2-4.4,3-4.4,3-8.4,5.1-29.5,18.8-34.6,22.5a42.7,42.7,0,0,0-4.4,3c-1.2,1-2.1,1.9-3.4,2-1.1,0-1.4-.6-2.3-.3s-1.3,1-2.2,2.5c-.7,1-.9,1.5-1.2,1.5-.5-.1-.3-1.5-1.1-1.8-1.1-.5-3.9,1.5-4.5,4.3a4.66,4.66,0,0,0,0,2.1c.6,3.4,2.7,5.7,4.5,8.5,3,4.6,3.1,7.2,6.4,10.3a5.25,5.25,0,0,0,3,1.6c1.7.2,3.9-.4,4.4-1.7.2-.5,0-.9.4-1.5a3.09,3.09,0,0,1,1.5-.9c.8-.2.9.1,1.6-.1a3.18,3.18,0,0,0,2-1.6c.2-.5.1-.6.3-1C208.2,335.6,210.7,335.4,211.3,335.3Z"/><path class="cls-10" d="M309.9,295.4a5.47,5.47,0,0,0-1.9-2.6,2.74,2.74,0,0,0-1.5-.4c-2,0-7.2-3.2-10.4-5.9-11.1-9.4-13.4-23.2-13.4-23.2a15.73,15.73,0,0,1-.3-2.7c-.4-3.8-.4-8.9.3-10.1a1.66,1.66,0,0,0,.3-1,1.28,1.28,0,0,0-.4-.6,4.49,4.49,0,0,1-.6-2.5h0l30.9-18.3h0s8.5,11,15.6,22.7c1.7,2.8,2.7,4.6,13.6,25.6h0c-.2.1-32.2,19-32.2,19Z"/><path class="cls-11" d="M361.5,265.2c-.8-.1-1.3-1.4-1.4-1.7-.7-1.9-4.6-8.8-12.4-22.8-3.8-6.8-13.3-21.4-14.8-22.7-.1-.1-.7-.7-.5-.9,0-.1.1-.1.3-.2a2.09,2.09,0,0,0,.6-.4c1.7-1,3.5-2,5.2-3a2.48,2.48,0,0,0,.6-.4c2.6-1.5,3.9-2.4,6.2-3.6a4.56,4.56,0,0,1,1.7-.6c1.6.1,2.6,2.2,2.9,2.9,3.7,7.5,9.5,13.7,13.7,20.8s6.6,15.1,11.4,21.8c.3.4,1.6,2.1,1,3.1a1.91,1.91,0,0,1-1.2.7c-.9.2-2.7,1.2-6.3,3.3-.9.5-3.1,1.7-4.3,2.5l-.6.4A7.17,7.17,0,0,1,361.5,265.2Z"/><path class="cls-12" d="M202,341.9c.4-1.1-.9-2.3-2.7-4.6a51.27,51.27,0,0,1-3.5-5.4c-2.9-4.9-4.9-10.2-6.2-12.1-.1-.2-.3-.5-.5-.9-.6-1.3-.4-1.8-.8-2-.7-.4-2.4.7-3.4,2a6.55,6.55,0,0,0-1.3,2.8c-.1.9-.1,2.3,1.6,5.6,1.4,2.8,2,2.6,3.7,5.7,1.3,2.4,1.2,2.9,2.7,5.4a11.76,11.76,0,0,0,2.9,3.6,6.4,6.4,0,0,0,4.6,1.5C199.5,343.5,201.5,343.2,202,341.9Z"/><circle class="cls-13" cx="288.72" cy="274.78" r="11.6" transform="translate(-98.85 181.75) rotate(-30.09)"/><circle class="cls-14" cx="288.59" cy="274.92" r="9.3" transform="translate(-98.94 181.7) rotate(-30.09)"/><path class="cls-15" d="M210.5,335.4c-2.4.1-3.1-5.6-7.3-11.8-3-4.6-6.8-7.8-5.8-9.4a14.07,14.07,0,0,1,1.7-1.4,27.7,27.7,0,0,1,2.3-1.7c3.4-2.4,21-14.2,21-14.2h0l17.1-10.3h0s.6-.5,2.6-1.9c1.7,2.9,6.1,10.3,7.8,13.1,1.8,3.1,6.3,10.7,8.2,13.8,0,0-1,.5-1.9.9-1.4.7-1.9.9-1.9.9-2.7,1.3-8.9,5.1-14.3,7.9-1.2.6-.4.2-4.5,2.2-4.7,2.3-15.2,7.5-19.2,9.5l-3.3,1.5C211.4,335,210.7,335.4,210.5,335.4Z"/><path class="cls-16" d="M316.3,286.2a4.09,4.09,0,0,1-.3-1.9,3.36,3.36,0,0,1,1.3-2,3.26,3.26,0,0,1,2.8-.6c.1,0,.4.2.5.1s-.1-.2-.2-.3c-.3-.4,0-1,.1-1.3a5.86,5.86,0,0,1,5.2-3,25.39,25.39,0,0,1,3.6,1.2c1,.4,2.6,1,2.6,1l-14.3,8.7A6.7,6.7,0,0,1,316.3,286.2Z"/><path class="cls-10" d="M318.4,286h0l3.4-2h0a4.89,4.89,0,0,0-1.8-1,2,2,0,0,0-2,.8,2,2,0,0,0-.1,1.3A3.05,3.05,0,0,0,318.4,286Z"/><path class="cls-10" d="M323.3,283.1h0l4.9-2.9h0a5.23,5.23,0,0,0-3.1-1.1,3.06,3.06,0,0,0-2,.8,2.18,2.18,0,0,0-1.1,1,1.57,1.57,0,0,0,.6,1.7C322.9,282.9,323.6,283.3,323.3,283.1Z"/><path class="cls-16" d="M314.2,282.3a17.61,17.61,0,0,1-1.1-1.8c-.6-1.2-1-1.9-.8-2.8a3.26,3.26,0,0,1,1.3-2,3,3,0,0,1,3-.5c.5.2.7.6,1.2.6.3-.1.5-.3.7-.8a9,9,0,0,0,1.4-3.3c.1-.8-.1-1.2.1-1.3s1.3.7,1.4,1.7c.1.6-.2,1.1-.8,2.1a17.4,17.4,0,0,1-1.3,2,.93.93,0,0,0-.4.7.82.82,0,0,0,.4.6c.3.2.7,0,1.7-.6,1.9-1,2.5-1.3,2.6-1.9.1-.2,0-.4.1-.5.4-.2,1.7,1.5,1.7,1.5C325.3,275.8,314.2,282.3,314.2,282.3Z"/><path class="cls-10" d="M314.7,280.3a4.44,4.44,0,0,1-.7-1.2,1.71,1.71,0,0,1,.1-1.3,2.36,2.36,0,0,1,1.7-1.4,2,2,0,0,1,1.3.1,1.9,1.9,0,0,1,.8.7,5.26,5.26,0,0,1,.5.9C318.4,278.2,314.7,280.3,314.7,280.3Z"/><path class="cls-16" d="M310.8,275.6h0c-1.8-3.2-3-5.2-3-5.2h0s1-1.3,1.4-1.2c.2.1.2.5.2,1.1.2,1.4,1,3,1.8,3.1.4,0,.4-.3,1.5-.9.5-.2.6-.2.6-.4.1-.5-.9-1.5-1.7-2.3-.1-.1-.2-.2-.2-.3,0-.3.3-.4,1.1-1,.3-.2.5-.4.6-.4s.2.2.2.3.6,2.7,1.3,2.9c.3.1.4-.2,1.2-.7,1.3-.8,1.7-.7,1.8-1.1.3-.8-1.2-2.6-2.8-3.3-.3-.2-.7-.3-.7-.4,0-.5,1.9-1.2,2.5-.6a1.44,1.44,0,0,1,.2.3c.5,1.7,3.2,4.7,3.2,4.7h0C320,270.3,310.8,275.6,310.8,275.6Z"/><path class="cls-16" d="M306.8,268.8h0c-1.8-3.2-3-5.2-3-5.2h0s1-1.3,1.4-1.2c.2.1.2.5.2,1.1.2,1.4,1,3,1.8,3.1.4,0,.4-.3,1.5-.9.5-.2.6-.2.6-.4.1-.5-.9-1.5-1.7-2.3-.1-.1-.2-.2-.2-.3,0-.3.3-.4,1.1-1,.3-.2.5-.4.6-.4s.2.2.2.3.6,2.7,1.3,2.9c.3.1.4-.2,1.2-.7,1.3-.8,1.7-.7,1.8-1.1.3-.8-1.2-2.6-2.8-3.3-.3-.2-.7-.3-.7-.4,0-.5,1.9-1.2,2.5-.6a1.44,1.44,0,0,1,.2.3c.5,1.7,3.2,4.7,3.2,4.7h0C316.1,263.5,306.8,268.8,306.8,268.8Z"/><path class="cls-16" d="M298.6,254.7c-1-1.6-1.9-3.3-2.9-4.9h0a10.81,10.81,0,0,1,1.8-1.1c0,.1-.3.2-.4.7s.1.8.6,1.7c.4.7.8,1.4,1.2,1.4h.1a8.09,8.09,0,0,1,1.4-.9c.7-.4.9-.3.9-.5.2-.6-.8-1.9-1.4-2.5,0,0-.2-.2-.2-.3s.5,0,1.1-.2a3.11,3.11,0,0,0,.6-.4l.3-.2c.4.1.1,2.6.8,2.8.2.1.4-.2.9-.5,1.5-1.1,2.5-.9,2.8-1.6.1-.2-.1-.6-.4-1.4-.4-1-.6-1.5-1.1-1.8s-.7-.3-.7-.4c0-.3,1.5-.5,2.2-.5a1.09,1.09,0,0,1,.5.1c.3.3.2.9.2,1.1a10.37,10.37,0,0,0,.7,4.1C304.8,251.1,301.7,252.9,298.6,254.7Z"/><path class="cls-16" d="M304.5,261.2c-.1.5-2.2.5-2.2.5h0l-3.2-5.5h0s2.4-.2,3.2-.2c4.9-.3,6.9.3,7.1-.4s-1.1-2.3-2.3-3.2c-.5-.4-.9-.5-.8-.7,0-.6,2-1.2,3-.5.5.3.4.8.8,2a31.92,31.92,0,0,0,2,4.2h0s-2.4.3-4.3.4c-3.6.2-5.4-.6-5.7,0s.8,1.9,1.4,2.5C304,260.7,304.5,260.9,304.5,261.2Z"/><path class="cls-16" d="M295.2,248.8h0l10.8-6.2h0s.4-1.8,0-2.1c-.7-.5-4.2,4.2-5.4,3.5a.82.82,0,0,1-.4-.6c0-.5.7-.8,1.1-1a12.28,12.28,0,0,0,3.2-3.1,7.42,7.42,0,0,0,1.9-3.1c.1-.7.1-1.5-.1-1.6s-.5.7-.9,1.3c-1.4,2.6-2.4,2.2-4.5,5.1-.4.5-.9,1.3-1.7,1.4a2.94,2.94,0,0,1-1-.3c-1.6-.6-5,1.4-5.1,3.3C293.2,247,295.2,248.8,295.2,248.8Z"/><path class="cls-10" d="M295.8,246.9a3.05,3.05,0,0,1-.5-.9c-.2-.6.3-1.3.4-1.5a2.28,2.28,0,0,1,1.8-1.1,3.89,3.89,0,0,1,2,1.3h0l-3.7,2.2Z"/><path class="cls-17" d="M384.7,259.7s-2.6-2.1-3-4.4c-.3-1.5.4-2.5,1.2-4.2s1.3-4.6,2.5-10.5a63.06,63.06,0,0,0,1.4-8.4c.5-7.8-4.2-9-8.8-21.9-1.1-3.2-4.6-13.3-8.2-16a13.07,13.07,0,0,0-3.3-1.6,9.08,9.08,0,0,0-4.2-.2,6.75,6.75,0,0,0-3.7,2.2A5.17,5.17,0,0,0,357,198c0,.9.4,1.4.1,2.5-.1.4-.3,1.3-.9,1.4s-1.2-.7-1.4-.9a8,8,0,0,1-.8-1.7c-.7-2.2-3.6-3.2-4.1-3.3a7.51,7.51,0,0,0-4.2-.2,7.63,7.63,0,0,0-4.2,3.4c-.7,1.1-1.7,2.7-1.2,4.2a4.39,4.39,0,0,1,.3,1.9c0,.4-.1,1.1-.5,1.3s-1.4-.6-2.3-1.6c-1.4-1.4-1.4-1.9-2.2-2.6a5.75,5.75,0,0,0-3.3-1.6c-2.5-.3-4.4,1.2-5.4,1.9a7.69,7.69,0,0,0-1.8,1.8,7.28,7.28,0,0,0-.4,4.9,15.2,15.2,0,0,1,.7,3.8c0,.2,0,.5-.2.6s-.4.2-1.3-.5c-1.4-1.1-1.7-2.3-2.4-3.1-1.9-2.1-6.3-.8-6.5-.7a7,7,0,0,0-4.6,3.6,6.86,6.86,0,0,0-.2,4.2,16.44,16.44,0,0,0,2.1,4.7c.4.7,1,1.4.8,1.7s-.7,0-1.1,0a10.6,10.6,0,0,0-5.1.2,7.12,7.12,0,0,0-3.5,2.6,8,8,0,0,0-1.4,3.8,7.75,7.75,0,0,0,1.1,4.7c2.2,4.2,3.9,8.6,6.3,12.7,6.2,10.9,4,13,8.6,16.9a30.18,30.18,0,0,0,9.1,5.2c2.6,1,5.1,2.2,7.7,3.3a8.42,8.42,0,0,1,2.1,1.1s1.2,1,3,5.4h0c0,.3,44.8-19.9,44.8-19.9Z"/><path class="cls-22" d="M417.6,192.2h0s-.2-23.7,3.2-42c1.8-9.8,4.9-26.6,17.2-43.1,4.8-6.5,19.1-23.8,44.2-31.3,7.4-2.2,20.5-5.9,36.7-2.2,19.8,4.6,31.4,17.6,38.8,25.9,7.6,8.5,13.6,15.2,15.1,25.9,1.8,13.3-4.7,23.8-8.6,30.2C550.3,178,527,186,521,187.9c-9.4,2.9-8.1.7-53.9,2.2C467.1,190,460,190.3,417.6,192.2Z"/><path class="cls-23" d="M573.9,222.4s2.3-15.8,6.5-45.3c1.2-8.7,3.2-12.8,4.3-21.6a51.55,51.55,0,0,0,0-12.9c-.5-3.7-.7-6-2.2-8.6-3.1-5.8-9.5-9.7-10.8-8.6-.5.4-.2,1.5,0,2.2,1.2,4.5,0,6.6,0,17.2,0,13.6,1.9,28.7,2.2,53.9C574,207.2,573.9,222.4,573.9,222.4Z"/><polyline class="cls-24" points="438 184.6 446.7 184.6 573.9 184.6"/><path class="cls-1" d="M449.9,177.1h49.6v4.3c0,2.9-2,9.3-6.5,15.1-3.3,4.2-9.1,11.8-19.4,12.9-7.6.8-17.2-1.9-21.6-8.6C449.9,197.4,449.9,194.3,449.9,177.1Z"/><path class="cls-1" d="M564.2,177.1H514.6v4.3c0,2.9,2,9.3,6.5,15.1,3.3,4.2,9.1,11.8,19.4,12.9,7.6.8,17.2-1.9,21.6-8.6C564.2,197.4,564.1,194.3,564.2,177.1Z"/><path class="cls-25" d="M442,455c-6.7,5.3-1.2,14.7-2,53-.3,13.5-1.7,19.8-1.5,34.3.2,9.3,1,25.2,1,25.2h64c.5-14.7.5-15.5.5-15.5.6-19.1,1.1-26,1-26a115.2,115.2,0,0,0-1,23c.3,7.9,1.5,18.5,1.5,18.5h60s1.3-13.8,1.5-15.5c2-20.8,2.8-28,2-52-1.1-32.4-2.6-36.3-6-39-11.3-8.9-26.4,8.9-57,9C470.6,470.1,453.1,446.2,442,455Z"/><path class="cls-26" d="M440.7,456.1s14.9,12.3,25.5,18.6c15.3,9,28,9.2,43.3,9.3a92,92,0,0,0,30.6-4.7c8.2-2.7,26.8-9.1,28-23.3v-4.7c-.1-13.2,0-21.7,0-23.3-.1-46.7-12.7-79.1-12.7-79.1-10.1-25.8-23.8-37.4-30.6-41.9-5.5-3.7-25-16.2-45.8,0-12.4,9.7-19.5,25-22.9,32.6-2,4.4-12.8,29-15.3,65.2-1.6,22.2-.1,51.3-.1,51.3Z"/><path class="cls-8" d="M588.6,281.3c-.4.3-2,2.9-5.1,8-7.1,11.7-15.4,22.8-21.6,35a30.18,30.18,0,0,1-5.7,7.9,25.36,25.36,0,0,1-7.3,5.3c-4.9,2.2-7,.9-10.5,3.1a14.87,14.87,0,0,0-5.3,6.4c-6.4,12.8-46,88.7-55,100.2a44.08,44.08,0,0,0-4.8,7.9c-1.5,3.2-3,6.6-2.8,9.9.1,1.4.7,4.9,12.4,13.4a101.93,101.93,0,0,0,24,13.2c7.2,2.8,10.8,4.1,13.9,2.8,6.1-2.6,9.9-12.9,10.4-14.1.2-.4.6-1.6,1.3-3.2a39.42,39.42,0,0,1,3-5.4c4.5-7,34.3-62.5,42.4-78,5.4-10.4,4.4-9.5,6.2-12,2-2.9,4-5.3,4.7-9.3a20.41,20.41,0,0,0,0-5.7c-.3-2.4-.8-3-1.8-7.2a30.63,30.63,0,0,1-1.2-5.9c0-.7.1-2.3,2.5-7.9,1.5-3.5,2.4-5.3,2.4-5.3,5-9.5,16.8-34,19.5-40.4a50.55,50.55,0,0,0,2.4-5.3c.6-1.6.8-3,2-3.7,1-.6,1.6-.2,2.3-.9s.6-1.6.7-3.6c0-1.3-.1-1.9.3-2.1s1.2,1.2,2,1.1c1.3-.1,2.8-3.6,1.8-6.5a4.85,4.85,0,0,0-1.1-1.9c-2.5-2.8-5.7-3.8-9-5.4-5.4-2.6-6.9-5-11.7-6a5.71,5.71,0,0,0-3.6.2c-1.7.7-3.4,2.6-3.1,4,.1.6.5.8.5,1.6a3.8,3.8,0,0,1-.9,1.7c-.6.6-.9.4-1.4,1a3.7,3.7,0,0,0-1,2.6,6.21,6.21,0,0,0,.3,1C591.3,279.2,589.1,280.9,588.6,281.3Z"/><path class="cls-10" d="M519.4,373.7a5.32,5.32,0,0,0,3.2,1.3,2.48,2.48,0,0,0,1.6-.5c1.9-1.1,8.5-1.1,13-.4,15.6,2.5,25.5,14,25.5,14a21.54,21.54,0,0,1,1.8,2.3c2.5,3.3,5.4,8,5.4,9.5a1.56,1.56,0,0,0,.3,1,1.61,1.61,0,0,0,.7.4,4.31,4.31,0,0,1,2,2h0l-18.4,34.4h0s-14-5.4-27.3-12.3c-3.2-1.7-5.1-2.8-26.9-16.1h0c0-.1,19.1-35.6,19.1-35.6Z"/><path class="cls-11" d="M488.6,430.7c.8-.4,2,.6,2.2.8,1.7,1.3,9.2,5.6,24.3,14.2,7.3,4.2,24.4,12.4,26.5,12.8.1,0,1,.2,1,.6,0,.1-.1.1-.2.3a2.51,2.51,0,0,1-.4.7c-1.1,1.9-2.1,3.8-3.2,5.8a2.22,2.22,0,0,1-.4.7c-1.5,2.8-2.2,4.5-3.7,6.8-.7,1.1-.9,1.3-1.3,1.5-1.6.8-3.7-.6-4.3-1-7.6-4.9-16.5-7.3-24.4-11.6s-14.6-10.3-22.8-13.8c-.5-.2-2.6-1.1-2.7-2.3a2.65,2.65,0,0,1,.7-1.4c.7-.7,1.8-2.7,4.1-6.6.5-.9,1.9-3.3,2.6-4.7a2.77,2.77,0,0,1,.4-.7C487.7,431.5,488.1,430.9,488.6,430.7Z"/><path class="cls-12" d="M593.6,269.9c.3,1.3,2.1,1.6,5.1,2.8a66.84,66.84,0,0,1,6.3,3c5.5,2.9,10.3,6.7,12.5,7.7a6.42,6.42,0,0,1,1,.6c1.3.8,1.4,1.4,1.8,1.5.9,0,1.8-2,2-3.7a6.15,6.15,0,0,0-.4-3.3c-.4-.9-1.2-2.2-4.7-4.3-2.8-1.8-3.3-1.3-6.6-3.2-2.6-1.5-2.7-2-5.6-3.5s-4.2-1.7-4.8-1.7a6.75,6.75,0,0,0-5.1,1.2C595,267,593.3,268.4,593.6,269.9Z"/><circle class="cls-13" cx="550.94" cy="381.03" r="12.5" transform="translate(-48.15 680.72) rotate(-61.24)"/><circle class="cls-14" cx="550.79" cy="380.73" r="10" transform="translate(-47.96 680.43) rotate(-61.24)"/><path class="cls-15" d="M589.3,280.8c2.2-1.4,6.1,3.5,13.4,6.9,5.4,2.5,10.7,3.4,10.7,5.4a16.56,16.56,0,0,1-.8,2.2c-.2.6-.7,1.9-1.1,2.9-1.8,4.2-11.5,25-11.5,25h0l-10.1,19.1h0s-.3.8-1.3,3.2c-3.2-1.7-11.5-6.1-14.6-7.8-3.4-1.8-11.9-6.4-15.3-8.2a21.94,21.94,0,0,1,1.3-1.9c.9-1.4,1.3-1.9,1.3-2,1.8-2.7,5.4-9.7,8.9-15.4.8-1.3.3-.4,2.9-4.6,3.1-4.8,9.9-15.5,12.5-19.6,0,0,.8-1.3,2.2-3.2C588.7,281.6,589.2,280.9,589.3,280.8Z"/><path class="cls-16" d="M518.7,385.8a3.17,3.17,0,0,1,1.3,1.6,3.76,3.76,0,0,1-2.3,4.7c-.1,0-.5.1-.5.2s.2.1.3.2c.5.2.6.9.6,1.2a6.25,6.25,0,0,1-3.2,5.8c-.3.1-1.5.4-4,.9-1.1.2-3,.6-3,.6l8.4-16.1A4.61,4.61,0,0,1,518.7,385.8Z"/><path class="cls-10" d="M516.8,387.2h0l-2,3.7h0a4.15,4.15,0,0,0,2.2-.1,2.29,2.29,0,0,0,1.5-1.8,1.76,1.76,0,0,0-.6-1.2A3,3,0,0,0,516.8,387.2Z"/><path class="cls-10" d="M513.9,392.6h0l-3,5.4h0a6.39,6.39,0,0,0,3.5-.7,4.79,4.79,0,0,0,1.5-1.8,2.28,2.28,0,0,0,.4-1.5,2,2,0,0,0-1.5-1.3A8.14,8.14,0,0,0,513.9,392.6Z"/><path class="cls-16" d="M522.8,388.3s1.2.6,2,1.1c1.2.8,2,1.2,2.3,2.2a3.59,3.59,0,0,1-.1,2.6,3.68,3.68,0,0,1-2.5,2.2c-.6.1-1.1-.2-1.4.1s-.2.6-.2,1.2c.1,2,.1,3,.5,3.8s.8,1,.6,1.2-1.6.1-2.2-.8c-.4-.5-.4-1.1-.4-2.4a15,15,0,0,1,.1-2.6,1,1,0,0,0,0-.9.84.84,0,0,0-.7-.4c-.4,0-.6.4-1.3,1.5-1.2,2-1.6,2.6-1.3,3.2.1.3.2.4.2.5-.3.4-2.4-.4-2.4-.4C516.2,400.5,522.8,388.3,522.8,388.3Z"/><path class="cls-10" d="M523.5,390.4a8.08,8.08,0,0,1,1.4.7,2.06,2.06,0,0,1,.6,1.2,2.68,2.68,0,0,1-.8,2.2,1.71,1.71,0,0,1-1.2.6,2.17,2.17,0,0,1-1.2-.2s-.2-.1-1-.6C521.2,394.5,523.5,390.4,523.5,390.4Z"/><path class="cls-16" d="M529.8,392.5h0c3.5,1.9,5.8,3.2,5.8,3.2h0s-.1,1.8-.6,1.9c-.2,0-.5-.4-.8-.9-1-1.2-2.6-2.3-3.4-1.9-.4.2-.2.5-.9,1.7-.3.5-.4.5-.4.7.1.5,1.7.9,2.9,1.1.1,0,.2.1.3.2s-.1.5-.4,1.5c-.1.4-.2.6-.4.7s-.3-.1-.3-.2-2-2.2-2.9-2c-.3.1-.2.4-.7,1.4-.8,1.5-1.2,1.6-1.1,2,.2.9,2.5,1.8,4.4,1.6.4,0,.8-.1.9,0,.3.4-1.1,2.2-2,2-.2,0-.3-.1-.3-.2-1.4-1.3-5.6-2.6-5.6-2.6h0C524.2,402.7,529.8,392.5,529.8,392.5Z"/><path class="cls-16" d="M537.2,396.6h0c3.5,1.9,5.8,3.2,5.8,3.2h0s-.1,1.8-.6,1.9c-.2,0-.5-.4-.8-.9-1-1.2-2.6-2.3-3.4-1.9-.4.2-.2.5-.9,1.7-.3.5-.4.5-.4.7.1.5,1.7.9,2.9,1.1.1,0,.2.1.3.2s-.1.5-.4,1.5c-.1.4-.2.6-.4.7s-.3-.1-.3-.2-2-2.2-2.9-2c-.3.1-.2.4-.7,1.4-.8,1.5-1.2,1.6-1.1,2,.2.9,2.5,1.8,4.4,1.6.4,0,.8-.1.9,0,.3.4-1.1,2.2-2,2-.2,0-.3-.1-.3-.2-1.4-1.3-5.6-2.6-5.6-2.6h0C531.6,406.8,537.2,396.6,537.2,396.6Z"/><path class="cls-16" d="M552.8,405.2l5.4,3h0a12.81,12.81,0,0,1-1.1,2c-.1,0,.2-.4,0-.9s-.6-.7-1.5-1.3-1.5-.8-1.9-.6a.1.1,0,0,0-.1.1c-.2.2-.2.6-.8,1.6-.4.7-.6.8-.6,1,.1.7,1.9,1.3,2.7,1.5.1,0,.3.1.3.2s-.5.3-.9.8c-.1.2-.3.5-.4.7s-.1.3-.2.3c-.4.2-1.6-2.3-2.3-2.2-.2.1-.3.4-.6,1-.8,1.9-1.9,2.3-1.7,3a4.35,4.35,0,0,0,1.2,1.1,4,4,0,0,0,2,1.1c.5.1.8-.1.9,0,.2.3-1.2,1.3-1.8,1.7a.76.76,0,0,1-.5.2c-.5-.1-.7-.7-.8-.9a11.35,11.35,0,0,0-3-3.4C549.1,411.9,550.9,408.6,552.8,405.2Z"/><path class="cls-16" d="M543.7,402.4c-.2-.5,1.8-1.7,1.8-1.7h0l6.1,3.3h0l-2.8,2c-4.4,3-6.5,3.6-6.4,4.4s2.3,1.6,3.9,1.7c.7,0,1.1,0,1.2.2.3.5-1.2,2.3-2.5,2.2-.6-.1-.8-.5-1.8-1.5a42.5,42.5,0,0,0-4.2-2.8h0s2.1-1.7,3.7-2.8c3.3-2.2,5.4-2.5,5.3-3.3s-1.9-1.3-2.7-1.5C544.4,402.6,543.8,402.7,543.7,402.4Z"/><path class="cls-16" d="M559.2,408.7h0l-6.5,11.8h0s.6,1.9,1.1,1.9c1,0,1.6-6.2,3-6.3a.87.87,0,0,1,.7.4c.3.5-.2,1.2-.4,1.5-.6,1-.8,2.2-1.2,4.6a7.53,7.53,0,0,0,0,4c.3.7.8,1.5,1,1.4s.1-.9.1-1.7c-.1-3.2,1-3.4,1.3-7.2.1-.7.1-1.7.8-2.2a1.56,1.56,0,0,1,1-.3c1.9-.3,3.8-4.1,2.8-5.9C562.1,409.2,559.2,408.7,559.2,408.7Z"/><path class="cls-10" d="M559.8,410.8a2.23,2.23,0,0,1,1,.6,2.27,2.27,0,0,1,.5,1.6,2.32,2.32,0,0,1-1.1,2,4,4,0,0,1-2.6-.1h0l2.2-4.1Z"/></g></g></svg>
