<svg xmlns="http://www.w3.org/2000/svg" viewBox="0 0 638.8 568.1"><defs><style>.cls-1{fill:#def9ff;}.cls-2{fill:#dbac61;}.cls-3{fill:#89cce5;}.cls-4{fill:#eaac41;}.cls-5{fill:#c07d08;}.cls-6{fill:#fcba83;}.cls-7{fill:#333;}.cls-8{fill:#edb143;}.cls-9{fill:#552e0f;}.cls-10{fill:#2f1a09;}.cls-11{fill:#f9be93;}.cls-12{fill:#5a3312;}.cls-13,.cls-21,.cls-23{fill:none;stroke-miterlimit:10;}.cls-13{stroke:#2f1a09;}.cls-14{fill:#f7d98d;}.cls-15{fill:#f4912d;}.cls-16{fill:#070606;}.cls-17{fill:#e20e23;}.cls-18{fill:#962d69;}.cls-19{fill:#72263c;}.cls-20{fill:#fff;}.cls-21{stroke:#efe6df;stroke-width:4px;}.cls-22{fill:#f90d94;}.cls-23{stroke:#020202;stroke-width:2px;}</style></defs><title>Asset 1</title><g id="Layer_2" data-name="Layer 2"><g id="Layer_1-2" data-name="Layer 1"><path class="cls-1" d="M12,565.5A9.56,9.56,0,0,1,2.5,556V12A9.56,9.56,0,0,1,12,2.5H626.8a9.56,9.56,0,0,1,9.5,9.5V556a9.56,9.56,0,0,1-9.5,9.5Z"/><path class="cls-1" d="M626.8,5a7,7,0,0,1,7,7V556a7,7,0,0,1-7,7H12a7,7,0,0,1-7-7V12a7,7,0,0,1,7-7H626.8m0-5H12A12,12,0,0,0,0,12V556a12,12,0,0,0,12,12H626.8a12,12,0,0,0,12-12V12a12,12,0,0,0-12-12Z"/><path class="cls-2" d="M12,567.4c-5.2,0-9.5-1.1-9.5-2.4V426.3c0-1.3,4.3-2.4,9.5-2.4H626.8c5.2,0,9.5,1.1,9.5,2.4V565c0,1.3-4.3,2.4-9.5,2.4Z"/><path class="cls-2" d="M626.8,424.5c3.9,0,7,.8,7,1.8V565c0,1-3.1,1.8-7,1.8H12c-3.9,0-7-.8-7-1.8V426.3c0-1,3.1-1.8,7-1.8H626.8m0-1.3H12c-6.6,0-12,1.4-12,3.1V565c0,1.7,5.4,3.1,12,3.1H626.8c6.6,0,12-1.4,12-3.1V426.3c0-1.7-5.4-3.1-12-3.1Z"/><path class="cls-3" d="M12,427.4c-5.2,0-9.5-.6-9.5-1.4V344.5c0-.8,4.3-1.4,9.5-1.4H626.8c5.2,0,9.5.6,9.5,1.4V426c0,.8-4.3,1.4-9.5,1.4Z"/><path class="cls-3" d="M626.8,343.4c3.9,0,7,.5,7,1V426c0,.6-3.1,1-7,1H12c-3.9,0-7-.5-7-1V344.5c0-.6,3.1-1,7-1H626.8m0-.8H12c-6.6,0-12,.8-12,1.8V426c0,1,5.4,1.8,12,1.8H626.8c6.6,0,12-.8,12-1.8V344.5c0-1-5.4-1.8-12-1.8Z"/><path class="cls-4" d="M347.3,313.8c-.8-.3.2-3.5,0-11a40.58,40.58,0,0,0-.8-8.4c-1.3-5.7-3.4-7.8-2.4-9.3s4.4-1,6.4,0a9.51,9.51,0,0,1,4.8,5.9c.3,1.1,1,3.8-1.6,11C351.8,307.3,348.5,314.3,347.3,313.8Z"/><path class="cls-4" d="M324.9,203.6a32,32,0,0,0-12.8,3.4,38.38,38.38,0,0,0-17.6,16c-4.2,7.6-4.3,14.5-4.4,24-.2,11.9-.3,20.1,4.8,28.7,8.2,13.8,23,16.6,24.8,16.9a36.22,36.22,0,0,0,23.2-4.2,37.48,37.48,0,0,0,12.8-11.8c5.1-7.8,5.7-15.5,6.4-25.3.4-5.1.8-10.7-.8-17.7a40.84,40.84,0,0,0-5.6-14.3A35.15,35.15,0,0,0,324.9,203.6Z"/><path class="cls-5" d="M300.5,246.1c-1.4,2.4-1.8,4.6-2.4,8.4-.7,4.5-2.4,14.6,3.2,23.6,5.4,8.7,14.2,11.1,16.8,11.8a29.6,29.6,0,0,0,21.6-2.5,29.19,29.19,0,0,0,12.8-13.5c.6-1.4,6.3-14.2,0-24.4-2.9-4.7-6.9-6.7-10.4-8.4C328.3,234.4,307.2,234.5,300.5,246.1Z"/><path class="cls-6" d="M302.9,225.9a26.75,26.75,0,0,0-2,3c-3.2,5.6-1.6,15.6-1.2,27.4.3,9.2-.4,8.9.4,12.2a28.81,28.81,0,0,0,11.2,16,25.33,25.33,0,0,0,27.6.4,29,29,0,0,0,11.2-16c.4-1.7.5-2.9.8-7.6,1.3-24.6.4-27.9-.8-30.3a26.2,26.2,0,0,0-8.8-10.1c-13.2-9.3-29-2.5-32.8,0A25.49,25.49,0,0,0,302.9,225.9Z"/><path class="cls-7" d="M306.1,246.1c-.1-.2.8-1.6,2.4-2.5a6.62,6.62,0,0,1,6.4,0,5.26,5.26,0,0,1,2.4,2.5c-.1.2-1.2-1.1-3.2-1.7a8.93,8.93,0,0,0-4.8,0C307.3,245.1,306.2,246.3,306.1,246.1Z"/><path class="cls-7" d="M334.1,246.1c-.1-.2.8-1.6,2.4-2.5a6.62,6.62,0,0,1,6.4,0,5.26,5.26,0,0,1,2.4,2.5c-.1.2-1.2-1.1-3.2-1.7a8.93,8.93,0,0,0-4.8,0C335.3,245.1,334.2,246.3,334.1,246.1Z"/><ellipse class="cls-7" cx="312.9" cy="252.4" rx="2.8" ry="3"/><ellipse class="cls-7" cx="338.5" cy="252.4" rx="2.8" ry="3"/><path class="cls-6" d="M320.5,286.4c-.7.7-.4,2,.4,5.3,1.6,6.8,1.5,7.6,2.8,11.6,1.6,4.9,2.2,5.1,2.4,5.1.5,0,.8-1.3,1.6-5.1s1.5-7.5,2.4-11.2,1.5-5,.8-5.7-2,.1-5.6,0C322.2,286.3,321.2,285.6,320.5,286.4Z"/><path class="cls-8" d="M295.7,221.7c-.7,3.8,5.4,7.8,8.8,10.1,7.1,4.7,11.9,7.9,19.2,8.4,0,0,14,1.1,29.6-15.2.8-.8,2.8-2.9,2.4-5.1a2.94,2.94,0,0,0-.8-1.7,39.59,39.59,0,0,0-28-14.3,41.18,41.18,0,0,0-30.4,16A3.77,3.77,0,0,0,295.7,221.7Z"/><path class="cls-9" d="M155.7,206.9c-3.9,1.2-9.4,2.9-14,7.8-2.2,2.4-5.1,6.5-7,18.6-1.8,11.2-.2,13.2-.8,28.7-.6,15.8-2.5,19.7,0,28.7,1.1,4.2,2.4,8.8,6.2,13.2,8.6,10,22.4,10.1,28,10.1,5.9,0,15.9.1,24.1-7,5.8-5,7.9-11.3,9.3-15.5,2.9-8.9.9-12.1.8-29.5-.1-17.8,2-21.3-.8-31.8-2.7-10.2-6.7-14.5-7.8-15.5-6-6.1-13.4-7.6-17.9-8.5A39.6,39.6,0,0,0,155.7,206.9Z"/><path class="cls-10" d="M142.5,241c-1.1,2-.5,2.4-.8,13.2-.4,14.9-1.6,20.4-.8,33.4.4,6.1.9,9.6,3.1,13.2a22.86,22.86,0,0,0,9.3,8.5c8.6,4.8,22,6.3,31.8-.8a25.22,25.22,0,0,0,8.5-10.9c1.5-3.6,1.6-6.7,1.6-12.4-.1-12.2-1.1-17.9-1.6-27.2-.7-14.7,1-14.9-.8-17.9C185.3,227.2,149.8,227.5,142.5,241Z"/><path class="cls-11" d="M145.6,225.5a20.84,20.84,0,0,0-1.9,2.7c-3.1,5.2-1.6,14.4-1.2,25.2.3,8.5-.4,8.2.4,11.3a27,27,0,0,0,10.9,14.8c7.8,4.9,18.5,5.5,26.8.4a27.08,27.08,0,0,0,10.9-14.8,37.56,37.56,0,0,0,.8-7c1.3-22.7.3-25.7-.8-28a24.43,24.43,0,0,0-8.5-9.3c-12.8-8.5-28.2-2.3-31.8,0A25.94,25.94,0,0,0,145.6,225.5Z"/><path class="cls-7" d="M148.7,244.1c-.1-.2.8-1.5,2.3-2.3a6.78,6.78,0,0,1,6.2,0c1.5.8,2.5,2.2,2.3,2.3s-1.2-1-3.1-1.6a8.62,8.62,0,0,0-4.7,0C149.9,243.2,148.8,244.3,148.7,244.1Z"/><path class="cls-7" d="M175.9,244.1c-.1-.2.8-1.5,2.3-2.3a6.78,6.78,0,0,1,6.2,0c1.5.8,2.5,2.2,2.3,2.3s-1.2-1-3.1-1.6a8.62,8.62,0,0,0-4.7,0C177.1,243.2,176,244.3,175.9,244.1Z"/><circle class="cls-7" cx="155.3" cy="250" r="2.7"/><circle class="cls-7" cx="180.1" cy="250" r="2.7"/><path class="cls-12" d="M133.9,240.3c.8,2.5,10.8,2.4,18.6-.8,3-1.2,7.1-2.9,10.1-7,3.1-4.3,3.1-8.5,4.7-8.5s1.8,4.5,5.4,9.3a25.55,25.55,0,0,0,7,6.2c8.9,5.3,22,4,23.3,0,.2-.5.1-.8,0-1.6-.8-5.2-1.2-7.8-2.3-10.9-1.8-4.8-3.1-8.2-6.2-11.6a29.94,29.94,0,0,0-12.4-7.8,38.43,38.43,0,0,0-15.5-2.3c-4,.1-9.4.2-15.5,3.1a25.1,25.1,0,0,0-10.1,7.8,32.9,32.9,0,0,0-4.7,10.1c-.2.7-.7,2.8-1.6,7,0,0-.3,1.6-.8,6.2Z"/><path class="cls-13" d="M315.6,272.5a20.84,20.84,0,0,0,5.4,2.9,15.05,15.05,0,0,0,14.2-1.4"/><path class="cls-11" d="M174.3,287.9l15.3,5.5,29.6,35.7s-22.9,34.1-26.2,36.3,4.4,4.8,3.8,10.8c-.2,1.8,4.9,1.6,4.9,2.4,0,0-5.6,2.7-8.2,1.1s-5.8-5.6-5.8-5.6l30.2,152.7,6,9.4L238,540l.3,11.9-33.5-6.1s.1-16.6,1.6-18.8-26.9-55.8-23-71.7c2.2-9.1-19.8-50.9-20.4-52.5l-7.9,51.5v72.1l2.2,15.7-.6,9.7H143.8V525.4L128.1,384.9s14.8-24.8,22.3-28.6-6.9-33-6.9-33-9.1,29.6-12.9,28.9-16.3-31.8-14.1-50.9c0,0-9.1-2.5-3.1-11.6,0,0-4.4-8.2-2-10.1s4.9,8.2,4.9,8.2.6-7.4,1.9-8.4,1.6,8.1,1.6,8.1,5.3,6.9,3.1,11.3,7.9,29.2,7.9,29.2,4.5-34.4,20.7-36.5l7.5-4.1Z"/><path class="cls-14" d="M188.6,359.8l18.2-30.7-14.3-16s1.3,6.4-2.4,18.8C187,342.1,188.6,359.8,188.6,359.8Z"/><path class="cls-15" d="M148.8,335.9s12.8-6.8,40.3.5c10.7-17.2-1-31.9-2.4-31.9l-.6-12.4-3.8-1.4.9,15.8L171.6,324l-5.3.2L154.1,308l-.5-17.7-3.4,1.4v14.8s-7.4,11.6-7.2,16.6S148.8,335.9,148.8,335.9Z"/><path class="cls-11" d="M162.7,282.9c-.7.6-.3,1.8.4,4.9,1.5,6.3,1.4,7,2.7,10.7,1.6,4.5,2.1,4.7,2.3,4.7.5,0,.8-1.2,1.6-4.7s1.4-6.9,2.3-10.3,1.5-4.6.8-5.3-2,.1-5.4,0C164.4,282.8,163.4,282.2,162.7,282.9Z"/><path class="cls-15" d="M137.4,370.6s33.2,16.5,51.5,14.3c2.9-.3,3.6,11.7,3.6,11.7s-26.4,2.9-29.6,6.3c-1.7,1.8-15.1-18.2-32.3-20.8C127.7,381.6,137.4,370.6,137.4,370.6Z"/><circle class="cls-16" cx="167.7" cy="362.5" r="0.6"/><path class="cls-6" d="M327.6,405.8s3.9,54.3,2.7,56.6,4.2,53.6,3.1,61.9a62.54,62.54,0,0,0,0,15.7c.2.6,33.3,6.4,38.3-1.4s-17.8-11.3-25.9-15.8c-4-2.3,5.5-63.6,2.1-70.4l1.4-55.3-4.4-42.3,3.6-36.4,7.8,34.3s3.1,36.7,5,43.2c1.4,4.9-2.4,19.4-2.4,19.4s5.5,15.5,10.9,13.8,4.3-26.8,4.3-26.8l-4.8-8.3s.2-40.6-3.8-42.6.5-57.1-14.7-57.6-44.9,0-44.9,0-10.8,1.1-13.8,37.1c-2.3,28-9.7,43.8-6.9,63.9,0,0-15.3,22-.6,34.1s8.2-32.9,8.2-32.9,9.3-40.2,6.2-43.4,6.7-29.8,6.7-29.8,2.1,29,2.3,31.8c.2,3.1-7.3,34.8-4.4,50.6s5.5,60.1,5.5,60.1-1,46.3,1.9,54.6-31.1,5.5-28,15.5,40.2,4.6,40.2,4.6l-1.4-17.2s8.6-58.3,4.6-62.9S327.6,405.8,327.6,405.8Z"/><path class="cls-17" d="M306.5,331.8l40.6.3s3-22.2,1.3-24.8-6.1-14.1-6.1-14.1h-2.6s4.5,10.1,2.2,13.9-17,15.7-14.8,22.1-.3-10.4-15.1-21.8c-3.6-2.8,4-14.1,4-14.1h-3.5l-8.7,15.1Z"/><path class="cls-18" d="M151.2,262.9s1.9,3.2,2.8,4.6a19.92,19.92,0,0,0,6.4,6.4,15.25,15.25,0,0,0,13.8,0,16.47,16.47,0,0,0,5.5-4.6,37.84,37.84,0,0,0,3.7-6.4H151.2Z"/><path class="cls-19" d="M156.7,268.3c.1-.7.8-1.1,1.8-1.8a10.89,10.89,0,0,1,5.5-1.8c2.1-.2,7.9-.6,12.8,2.8.4.3.8.5.9.9.4,1.8-5.3,5.6-11,5.5C161.6,273.7,156.5,270.4,156.7,268.3Z"/><path class="cls-20" d="M154.9,265.7h24.8v-2.8H154.9Z"/><polygon class="cls-17" points="327.5 405.3 348.2 386.4 346.8 372.2 305.3 372.2 303.4 387.6 327.5 405.3"/><circle class="cls-16" cx="327.8" cy="357.1" r="0.5"/><line class="cls-21" x1="527.4" y1="403.8" x2="477.4" y2="478.4"/><path class="cls-22" d="M457.6,377l126.8,65.4s33.7-83.4-8.5-107C540.3,315.4,472.7,334.6,457.6,377Z"/><path class="cls-23" d="M71.6,106.3s9.2-57.8,47-26c0,0-6-59.2,47.2-24.6"/><circle class="cls-15" cx="507.6" cy="71.3" r="50"/></g></g></svg>
