<svg xmlns="http://www.w3.org/2000/svg" xmlns:xlink="http://www.w3.org/1999/xlink" viewBox="0 0 639 568"><defs><style>.cls-1{fill:#152230;}.cls-2{fill:#552e0f;}.cls-3{fill:#2f1a09;}.cls-4{fill:url(#linear-gradient);}.cls-5{fill:url(#linear-gradient-2);}.cls-6{fill:#3a2b14;}.cls-7{fill:#211505;}.cls-8{fill:url(#linear-gradient-3);}.cls-9{fill:#eaac41;}.cls-10{fill:#c07d08;}.cls-11{fill:url(#linear-gradient-4);}.cls-12{fill:url(#linear-gradient-5);}.cls-13{fill:url(#linear-gradient-6);}.cls-14{fill:url(#linear-gradient-7);}.cls-15{fill:url(#linear-gradient-8);}.cls-16{fill:url(#linear-gradient-9);}.cls-17{fill:url(#linear-gradient-10);}.cls-18{fill:url(#linear-gradient-11);}.cls-19{fill:#2a1e06;}.cls-20{fill:#170d03;}.cls-21{fill:#a92d2b;}.cls-22{fill:#932b5c;}.cls-23{fill:#5a163d;}.cls-24{fill:#7c1f15;}.cls-25{fill:#fecda4;}.cls-26{fill:#333;}.cls-27{fill:url(#linear-gradient-12);}.cls-28{fill:#962d69;}.cls-29{fill:#72263c;}.cls-30,.cls-51,.cls-52,.cls-53,.cls-54,.cls-55{fill:#fff;}.cls-31{fill:#e5b090;}.cls-32{fill:url(#linear-gradient-13);}.cls-33{fill:#edb143;}.cls-34{fill:#ab826e;}.cls-35{fill:#fad8cd;}.cls-36{fill:url(#linear-gradient-14);}.cls-37{fill:url(#linear-gradient-15);}.cls-38{fill:url(#linear-gradient-16);}.cls-39{fill:#952819;}.cls-40{fill:#493615;}.cls-41{fill:#882755;}.cls-42{fill:#33100a;}.cls-43{fill:#000100;}.cls-44{fill:url(#linear-gradient-17);}.cls-45{fill:#5a3312;}.cls-46{fill:#4a3e32;}.cls-47,.cls-48,.cls-49{fill:none;}.cls-47{stroke:#152230;}.cls-47,.cls-48{stroke-miterlimit:10;}.cls-48{stroke:#2f1a09;}.cls-50,.cls-51,.cls-52,.cls-53,.cls-54,.cls-55{isolation:isolate;}.cls-51,.cls-52,.cls-53,.cls-54,.cls-55{font-size:23.12px;font-family:FuturaPT-Book, Futura PT;}.cls-52{letter-spacing:-0.02em;}.cls-53{letter-spacing:-0.1em;}.cls-54{letter-spacing:-0.11em;}.cls-55{letter-spacing:-0.13em;}</style><linearGradient id="linear-gradient" x1="244.46" y1="528" x2="290.9" y2="528" gradientTransform="translate(0 -330.2)" gradientUnits="userSpaceOnUse"><stop offset="0.52" stop-color="#2f548e"/><stop offset="0.53" stop-color="#2f54c2"/></linearGradient><linearGradient id="linear-gradient-2" x1="344.24" y1="527.09" x2="390.68" y2="527.09" gradientTransform="translate(0 -330.2)" gradientUnits="userSpaceOnUse"><stop offset="0.52" stop-color="#20d7a4"/><stop offset="0.53" stop-color="#5cbfa0"/></linearGradient><linearGradient id="linear-gradient-3" x1="447.69" y1="527.09" x2="494.17" y2="527.09" gradientTransform="translate(0 -330.2)" gradientUnits="userSpaceOnUse"><stop offset="0.52" stop-color="#1f3990"/><stop offset="0.53" stop-color="#2f24c2"/></linearGradient><linearGradient id="linear-gradient-4" x1="395.99" y1="632.52" x2="442.46" y2="632.52" xlink:href="#linear-gradient"/><linearGradient id="linear-gradient-5" x1="295.26" y1="632.52" x2="341.7" y2="632.52" gradientTransform="translate(0 -330.2)" gradientUnits="userSpaceOnUse"><stop offset="0.52" stop-color="#5c8dad"/><stop offset="0.53" stop-color="#7f9cb5"/></linearGradient><linearGradient id="linear-gradient-6" x1="346.1" y1="730.58" x2="392.57" y2="730.58" gradientTransform="translate(0 -330.2)" gradientUnits="userSpaceOnUse"><stop offset="0.52" stop-color="#374c60"/><stop offset="0.53" stop-color="#475a73"/></linearGradient><linearGradient id="linear-gradient-7" x1="140.99" y1="528" x2="187.47" y2="528" gradientTransform="translate(0 -330.2)" gradientUnits="userSpaceOnUse"><stop offset="0.52" stop-color="#a6548e"/><stop offset="0.53" stop-color="#8854c2"/></linearGradient><linearGradient id="linear-gradient-8" x1="192.7" y1="633.42" x2="239.17" y2="633.42" xlink:href="#linear-gradient-6"/><linearGradient id="linear-gradient-9" x1="91.1" y1="633.42" x2="137.58" y2="633.42" xlink:href="#linear-gradient"/><linearGradient id="linear-gradient-10" x1="141.9" y1="731.49" x2="188.37" y2="731.49" gradientTransform="translate(0 -330.2)" gradientUnits="userSpaceOnUse"><stop offset="0.52" stop-color="#ff4447"/><stop offset="0.53" stop-color="#c2391d"/></linearGradient><linearGradient id="linear-gradient-11" x1="498.55" y1="631.61" x2="544.99" y2="631.61" xlink:href="#linear-gradient"/><linearGradient id="linear-gradient-12" x1="38.39" y1="529" x2="84.86" y2="529" xlink:href="#linear-gradient-7"/><linearGradient id="linear-gradient-13" x1="547.5" y1="526.18" x2="593.95" y2="526.18" xlink:href="#linear-gradient-10"/><linearGradient id="linear-gradient-14" x1="245.37" y1="731.49" x2="291.81" y2="731.49" xlink:href="#linear-gradient-2"/><linearGradient id="linear-gradient-15" x1="448.66" y1="730.58" x2="495.1" y2="730.58" xlink:href="#linear-gradient"/><linearGradient id="linear-gradient-16" x1="548.4" y1="729.67" x2="594.84" y2="729.67" gradientTransform="translate(0 -330.2)" gradientUnits="userSpaceOnUse"><stop offset="0.52" stop-color="#63395d"/><stop offset="0.53" stop-color="#7b4e9f"/></linearGradient><linearGradient id="linear-gradient-17" x1="39.36" y1="732.4" x2="85.8" y2="732.4" gradientTransform="translate(0 -330.2)" gradientUnits="userSpaceOnUse"><stop offset="0.52" stop-color="#7e8083"/><stop offset="0.53" stop-color="#cdcfd0"/></linearGradient></defs><title>klassebillede</title><g id="Layer_2" data-name="Layer 2"><g id="Layer_1-2" data-name="Layer 1"><path class="cls-1" d="M9.57,568A9.64,9.64,0,0,1,0,558.42V9.58A9.64,9.64,0,0,1,9.57,0H629.43A9.64,9.64,0,0,1,639,9.58V558.42a9.64,9.64,0,0,1-9.57,9.58Z"/><path class="cls-2" d="M456.27,83c-4.64,1.41-11.19,3.43-16.63,9.28-2.62,2.82-6,7.67-8.37,22.2-2.12,13.42-.2,15.74-.91,34.2-.71,18.87-2.92,23.41,0,34.2,1.41,4.94,2.82,10.49,7.36,15.74,10.18,11.9,26.61,12,33.26,12,7,0,18.85.1,28.62-8.37,7-6.05,9.47-13.42,11.09-18.46,3.43-10.59,1-14.43.91-35.11-.1-21.19,2.42-25.42-.91-37.93-3.23-12.21-8.06-17.25-9.27-18.46-7.16-7.26-15.92-9.08-21.27-10.19A50.88,50.88,0,0,0,456.27,83Z"/><path class="cls-3" d="M440.55,123.79c-1.31,2.42-.6,2.82-.91,15.74-.4,17.76-1.91,24.31-.91,39.75.4,7.26,1.11,11.4,3.73,15.74a29.44,29.44,0,0,0,11.09,10.19c10.28,5.65,26.21,7.57,37.9-.91a31.6,31.6,0,0,0,10.18-12.91c1.71-4.34,1.91-8,1.81-14.83-.2-14.63-1.31-21.29-1.81-32.39-.91-17.55,1.11-17.76-.91-21.29C491.45,107.34,449.21,107.65,440.55,123.79Z"/><path class="cls-4" d="M244.71,210.65s5.44,2.42,9.27,3.73c5.54,1.82,10.18,1.82,15.72,1.82a67,67,0,0,0,11.09-.91c2.92-.5,9.68-1.82,10.18-4.64v-5.55a29.28,29.28,0,0,0-4.64-15.74A23.92,23.92,0,0,0,275.25,181c-2-.71-9.07-3.23-16.63,0a22,22,0,0,0-8.37,6.46,26.58,26.58,0,0,0-5.54,12.91,52.12,52.12,0,0,0,0,10.29Z"/><path class="cls-5" d="M344.5,209.75s5.44,2.42,9.27,3.73c5.54,1.82,10.18,1.82,15.72,1.82a67,67,0,0,0,11.09-.91c2.92-.5,9.68-1.82,10.18-4.64V204.2a29.28,29.28,0,0,0-4.64-15.74A23.92,23.92,0,0,0,375,180.09c-2-.71-9.07-3.23-16.63,0a22,22,0,0,0-8.37,6.46,26.58,26.58,0,0,0-5.54,12.91,52.12,52.12,0,0,0,0,10.29Z"/><path class="cls-6" d="M320.41,294.9c-6.65-.71-10.38-1.11-13.91-3.73s-4.33-5.55-7.36-5.55c-1.41,0-1.51.61-3.73.91-1.31.2-4.54.71-7.36-.91-3.23-1.82-4.23-5.25-4.64-6.46-.91-3.13.1-3.73-.91-5.55-1.71-2.82-4.84-1.61-7.36-4.64a8.86,8.86,0,0,1-1.81-7.36c.81-3.63,4.13-4.54,3.73-6.46s-3.33-1.11-5.54-3.73-2.62-6.76-.91-9.28c1.11-1.61,2.52-1.51,2.82-2.82.5-2-2.82-3.13-4.64-6.46-2.12-3.93-1.71-9.58.91-12.91,2.42-3,4.84-1.92,6.45-4.64,2.22-3.73-1.81-7,0-12,1.41-3.83,5.24-5.85,6.45-6.46,3.53-1.82,5.74-1.21,9.27-1.82,6.85-1.31,7.46-5.75,12.9-8.37,11.09-5.15,23.18,6.05,37.9,6.46A70.68,70.68,0,0,1,352,194c3.73.61,5.64.91,7.36,1.82.6.3,6.75,3.63,7.36,9.28.5,4.34-2.52,7-.91,9.28.81,1.21,1.91.81,3.73,1.82A11.58,11.58,0,0,1,375,226.39c-.5,5.75-7.56,8.07-6.45,12,.3,1.21.91.91,1.81,2.82,1.21,2.52,1.81,6.36,0,9.28-1.71,2.72-4.23,2.42-4.64,4.64-.3,1.51.91,2.12,1.81,4.64.2.5,1.71,5,0,8.37s-5.34,2-7.36,5.55c-1.71,2.82.1,4.54-1.81,7.36-1.71,2.62-4.74,3.43-5.54,3.73-3.73,1.11-4.84-.71-8.37,0-2.42.5-2.32,1.41-8.37,5.55-3.83,2.62-5.85,4-8.37,4.64C325.55,295.4,323.83,295.2,320.41,294.9Z"/><path class="cls-7" d="M289.06,229.22a14.21,14.21,0,0,0-3.73,5.55c-.4,1.11-1.51,4.54,0,7.36.71,1.31,1.51,1.41,1.81,2.82s-.2,2-.91,4.64c-.91,3-1.31,4.54-.91,5.55.71,1.61,2.32,1.41,3.73,3.73a5.43,5.43,0,0,1,.91,2.82c.1,2-1.31,2.52-1.81,4.64s.1,5.35,1.81,6.46,3.63-.2,4.64.91-.71,3,0,5.55a7.46,7.46,0,0,0,5.54,4.64c2.32.4,3.73-.91,6.45,0a7.28,7.28,0,0,1,1.81.91,43.32,43.32,0,0,0,11.09,4.64c5.34,1.21,12.5.4,13.91-2.82.6-1.41-.1-3.13.91-3.73.81-.5,1.71.5,3.73.91.5.1,4,.91,6.45-.91a7.9,7.9,0,0,0,2.82-6.46c-.1-1.21-.5-2.22,0-2.82s1.61.2,2.82,0c2.32-.4,4.43-4.74,3.73-8.37a40,40,0,0,0-2.82-5.55h0c3.33-2.22,3.73-2.72,3.73-2.82a6.73,6.73,0,0,0,.91-5.55c-.6-1.92-1.81-2.12-1.81-3.73-.1-1.41.81-2,1.81-3.73a12.12,12.12,0,0,0,1.81-7.36c-.4-2.72-2.72-3.93-5.54-6.46-5.14-4.54-5.85-8.07-8.37-11.1-9.17-11-36.69-7.47-46.16.91C296.52,220.74,296.92,220.44,289.06,229.22Z"/><path class="cls-8" d="M447.9,209.75s5.44,2.42,9.27,3.73c5.54,1.82,10.18,1.82,15.72,1.82a67,67,0,0,0,11.09-.91c2.92-.5,9.68-1.82,10.18-4.64V204.2a29.28,29.28,0,0,0-4.64-15.74,23.92,23.92,0,0,0-11.09-8.37c-2-.71-9.07-3.23-16.63,0a22,22,0,0,0-8.37,6.46,26.58,26.58,0,0,0-5.54,12.91,62.49,62.49,0,0,0,0,10.29Z"/><path class="cls-9" d="M413.33,184.32a46.68,46.68,0,0,0-15.22,5c-10.38,6-14.82,16.14-16.63,20.38-4.33,10.39-1.41,13-2.82,39.75-.81,17.35-2.42,23.71,0,36.12,1.51,7.47,3.73,13.42,8.37,18.46,4.13,4.54,8.57,6.66,12,8.37,4.54,2.12,25.7,11.2,42.53.91a41.78,41.78,0,0,0,10.18-9.28,43.94,43.94,0,0,0,7.36-13.92c3.63-10.69,2.12-17.76,1.81-36.12-.3-23.41,1.91-25.63-.91-37-1.81-7.06-3.73-14.43-10.18-21.29-9.47-10.09-21.77-11.7-24-12A47.86,47.86,0,0,0,413.33,184.32Z"/><path class="cls-10" d="M414.44,214.49a38.27,38.27,0,0,0-12.2,3.93c-8.37,4.64-11.89,12.41-13.3,15.74-3.53,8-1.21,10-2.22,30.67-.71,13.42-1.91,18.26,0,27.85,1.21,5.75,2.92,10.29,6.65,14.23a28.76,28.76,0,0,0,9.68,6.46c3.63,1.61,20.66,8.68,34.07.71a31.13,31.13,0,0,0,8.16-7.16,35.32,35.32,0,0,0,5.95-10.69c2.92-8.27,1.71-13.72,1.51-27.85-.3-18.06,1.51-19.77-.71-28.55-1.41-5.45-3-11.1-8.16-16.44a33.1,33.1,0,0,0-19.25-9.28A41.34,41.34,0,0,0,414.44,214.49Z"/><path class="cls-11" d="M396.2,315.17s5.44,2.42,9.27,3.73c5.54,1.82,10.18,1.82,15.72,1.82a67,67,0,0,0,11.09-.91c2.92-.5,9.68-1.82,10.18-4.64v-5.55a29.28,29.28,0,0,0-4.64-15.74,23.92,23.92,0,0,0-11.09-8.37c-2-.71-9.07-3.23-16.63,0a22,22,0,0,0-8.37,6.46,26.58,26.58,0,0,0-5.54,12.91,62.49,62.49,0,0,0,0,10.29Z"/><path class="cls-12" d="M295.51,315.17s5.44,2.42,9.27,3.73c5.54,1.82,10.18,1.82,15.72,1.82a67,67,0,0,0,11.09-.91c2.92-.5,9.68-1.82,10.18-4.64v-5.55a29.28,29.28,0,0,0-4.64-15.74,23.92,23.92,0,0,0-11.09-8.37c-2-.71-9.07-3.23-16.63,0a22,22,0,0,0-8.37,6.46,26.58,26.58,0,0,0-5.54,12.91,52.12,52.12,0,0,0,0,10.29Z"/><path class="cls-2" d="M362.44,387.31c4.43.4,8.26-.2,12.9-.91,5.14-.81,9.27-1.51,13.91-3.73a35.66,35.66,0,0,0,14.82-13.92c5.44-9.38,6.45-21.29,6.45-21.29h0l-.91-26.84h0s-4.13-9.18-4.64-10.19c-4.33-9.18-25.7-24.62-48.08-18.46-1.71.5-18.34,5.25-25,19.47-2.62,5.55-3.33,11.9-3.73,14.83-.5,4.44-.4,8.88,0,17.55.3,8.07.5,12.11.91,13.92,2.52,10.59,9.78,17.35,12,19.47C343.89,379.54,351.45,386.2,362.44,387.31Z"/><path class="cls-13" d="M346.31,413.24s5.44,2.42,9.27,3.73c5.54,1.82,10.18,1.82,15.72,1.82a67,67,0,0,0,11.09-.91c2.92-.5,9.68-1.82,10.18-4.64v-5.55A29.28,29.28,0,0,0,387.94,392a23.92,23.92,0,0,0-11.09-8.37c-2-.71-9.07-3.23-16.63,0a22,22,0,0,0-8.37,6.46,26.58,26.58,0,0,0-5.54,12.91,62.49,62.49,0,0,0,0,10.29Z"/><path class="cls-9" d="M189.68,202.79c-.91-.3.3-3.83,0-12a41.31,41.31,0,0,0-.91-9.28c-1.51-6.26-3.93-8.58-2.82-10.19s5.14-1,7.36,0a11.09,11.09,0,0,1,5.54,6.46c.4,1.21,1.11,4.14-1.81,12C194.93,195.62,191.1,203.29,189.68,202.79Z"/><path class="cls-14" d="M141.2,210.65s5.44,2.42,9.27,3.73c5.54,1.82,10.18,1.82,15.72,1.82a67,67,0,0,0,11.09-.91c2.92-.5,9.68-1.82,10.18-4.64v-5.55a29.28,29.28,0,0,0-4.64-15.74A23.92,23.92,0,0,0,171.74,181c-2-.71-9.07-3.23-16.63,0a22,22,0,0,0-8.37,6.46,26.58,26.58,0,0,0-5.54,12.91,62.49,62.49,0,0,0,0,10.29Z"/><path class="cls-6" d="M217.91,293.89c-6.65-.71-10.38-1.11-13.91-3.73s-4.33-5.55-7.36-5.55c-1.41,0-1.51.61-3.73.91-1.31.2-4.54.71-7.36-.91-3.23-1.82-4.23-5.25-4.64-6.46-.91-3.13.1-3.73-.91-5.55-1.71-2.82-4.84-1.61-7.36-4.64a8.86,8.86,0,0,1-1.81-7.36c.81-3.63,4.13-4.54,3.73-6.46S171.24,253,169,250.4s-2.62-6.76-.91-9.28c1.11-1.61,2.52-1.51,2.82-2.82.5-2-2.82-3.13-4.64-6.46-2.12-3.93-1.71-9.58.91-12.91,2.42-3,4.84-1.92,6.45-4.64,2.22-3.73-1.81-7,0-12,1.41-3.83,5.24-5.85,6.45-6.46,3.53-1.82,5.74-1.21,9.27-1.82,6.85-1.31,7.46-5.75,12.9-8.37,11.09-5.15,23.18,6.05,37.9,6.46a70.68,70.68,0,0,1,9.27.91c3.73.61,5.64.91,7.36,1.82.6.3,6.75,3.63,7.36,9.28.5,4.34-2.52,7-.91,9.28.81,1.21,1.91.81,3.73,1.82a11.58,11.58,0,0,1,5.54,10.19c-.5,5.75-7.56,8.07-6.45,12,.3,1.21.91.91,1.81,2.82,1.21,2.52,1.81,6.36,0,9.28-1.71,2.72-4.23,2.42-4.64,4.64-.3,1.51.91,2.12,1.81,4.64.2.5,1.71,5,0,8.37s-5.34,2-7.36,5.55c-1.71,2.82.1,4.54-1.81,7.36-1.71,2.62-4.74,3.43-5.54,3.73-3.73,1.11-4.84-.71-8.37,0-2.42.5-2.32,1.41-8.37,5.55-3.83,2.62-5.85,4-8.37,4.64C223,294.49,221.33,294.29,217.91,293.89Z"/><path class="cls-7" d="M186.46,228.31a14.21,14.21,0,0,0-3.73,5.55c-.4,1.11-1.51,4.54,0,7.36.71,1.31,1.51,1.41,1.81,2.82s-.2,2-.91,4.64c-.91,3-1.31,4.54-.91,5.55.71,1.61,2.32,1.41,3.73,3.73a5.43,5.43,0,0,1,.91,2.82c.1,2-1.31,2.52-1.81,4.64s.1,5.35,1.81,6.46,3.63-.2,4.64.91-.71,3,0,5.55a7.46,7.46,0,0,0,5.54,4.64c2.32.4,3.73-.91,6.45,0a7.28,7.28,0,0,1,1.81.91,43.32,43.32,0,0,0,11.09,4.64c5.34,1.21,12.5.4,13.91-2.82.6-1.41-.1-3.13.91-3.73.81-.5,1.71.5,3.73.91.5.1,4,.91,6.45-.91a7.9,7.9,0,0,0,2.82-6.46c-.1-1.21-.5-2.22,0-2.82s1.61.2,2.82,0c2.32-.4,4.43-4.74,3.73-8.37a39.94,39.94,0,0,0-2.82-5.55h0c3.33-2.22,3.73-2.72,3.73-2.82a6.73,6.73,0,0,0,.91-5.55c-.6-1.92-1.81-2.12-1.81-3.73-.1-1.41.81-2,1.81-3.73a12.12,12.12,0,0,0,1.81-7.36c-.4-2.72-2.72-3.93-5.54-6.46-5.14-4.54-5.85-8.07-8.37-11.1-9.17-11-36.69-7.47-46.16.91C193.92,219.73,194.42,219.53,186.46,228.31Z"/><path class="cls-2" d="M151.38,285.61c-4.64,1.41-11.19,3.43-16.63,9.28-2.62,2.82-6,7.67-8.37,22.2-2.12,13.42-.2,15.74-.91,34.2-.71,18.87-2.92,23.41,0,34.2,1.41,4.94,2.82,10.49,7.36,15.74,10.18,11.9,26.61,12,33.26,12,7,0,18.85.1,28.62-8.37,7-6.05,9.47-13.42,11.09-18.46,3.43-10.59,1-14.43.91-35.11-.1-21.19,2.42-25.42-.91-37.93-3.23-12.21-8.06-17.25-9.27-18.46-7.16-7.26-15.92-9.08-21.27-10.19A48.18,48.18,0,0,0,151.38,285.61Z"/><path class="cls-3" d="M135.66,326.27c-1.31,2.42-.6,2.82-.91,15.74-.4,17.76-1.91,24.31-.91,39.75.4,7.26,1.11,11.4,3.73,15.74a29.44,29.44,0,0,0,11.09,10.19c10.28,5.65,26.21,7.57,37.9-.91a31.6,31.6,0,0,0,10.18-12.91c1.71-4.34,1.91-8,1.81-14.83-.2-14.63-1.31-21.29-1.81-32.39-.91-17.55,1.11-17.76-.91-21.29C186.56,309.83,144.33,310.13,135.66,326.27Z"/><path class="cls-15" d="M192.91,316.08s5.44,2.42,9.27,3.73c5.54,1.82,10.18,1.82,15.72,1.82a67,67,0,0,0,11.09-.91c2.92-.5,9.68-1.82,10.18-4.64v-5.55a29.28,29.28,0,0,0-4.64-15.74,23.92,23.92,0,0,0-11.09-8.37c-2-.71-9.07-3.23-16.63,0a22,22,0,0,0-8.37,6.46,26.58,26.58,0,0,0-5.54,12.91A62.49,62.49,0,0,0,192.91,316.08Z"/><path class="cls-16" d="M91.31,316.08s5.44,2.42,9.27,3.73c5.54,1.82,10.18,1.82,15.72,1.82a67,67,0,0,0,11.09-.91c2.92-.5,9.68-1.82,10.18-4.64v-5.55a29.28,29.28,0,0,0-4.64-15.74,23.92,23.92,0,0,0-11.09-8.37c-2-.71-9.07-3.23-16.63,0a22,22,0,0,0-8.37,6.46,26.58,26.58,0,0,0-5.54,12.91A62.49,62.49,0,0,0,91.31,316.08Z"/><path class="cls-17" d="M142.11,414.15s5.44,2.42,9.27,3.73c5.54,1.82,10.18,1.82,15.72,1.82a67,67,0,0,0,11.09-.91c2.92-.5,9.68-1.82,10.18-4.64V408.6a29.28,29.28,0,0,0-4.64-15.74,23.92,23.92,0,0,0-11.09-8.37c-2-.71-9.07-3.23-16.63,0a22,22,0,0,0-8.37,6.46,26.58,26.58,0,0,0-5.54,12.91A62.49,62.49,0,0,0,142.11,414.15Z"/><path class="cls-18" d="M498.8,314.27s5.44,2.42,9.27,3.73c5.54,1.82,10.18,1.82,15.72,1.82a67,67,0,0,0,11.09-.91c2.92-.5,9.68-1.82,10.18-4.64v-5.55A29.28,29.28,0,0,0,540.43,293a23.92,23.92,0,0,0-11.09-8.37c-2-.71-9.07-3.23-16.63,0a22,22,0,0,0-8.37,6.46A26.58,26.58,0,0,0,498.8,304a52.12,52.12,0,0,0,0,10.29Z"/><path class="cls-19" d="M511.8,333.74c-1.71-5.75-2.32-6.76-3.73-11.1-2.62-8.37-1.71-8.47-3.73-12.91a40.36,40.36,0,0,0-5.54-9.28,33.09,33.09,0,0,0-11.09-9.28c-6.15-3-11.79-2.93-16.63-2.82-3.93.1-8.87.2-14.82,2.82a32.08,32.08,0,0,0-12.9,10.19A33.85,33.85,0,0,0,436,316.18c-.3,1.72-.81,4.94-1.81,10.19-.6,3-.91,4.54-.91,4.64a19.93,19.93,0,0,0-.91,4.64,10.62,10.62,0,0,0,0,1.82c0,3-1.51,5.45-1.81,6.46-1.61,5.45.5,10.59,1.81,13.92a28.86,28.86,0,0,0,9.27,12c6.65,5.55,13.4,7.16,18.44,8.37s16.53,3.63,29.53-.91a44.26,44.26,0,0,0,17.54-11.1c3-3.13,6.25-6.56,7.36-12,1-4.94,0-9.89-.91-13.92A54,54,0,0,0,511.8,333.74Z"/><path class="cls-20" d="M502.63,325.36a48.66,48.66,0,0,1,2.82,8.37c1.41,4.84,2.62,9.18,2.82,13.92.1,2.12.4,9.69-3.73,16.65-5.64,9.79-16.53,12.61-21.27,13.92-2.92.81-17.13,4.14-30.54-3.73a33.43,33.43,0,0,1-12.9-12.91,33.82,33.82,0,0,1-2.82-7.36,29.28,29.28,0,0,1,1.81-16.65,33.48,33.48,0,0,1,11.09-13.92C467.26,310.53,496.69,314.06,502.63,325.36Z"/><path class="cls-19" d="M228.08,131.15c1.71-5.75,2.32-6.76,3.73-11.1,2.62-8.37,1.71-8.47,3.73-12.91a40.36,40.36,0,0,1,5.54-9.28,33.09,33.09,0,0,1,11.09-9.28c6.15-3,11.79-2.93,16.63-2.82,3.93.1,8.87.2,14.82,2.82a32.08,32.08,0,0,1,12.9,10.19,33.85,33.85,0,0,1,7.36,14.83c.3,1.72.81,4.94,1.81,10.19.6,3,.91,4.54.91,4.64a19.93,19.93,0,0,1,.91,4.64,10.62,10.62,0,0,1,0,1.82c0,3,1.51,5.45,1.81,6.46,1.61,5.45-.5,10.59-1.81,13.92a28.86,28.86,0,0,1-9.27,12c-6.65,5.55-13.4,7.16-18.44,8.37s-16.53,3.63-29.53-.91a44.26,44.26,0,0,1-17.54-11.1c-3-3.13-6.25-6.56-7.36-12-1-4.94,0-9.89.91-13.92A59.57,59.57,0,0,1,228.08,131.15Z"/><path class="cls-20" d="M237.26,122.88a48.67,48.67,0,0,0-2.82,8.37c-1.41,4.84-2.62,9.18-2.82,13.92-.1,2.12-.4,9.69,3.73,16.65,5.64,9.79,16.53,12.61,21.27,13.92,2.92.81,17.13,4.14,30.54-3.73A33.43,33.43,0,0,0,300,159.1a33.82,33.82,0,0,0,2.82-7.36,29.28,29.28,0,0,0-1.81-16.65A33.48,33.48,0,0,0,290,121.17C272.63,108.05,243.2,111.48,237.26,122.88Z"/><path class="cls-21" d="M529.75,287.43c-4.43.4-8.26-.2-12.9-.91-5.14-.81-9.27-1.51-13.91-3.73a35.66,35.66,0,0,1-14.82-13.92c-5.44-9.38-6.45-21.29-6.45-21.29h0l.91-26.84h0s4.13-9.18,4.64-10.19c4.33-9.18,25.7-24.62,48.08-18.46,1.71.5,18.34,5.25,25,19.47,2.62,5.55,3.33,11.9,3.73,14.83.5,4.44.4,8.88,0,17.55-.3,8.07-.5,12.11-.91,13.92-2.52,10.59-9.78,17.35-12,19.47C548.29,279.66,540.73,286.32,529.75,287.43Z"/><path class="cls-22" d="M574.39,281.48a42.56,42.56,0,0,1,14.82,3.73c3.23,1.41,13.81,6.26,20.36,17.55,4.84,8.37,4.94,15.84,5,26.33.2,13.12.3,22.09-5.54,31.48-9.47,15.13-26.61,18.16-28.62,18.46a43.3,43.3,0,0,1-26.81-4.64,44.43,44.43,0,0,1-14.82-12.91c-5.85-8.58-6.55-16.95-7.36-27.74-.4-5.65-.91-11.7.91-19.47a42.21,42.21,0,0,1,6.45-15.74C546.58,287.33,560.79,280.77,574.39,281.48Z"/><path class="cls-23" d="M602.51,328.19c1.61,2.62,2,5,2.82,9.28.81,4.94,2.72,15.94-3.73,25.93-6.25,9.58-16.43,12.21-19.45,12.91a35.71,35.71,0,0,1-25-2.82,32.92,32.92,0,0,1-14.82-14.83c-.71-1.51-7.26-15.54,0-26.84,3.33-5.15,8-7.36,12-9.28C570.36,315.28,594.75,315.38,602.51,328.19Z"/><path class="cls-9" d="M163.88,79.8a42.56,42.56,0,0,0-14.82,3.73c-3.23,1.41-13.81,6.26-20.36,17.55-4.84,8.37-4.94,15.84-5,26.33-.2,13.12-.3,22.09,5.54,31.48,9.47,15.13,26.61,18.16,28.62,18.46a43.3,43.3,0,0,0,26.81-4.64,44.43,44.43,0,0,0,14.82-12.91c5.85-8.58,6.55-16.95,7.36-27.74.4-5.65.91-11.7-.91-19.47a42.21,42.21,0,0,0-6.45-15.74C191.6,85.65,177.39,79.1,163.88,79.8Z"/><path class="cls-10" d="M135.66,126.51c-1.61,2.62-2,5-2.82,9.28-.81,4.94-2.72,15.94,3.73,25.93,6.25,9.58,16.43,12.21,19.45,12.91a35.71,35.71,0,0,0,25-2.82A32.92,32.92,0,0,0,195.83,157c.71-1.51,7.26-15.54,0-26.84-3.33-5.15-8-7.36-12-9.28C167.81,113.6,143.52,113.8,135.66,126.51Z"/><path class="cls-9" d="M569.86,188.46c-6.65-.71-10.38-1.11-13.91-3.73s-4.33-5.55-7.36-5.55c-1.41,0-1.51.61-3.73.91-1.31.2-4.54.71-7.36-.91-3.23-1.82-4.23-5.25-4.64-6.46-.91-3.13.1-3.73-.91-5.55-1.71-2.82-4.84-1.61-7.36-4.64a8.86,8.86,0,0,1-1.81-7.36c.81-3.63,4.13-4.54,3.73-6.46S523.19,147.6,521,145s-2.62-6.76-.91-9.28c1.11-1.61,2.52-1.51,2.82-2.82.5-2-2.82-3.13-4.64-6.46-2.12-3.93-1.71-9.58.91-12.91,2.42-3,4.84-1.92,6.45-4.64,2.22-3.73-1.81-7,0-12C527,93,530.85,91,532.06,90.4c3.53-1.82,5.74-1.21,9.27-1.82,6.85-1.31,7.46-5.75,12.9-8.37,11.09-5.15,23.18,6.05,37.9,6.46a70.68,70.68,0,0,1,9.27.91c3.73.61,5.64.91,7.36,1.82.6.3,6.75,3.63,7.36,9.28.5,4.34-2.52,7-.91,9.28.81,1.21,1.92.81,3.73,1.82A11.58,11.58,0,0,1,624.49,120c-.5,5.75-7.56,8.07-6.45,12,.3,1.21.91.91,1.81,2.82,1.21,2.52,1.81,6.36,0,9.28-1.71,2.72-4.23,2.42-4.64,4.64-.3,1.51.91,2.12,1.81,4.64.2.5,1.71,5,0,8.37s-5.34,2-7.36,5.55c-1.71,2.82.1,4.54-1.81,7.36-1.71,2.62-4.74,3.43-5.54,3.73-3.73,1.11-4.84-.71-8.26,0-2.42.5-2.32,1.41-8.37,5.55-3.83,2.62-5.85,4-8.26,4.64S573.29,188.86,569.86,188.46Z"/><path class="cls-10" d="M538.51,122.88a14.21,14.21,0,0,0-3.73,5.55c-.4,1.11-1.51,4.54,0,7.36.71,1.31,1.51,1.41,1.81,2.82s-.2,2-.91,4.64c-.91,3-1.31,4.54-.91,5.55.71,1.61,2.32,1.41,3.73,3.73a5.43,5.43,0,0,1,.91,2.82c.1,2-1.31,2.52-1.81,4.64s.1,5.35,1.81,6.46,3.63-.2,4.64.91-.71,3,0,5.55a7.46,7.46,0,0,0,5.54,4.64c2.32.4,3.73-.91,6.45,0a7.28,7.28,0,0,1,1.81.91A43.32,43.32,0,0,0,569,183.11c5.34,1.21,12.5.4,13.91-2.82.6-1.41-.1-3.13.91-3.73.81-.5,1.71.5,3.73.91.5.1,4,.91,6.45-.91a7.9,7.9,0,0,0,2.82-6.46c-.1-1.21-.5-2.22,0-2.82s1.61.2,2.82,0c2.32-.4,4.43-4.74,3.73-8.37a39.94,39.94,0,0,0-2.82-5.55h0c3.33-2.22,3.73-2.72,3.73-2.82a6.73,6.73,0,0,0,.91-5.55c-.6-1.92-1.81-2.12-1.81-3.73-.1-1.41.81-2,1.81-3.73a12.12,12.12,0,0,0,1.81-7.36c-.4-2.72-2.72-3.93-5.54-6.46-5.14-4.54-5.85-8.07-8.37-11.1-9.17-11-36.69-7.47-46.16.91C546,114.31,546.38,114.1,538.51,122.88Z"/><path class="cls-21" d="M274.85,283.29a46.68,46.68,0,0,1,15.22,5c10.38,6,14.82,16.14,16.63,20.38,4.33,10.39,1.41,13,2.82,39.75.81,17.35,2.42,23.71,0,36.12C308,392.05,305.79,398,301.16,403c-4.13,4.54-8.57,6.66-12,8.37-4.54,2.12-25.7,11.2-42.53.91A41.78,41.78,0,0,1,236.45,403a43.94,43.94,0,0,1-7.36-13.92c-3.63-10.69-2.12-17.76-1.81-36.12.3-23.41-1.91-25.63.91-37,1.81-7.06,3.73-14.43,10.18-21.29,9.47-10.09,21.77-11.7,24-12A48.18,48.18,0,0,1,274.85,283.29Z"/><path class="cls-24" d="M273.74,313.46a38.27,38.27,0,0,1,12.2,3.93c8.37,4.64,11.89,12.41,13.3,15.74,3.53,8,1.21,10,2.22,30.67.71,13.42,1.91,18.26,0,27.85-1.21,5.75-2.92,10.29-6.65,14.23a28.76,28.76,0,0,1-9.68,6.46c-3.63,1.61-20.66,8.68-34.07.71a31.13,31.13,0,0,1-8.16-7.16A35.32,35.32,0,0,1,237,395.18c-2.92-8.27-1.71-13.72-1.51-27.85.3-18.06-1.51-19.77.71-28.55,1.41-5.45,3-11.1,8.16-16.44a33.1,33.1,0,0,1,19.25-9.28A37.07,37.07,0,0,1,273.74,313.46Z"/><path class="cls-9" d="M55.74,82.63a46.68,46.68,0,0,0-15.22,5c-10.38,6-14.82,16.14-16.63,20.38-4.33,10.39-1.41,13-2.82,39.75-.81,17.35-2.42,23.71,0,36.12,1.51,7.47,3.73,13.42,8.37,18.46,4.13,4.54,8.57,6.66,12,8.37,4.54,2.12,25.7,11.2,42.53.91a41.78,41.78,0,0,0,10.18-9.28,43.94,43.94,0,0,0,7.36-13.92c3.63-10.69,2.12-17.76,1.81-36.12-.3-23.41,1.91-25.63-.91-37-1.81-7.06-3.73-14.43-10.18-21.29-9.47-10-21.77-11.6-24-11.9A45.16,45.16,0,0,0,55.74,82.63Z"/><path class="cls-10" d="M56.84,112.79a38.27,38.27,0,0,0-12.2,3.93c-8.37,4.64-11.89,12.41-13.3,15.74-3.53,8-1.21,10-2.22,30.67-.71,13.42-1.91,18.26,0,27.85,1.21,5.75,2.92,10.29,6.65,14.23a28.76,28.76,0,0,0,9.68,6.46c3.63,1.61,20.66,8.68,34.07.71a31.13,31.13,0,0,0,8.16-7.16,35.32,35.32,0,0,0,5.95-10.69c2.92-8.27,1.71-13.72,1.51-27.85-.3-18.06,1.51-19.77-.71-28.55-1.41-5.45-3-11.1-8.16-16.44A33.1,33.1,0,0,0,67,112.39,37.07,37.07,0,0,0,56.84,112.79Z"/><path class="cls-25" d="M35.88,105.23a25,25,0,0,0-2.32,3.23c-3.73,6.15-1.81,17.15-1.41,30.06.4,10.09-.5,9.79.5,13.42,3,11.1,12.09,17.05,12.9,17.55,9.27,5.85,22,6.56,31.85.5.6-.4,9.88-6.36,12.9-17.55.5-1.92.6-3.23.91-8.37,1.51-27,.4-30.57-.91-33.29a29.06,29.06,0,0,0-10.18-11.1c-15.22-10.19-33.56-2.72-37.9,0A32,32,0,0,0,35.88,105.23Z"/><path class="cls-26" d="M39.61,127.42c-.1-.2,1-1.82,2.82-2.82a7.9,7.9,0,0,1,7.36,0c1.81,1,2.92,2.62,2.82,2.82s-1.41-1.21-3.73-1.82a10.47,10.47,0,0,0-5.54,0C41,126.31,39.71,127.62,39.61,127.42Z"/><path class="cls-26" d="M71.86,127.42c-.1-.2,1-1.82,2.82-2.82a7.91,7.91,0,0,1,7.36,0c1.81,1,2.92,2.62,2.82,2.82s-1.41-1.21-3.73-1.82a10.47,10.47,0,0,0-5.54,0C73.27,126.31,72.06,127.62,71.86,127.42Z"/><path class="cls-27" d="M38.6,211.66s5.44,2.42,9.27,3.73c5.54,1.82,10.18,1.82,15.72,1.82a67,67,0,0,0,11.09-.91c2.92-.5,9.68-1.82,10.18-4.64v-5.55a29.28,29.28,0,0,0-4.64-15.74A23.92,23.92,0,0,0,69.14,182c-2-.71-9.07-3.23-16.63,0a22,22,0,0,0-8.37,6.46,26.58,26.58,0,0,0-5.54,12.91,62.83,62.83,0,0,0,0,10.29Z"/><path class="cls-25" d="M56.24,173.63c-.81.81-.4,2.22.5,5.85,1.81,7.47,1.71,8.37,3.23,12.81,1.91,5.45,2.52,5.55,2.82,5.55.6-.1.91-1.41,1.81-5.55S66.32,184,67.43,180s1.81-5.45.91-6.26-2.32.1-6.45,0C58.26,173.53,57,172.82,56.24,173.63Z"/><path class="cls-25" d="M138.38,104.32a25,25,0,0,0-2.32,3.23c-3.73,6.15-1.81,17.15-1.41,30.06.4,10.09-.5,9.79.5,13.42,3,11.1,12.09,17.05,12.9,17.55,9.27,5.85,22,6.56,31.85.5.6-.4,9.88-6.36,12.9-17.55.5-1.92.6-3.23.91-8.37,1.51-27,.4-30.57-.91-33.29a29.06,29.06,0,0,0-10.18-11.1c-15.22-10.19-33.56-2.72-37.9,0A35.92,35.92,0,0,0,138.38,104.32Z"/><path class="cls-26" d="M142.11,126.51c-.1-.2,1-1.82,2.82-2.82a7.91,7.91,0,0,1,7.36,0c1.81,1,2.92,2.62,2.82,2.82s-1.41-1.21-3.73-1.82a10.47,10.47,0,0,0-5.54,0C143.52,125.4,142.31,126.72,142.11,126.51Z"/><path class="cls-26" d="M174.47,126.51c-.1-.2,1-1.82,2.82-2.82a7.91,7.91,0,0,1,7.36,0c1.81,1,2.92,2.62,2.82,2.82s-1.41-1.21-3.73-1.82a10.47,10.47,0,0,0-5.54,0C175.88,125.4,174.57,126.72,174.47,126.51Z"/><circle class="cls-26" cx="149.97" cy="133.47" r="3.23"/><circle class="cls-26" cx="179.5" cy="133.47" r="3.23"/><path class="cls-28" d="M148.56,146s1.91,3.23,2.82,4.64a20.09,20.09,0,0,0,6.45,6.46,15.36,15.36,0,0,0,13.91,0,16.6,16.6,0,0,0,5.54-4.64A38.18,38.18,0,0,0,181,146Z"/><path class="cls-29" d="M154.11,153.35c.1-.71.81-1.11,1.81-1.82a11,11,0,0,1,5.54-1.82c2.12-.2,8-.61,12.9,2.82.4.3.81.5.91.91.4,1.82-5.34,5.65-11.09,5.55C159,158.8,153.9,155.37,154.11,153.35Z"/><path class="cls-30" d="M152.29,148.71h25v-2.82h-25Z"/><path class="cls-25" d="M158.74,172.72c-.81.81-.4,2.22.5,5.85,1.81,7.47,1.71,8.37,3.23,12.81,1.91,5.45,2.52,5.55,2.82,5.55.6-.1.91-1.41,1.81-5.55s1.71-8.27,2.82-12.31,1.81-5.45.91-6.26-2.32.1-6.45,0C160.76,172.62,159.65,171.91,158.74,172.72Z"/><path class="cls-25" d="M241.89,104.32a25,25,0,0,0-2.32,3.23c-3.73,6.15-1.81,17.15-1.41,30.06.4,10.09-.5,9.79.5,13.42,3,11.1,12.09,17.05,12.9,17.55,9.27,5.85,22,6.56,31.85.5.6-.4,9.88-6.36,12.9-17.55.5-1.92.6-3.23.91-8.37,1.51-27,.4-30.57-.91-33.29a29.06,29.06,0,0,0-10.18-11.1c-15.22-10.19-33.56-2.72-37.9,0A32,32,0,0,0,241.89,104.32Z"/><path class="cls-26" d="M245.62,126.51c-.1-.2,1-1.82,2.82-2.82a7.91,7.91,0,0,1,7.36,0c1.81,1,2.92,2.62,2.82,2.82s-1.41-1.21-3.73-1.82a10.47,10.47,0,0,0-5.54,0C247,125.4,245.72,126.72,245.62,126.51Z"/><path class="cls-26" d="M278,126.51c-.1-.2,1-1.82,2.82-2.82a7.91,7.91,0,0,1,7.36,0c1.81,1,2.92,2.62,2.82,2.82s-1.41-1.21-3.73-1.82a10.47,10.47,0,0,0-5.54,0C279.39,125.4,278.08,126.72,278,126.51Z"/><circle class="cls-26" cx="253.48" cy="133.47" r="3.23"/><circle class="cls-26" cx="283.01" cy="133.47" r="3.23"/><path class="cls-28" d="M252.07,146s1.91,3.23,2.82,4.64a20.09,20.09,0,0,0,6.45,6.46,15.36,15.36,0,0,0,13.91,0,16.6,16.6,0,0,0,5.54-4.64,38.19,38.19,0,0,0,3.73-6.46Z"/><path class="cls-29" d="M257.62,153.35c.1-.71.81-1.11,1.81-1.82a11,11,0,0,1,5.54-1.82c2.12-.2,8-.61,12.9,2.82.4.3.81.5.91.91.4,1.82-5.34,5.65-11.09,5.55C262.55,158.8,257.31,155.37,257.62,153.35Z"/><path class="cls-30" d="M255.8,148.71h25v-2.82h-25Z"/><path class="cls-25" d="M262.25,172.72c-.81.81-.4,2.22.5,5.85,1.81,7.47,1.71,8.37,3.23,12.81,1.91,5.45,2.52,5.55,2.82,5.55.6-.1.91-1.41,1.81-5.55s1.71-8.27,2.82-12.31,1.81-5.45.91-6.26-2.32.1-6.45,0C264.27,172.62,263.06,171.91,262.25,172.72Z"/><path class="cls-31" d="M341.67,103.41a25,25,0,0,0-2.32,3.23c-3.73,6.15-1.81,17.15-1.41,30.06.4,10.09-.5,9.79.5,13.42,3,11.1,12.09,17.05,12.9,17.55,9.27,5.85,22,6.56,31.85.5.6-.4,9.88-6.36,12.9-17.55.5-1.92.6-3.23.91-8.37,1.51-27,.4-30.57-.91-33.29a29.06,29.06,0,0,0-10.18-11.1c-15.22-10.19-33.56-2.72-37.9,0A32,32,0,0,0,341.67,103.41Z"/><path class="cls-26" d="M345.4,125.61c-.1-.2,1-1.82,2.82-2.82a7.91,7.91,0,0,1,7.36,0c1.81,1,2.92,2.62,2.82,2.82s-1.41-1.21-3.73-1.82a10.47,10.47,0,0,0-5.54,0C346.81,124.4,345.5,125.81,345.4,125.61Z"/><path class="cls-26" d="M377.76,125.61c-.1-.2,1-1.82,2.82-2.82a7.91,7.91,0,0,1,7.36,0c1.81,1,2.92,2.62,2.82,2.82s-1.41-1.21-3.73-1.82a10.47,10.47,0,0,0-5.54,0C379.17,124.4,377.86,125.81,377.76,125.61Z"/><circle class="cls-26" cx="353.26" cy="132.57" r="3.23"/><circle class="cls-26" cx="382.8" cy="132.57" r="3.23"/><path class="cls-28" d="M351.85,145.08s1.91,3.23,2.82,4.64a20.09,20.09,0,0,0,6.45,6.46,15.36,15.36,0,0,0,13.91,0,16.6,16.6,0,0,0,5.54-4.64,38.19,38.19,0,0,0,3.73-6.46Z"/><path class="cls-29" d="M357.4,152.44c.1-.71.81-1.11,1.81-1.82a11,11,0,0,1,5.54-1.82c2.12-.2,8-.61,12.9,2.82.4.3.81.5.91.91.4,1.82-5.34,5.65-11.09,5.55C362.34,157.89,357.09,154.46,357.4,152.44Z"/><path class="cls-30" d="M355.58,147.8h25V145h-25Z"/><path class="cls-31" d="M362,171.81c-.81.81-.4,2.22.5,5.85,1.81,7.47,1.71,8.37,3.23,12.81,1.91,5.45,2.52,5.55,2.82,5.55.6-.1.91-1.41,1.81-5.55s1.71-8.27,2.82-12.31,1.81-5.45.91-6.26-2.32.1-6.45,0C364,171.71,362.84,171,362,171.81Z"/><path class="cls-25" d="M445.18,103.41a25,25,0,0,0-2.32,3.23c-3.73,6.15-1.81,17.15-1.41,30.06.4,10.09-.5,9.79.5,13.42,3,11.1,12.09,17.05,12.9,17.55,9.27,5.85,22,6.56,31.85.5.6-.4,9.88-6.36,12.9-17.55.5-1.92.6-3.23.91-8.37,1.51-27,.4-30.57-.91-33.29a29.06,29.06,0,0,0-10.18-11.1c-15.22-10.19-33.56-2.72-37.9,0A32,32,0,0,0,445.18,103.41Z"/><path class="cls-26" d="M448.91,125.61c-.1-.2,1-1.82,2.82-2.82a7.91,7.91,0,0,1,7.36,0c1.81,1,2.92,2.62,2.82,2.82s-1.41-1.21-3.73-1.82a10.47,10.47,0,0,0-5.54,0C450.22,124.4,449,125.81,448.91,125.61Z"/><path class="cls-26" d="M481.16,125.61c-.1-.2,1-1.82,2.82-2.82a7.91,7.91,0,0,1,7.36,0c1.81,1,2.92,2.62,2.82,2.82s-1.41-1.21-3.73-1.82a10.47,10.47,0,0,0-5.54,0C482.58,124.4,481.37,125.81,481.16,125.61Z"/><circle class="cls-26" cx="456.67" cy="132.57" r="3.23"/><circle class="cls-26" cx="486.31" cy="132.57" r="3.23"/><path class="cls-28" d="M455.36,145.08s1.91,3.23,2.82,4.64a20.09,20.09,0,0,0,6.45,6.46,15.36,15.36,0,0,0,13.91,0,16.6,16.6,0,0,0,5.54-4.64,38.19,38.19,0,0,0,3.73-6.46Z"/><path class="cls-29" d="M460.91,152.44c.1-.71.81-1.11,1.81-1.82a11,11,0,0,1,5.54-1.82c2.12-.2,8-.61,12.9,2.82.4.3.81.5.91.91.4,1.82-5.34,5.65-11.09,5.55C465.85,157.89,460.6,154.46,460.91,152.44Z"/><path class="cls-30" d="M459,147.8h25V145H459Z"/><path class="cls-25" d="M465.54,171.81c-.81.81-.4,2.22.5,5.85,1.81,7.47,1.71,8.37,3.23,12.81,1.91,5.45,2.52,5.55,2.82,5.55.6-.1.91-1.41,1.81-5.55s1.71-8.27,2.82-12.31,1.81-5.45.91-6.26-2.32.1-6.45,0C467.56,171.71,466.35,171,465.54,171.81Z"/><path class="cls-25" d="M545,102.5a25,25,0,0,0-2.32,3.23c-3.73,6.15-1.81,17.15-1.41,30.06.4,10.09-.5,9.79.5,13.42,3,11.1,12.09,17.05,12.9,17.55,9.27,5.85,22,6.56,31.85.5.6-.4,9.88-6.36,12.9-17.55.5-1.92.6-3.23.91-8.37,1.51-27,.4-30.57-.91-33.29A29.05,29.05,0,0,0,589.21,97c-15.22-10.19-33.56-2.72-37.9,0A32,32,0,0,0,545,102.5Z"/><path class="cls-26" d="M548.69,124.7c-.1-.2,1-1.82,2.82-2.82a7.91,7.91,0,0,1,7.36,0c1.81,1,2.92,2.62,2.82,2.82s-1.41-1.21-3.73-1.82a10.47,10.47,0,0,0-5.54,0C550,123.49,548.79,124.9,548.69,124.7Z"/><path class="cls-26" d="M580.95,124.7c-.1-.2,1-1.82,2.82-2.82a7.91,7.91,0,0,1,7.36,0c1.81,1,2.92,2.62,2.82,2.82s-1.41-1.21-3.73-1.82a10.47,10.47,0,0,0-5.54,0C582.36,123.49,581.15,124.9,580.95,124.7Z"/><circle class="cls-26" cx="556.45" cy="131.66" r="3.23"/><circle class="cls-26" cx="586.09" cy="131.66" r="3.23"/><path class="cls-28" d="M555.14,144.07s1.92,3.23,2.82,4.64a20.09,20.09,0,0,0,6.45,6.46,15.36,15.36,0,0,0,13.91,0,16.6,16.6,0,0,0,5.54-4.64,38.19,38.19,0,0,0,3.73-6.46Z"/><path class="cls-29" d="M560.69,151.53c.1-.71.81-1.11,1.81-1.82A11,11,0,0,1,568,147.9c2.12-.2,8-.61,12.9,2.82.4.3.81.5.91.91.4,1.82-5.34,5.65-11.09,5.55C565.63,157,560.38,153.55,560.69,151.53Z"/><path class="cls-30" d="M558.77,146.89h25v-2.82h-25Z"/><path class="cls-32" d="M547.69,208.84s5.44,2.42,9.27,3.73c5.54,1.82,10.18,1.82,15.72,1.82a67,67,0,0,0,11.09-.91c2.92-.5,9.68-1.82,10.18-4.64v-5.55a29.28,29.28,0,0,0-4.64-15.74,23.92,23.92,0,0,0-11.09-8.37c-2-.71-9.07-3.23-16.63,0a20.65,20.65,0,0,0-8.26,6.46,26.58,26.58,0,0,0-5.54,12.91,56.23,56.23,0,0,0-.1,10.29Z"/><path class="cls-25" d="M565.32,170.8c-.81.81-.4,2.22.5,5.85,1.81,7.47,1.71,8.37,3.23,12.81,1.92,5.45,2.52,5.55,2.82,5.55.6-.1.91-1.41,1.81-5.55s1.71-8.27,2.82-12.31,1.81-5.45.91-6.26-2.32.1-6.45,0C567.34,170.8,566.13,170.1,565.32,170.8Z"/><path class="cls-33" d="M27.52,101.59c-.1,3.73,5.44,6.66,9.68,8.78C48.58,116,54.33,118.85,64,120.56c12.5,2.22,35.88,4,38.3-3.23a6.12,6.12,0,0,0,0-2.82c-1.71-11.5-9.37-19.57-10.18-20.38A40.48,40.48,0,0,0,71.76,83s-18.34-4.24-34.17,6.46a35.07,35.07,0,0,0-8.37,8.37C27.82,100,27.62,100.79,27.52,101.59Z"/><path class="cls-25" d="M88.49,209.75A25,25,0,0,0,86.17,213c-3.73,6.15-1.81,17.15-1.41,30.06.4,10.09-.5,9.79.5,13.42,3,11.1,12.09,17.05,12.9,17.55,9.27,5.85,22,6.56,31.85.5.6-.4,9.88-6.36,12.9-17.55.5-1.92.6-3.23.91-8.37,1.51-27,.4-30.57-.91-33.29a29.06,29.06,0,0,0-10.18-11.1c-15.22-10.19-33.56-2.72-37.9,0A35.92,35.92,0,0,0,88.49,209.75Z"/><path class="cls-26" d="M92.22,231.94c-.1-.2,1-1.82,2.82-2.82a7.91,7.91,0,0,1,7.36,0c1.81,1,2.92,2.62,2.82,2.82s-1.41-1.21-3.73-1.82a10.47,10.47,0,0,0-5.54,0C93.63,230.83,92.42,232.14,92.22,231.94Z"/><path class="cls-26" d="M124.57,231.94c-.1-.2,1-1.82,2.82-2.82a7.91,7.91,0,0,1,7.36,0c1.81,1,2.92,2.62,2.82,2.82s-1.41-1.21-3.73-1.82a10.47,10.47,0,0,0-5.54,0C126,230.83,124.68,232.14,124.57,231.94Z"/><circle class="cls-26" cx="100.08" cy="238.9" r="3.23"/><circle class="cls-26" cx="129.61" cy="238.9" r="3.23"/><path class="cls-28" d="M98.67,251.41s1.91,3.23,2.82,4.64a20.09,20.09,0,0,0,6.45,6.46,15.36,15.36,0,0,0,13.91,0,16.6,16.6,0,0,0,5.54-4.64,38.18,38.18,0,0,0,3.73-6.46H98.67Z"/><path class="cls-29" d="M104.22,258.78c.1-.71.81-1.11,1.81-1.82a11,11,0,0,1,5.54-1.82c2.12-.2,8-.61,12.9,2.82.4.3.81.5.91.91.4,1.82-5.34,5.65-11.09,5.55C109.15,264.23,104,260.8,104.22,258.78Z"/><path class="cls-30" d="M102.4,254.14h25v-2.82h-25Z"/><path class="cls-25" d="M108.85,278.15c-.81.81-.4,2.22.5,5.85,1.81,7.47,1.71,8.37,3.23,12.81,1.91,5.45,2.52,5.55,2.82,5.55.6-.1.91-1.41,1.81-5.55s1.71-8.27,2.82-12.31,1.81-5.45.91-6.26-2.32.1-6.45,0C110.87,278,109.76,277.34,108.85,278.15Z"/><path class="cls-34" d="M190.19,209.75a25,25,0,0,0-2.32,3.23c-3.73,6.15-1.81,17.15-1.41,30.06.4,10.09-.5,9.79.5,13.42,3,11.1,12.09,17.05,12.9,17.55,9.27,5.85,22,6.56,31.85.5.6-.4,9.88-6.36,12.9-17.55.5-1.92.6-3.23.91-8.37,1.51-27,.4-30.57-.91-33.29a29.06,29.06,0,0,0-10.18-11.1c-15.22-10.19-33.56-2.72-37.9,0A32,32,0,0,0,190.19,209.75Z"/><path class="cls-26" d="M193.82,231.94c-.1-.2,1-1.82,2.82-2.82a7.91,7.91,0,0,1,7.36,0c1.81,1,2.92,2.62,2.82,2.82s-1.41-1.21-3.73-1.82a10.47,10.47,0,0,0-5.54,0C195.23,230.83,194,232.14,193.82,231.94Z"/><path class="cls-26" d="M226.17,231.94c-.1-.2,1-1.82,2.82-2.82a7.91,7.91,0,0,1,7.36,0c1.81,1,2.92,2.62,2.82,2.82s-1.41-1.21-3.73-1.82a10.47,10.47,0,0,0-5.54,0C227.58,230.83,226.37,232.14,226.17,231.94Z"/><circle class="cls-26" cx="201.68" cy="238.9" r="3.23"/><circle class="cls-26" cx="231.31" cy="238.9" r="3.23"/><path class="cls-28" d="M200.37,251.41s1.91,3.23,2.82,4.64a20.09,20.09,0,0,0,6.45,6.46,15.36,15.36,0,0,0,13.91,0,16.6,16.6,0,0,0,5.54-4.64,38.18,38.18,0,0,0,3.73-6.46H200.37Z"/><path class="cls-29" d="M205.91,258.78c.1-.71.81-1.11,1.81-1.82a11,11,0,0,1,5.54-1.82c2.12-.2,8-.61,12.9,2.82.4.3.81.5.91.91.4,1.82-5.34,5.65-11.09,5.55C210.85,264.23,205.61,260.8,205.91,258.78Z"/><path class="cls-30" d="M204,254.14h25v-2.82H204Z"/><path class="cls-34" d="M210.45,278.15c-.81.81-.4,2.22.5,5.85,1.81,7.47,1.71,8.37,3.23,12.81,1.91,5.45,2.52,5.55,2.82,5.55.6-.1.91-1.41,1.81-5.55s1.71-8.27,2.82-12.31,1.81-5.45.91-6.26-2.32.1-6.45,0C212.56,278,211.35,277.34,210.45,278.15Z"/><path class="cls-34" d="M292.69,208.84a25,25,0,0,0-2.32,3.23c-3.73,6.15-1.81,17.15-1.41,30.06.4,10.09-.5,9.79.5,13.42,3,11.1,12.09,17.05,12.9,17.55,9.27,5.85,22,6.56,31.85.5.6-.4,9.88-6.36,12.9-17.55.5-1.92.6-3.23.91-8.37,1.51-27,.4-30.57-.91-33.29a29.06,29.06,0,0,0-10.18-11.1c-15.22-10.19-33.56-2.72-37.9,0A32,32,0,0,0,292.69,208.84Z"/><path class="cls-26" d="M296.42,231c-.1-.2,1-1.82,2.82-2.82a7.9,7.9,0,0,1,7.36,0c1.81,1,2.92,2.62,2.82,2.82s-1.41-1.21-3.73-1.82a10.47,10.47,0,0,0-5.54,0C297.83,229.82,296.52,231.24,296.42,231Z"/><path class="cls-26" d="M328.77,231c-.1-.2,1-1.82,2.82-2.82a7.9,7.9,0,0,1,7.36,0c1.81,1,2.92,2.62,2.82,2.82s-1.41-1.21-3.73-1.82a10.47,10.47,0,0,0-5.54,0C330.18,229.82,328.87,231.24,328.77,231Z"/><circle class="cls-26" cx="304.28" cy="238" r="3.23"/><circle class="cls-26" cx="333.81" cy="238" r="3.23"/><path class="cls-28" d="M302.87,250.51s1.91,3.23,2.82,4.64a20.09,20.09,0,0,0,6.45,6.46,15.36,15.36,0,0,0,13.91,0,16.6,16.6,0,0,0,5.54-4.64,38.19,38.19,0,0,0,3.73-6.46H302.87Z"/><path class="cls-29" d="M308.41,257.87c.1-.71.81-1.11,1.81-1.82a11,11,0,0,1,5.54-1.82c2.12-.2,8-.61,12.9,2.82.4.3.81.5.91.91.4,1.82-5.34,5.65-11.09,5.55C313.35,263.32,308.21,259.89,308.41,257.87Z"/><path class="cls-30" d="M306.6,253.23h25V250.4h-25Z"/><path class="cls-34" d="M313,277.24c-.81.81-.4,2.22.5,5.85,1.81,7.47,1.71,8.37,3.23,12.81,1.91,5.45,2.52,5.55,2.82,5.55.6-.1.91-1.41,1.81-5.55s1.71-8.27,2.82-12.31,1.81-5.45.91-6.26-2.32.1-6.45,0C315.07,277.14,313.86,276.43,313,277.24Z"/><path class="cls-25" d="M393.48,208.84a25,25,0,0,0-2.32,3.23c-3.73,6.15-1.81,17.15-1.41,30.06.4,10.09-.5,9.79.5,13.42,3,11.1,12.09,17.05,12.9,17.55,9.27,5.85,22,6.56,31.85.5.6-.4,9.88-6.36,12.9-17.55.5-1.92.6-3.23.91-8.37,1.51-27,.4-30.57-.91-33.29a29.06,29.06,0,0,0-10.18-11.1c-15.22-10.19-33.56-2.72-37.9,0A32,32,0,0,0,393.48,208.84Z"/><path class="cls-26" d="M397.11,231c-.1-.2,1-1.82,2.82-2.82a7.9,7.9,0,0,1,7.36,0c1.81,1,2.92,2.62,2.82,2.82s-1.41-1.21-3.73-1.82a10.47,10.47,0,0,0-5.54,0C398.52,229.82,397.31,231.24,397.11,231Z"/><path class="cls-26" d="M429.46,231c-.1-.2,1-1.82,2.82-2.82a7.9,7.9,0,0,1,7.36,0c1.81,1,2.92,2.62,2.82,2.82s-1.41-1.21-3.73-1.82a10.47,10.47,0,0,0-5.54,0C430.87,229.82,429.56,231.24,429.46,231Z"/><circle class="cls-26" cx="404.97" cy="238" r="3.23"/><circle class="cls-26" cx="434.5" cy="238" r="3.23"/><path class="cls-28" d="M403.56,250.51s1.91,3.23,2.82,4.64a20.09,20.09,0,0,0,6.45,6.46,15.36,15.36,0,0,0,13.91,0,16.6,16.6,0,0,0,5.54-4.64,38.19,38.19,0,0,0,3.73-6.46H403.56Z"/><path class="cls-29" d="M409.1,257.87c.1-.71.81-1.11,1.81-1.82a11,11,0,0,1,5.54-1.82c2.12-.2,8-.61,12.9,2.82.4.3.81.5.91.91.4,1.82-5.34,5.65-11.09,5.55C414,263.32,408.9,259.89,409.1,257.87Z"/><path class="cls-30" d="M407.29,253.23h25V250.4h-25Z"/><path class="cls-25" d="M413.74,277.24c-.81.81-.4,2.22.5,5.85,1.81,7.47,1.71,8.37,3.23,12.81,1.91,5.45,2.52,5.55,2.82,5.55.6-.1.91-1.41,1.81-5.55s1.71-8.27,2.82-12.31,1.81-5.45.91-6.26-2.32.1-6.45,0C415.75,277.14,414.64,276.43,413.74,277.24Z"/><path class="cls-35" d="M496,207.93a25,25,0,0,0-2.32,3.23c-3.73,6.15-1.81,17.15-1.41,30.06.4,10.09-.5,9.79.5,13.42,3,11.1,12.09,17.05,12.9,17.55,9.27,5.85,22,6.56,31.85.5.6-.4,9.88-6.36,12.9-17.55.5-1.92.6-3.23.91-8.37,1.51-27,.4-30.57-.91-33.29a29.05,29.05,0,0,0-10.18-11.1c-15.22-10.19-33.56-2.72-37.9,0A32,32,0,0,0,496,207.93Z"/><path class="cls-26" d="M499.71,230.13c-.1-.2,1-1.82,2.82-2.82a7.9,7.9,0,0,1,7.36,0c1.81,1,2.92,2.62,2.82,2.82s-1.41-1.21-3.73-1.82a10.47,10.47,0,0,0-5.54,0C501.12,228.92,499.81,230.33,499.71,230.13Z"/><path class="cls-26" d="M532.06,230.13c-.1-.2,1-1.82,2.82-2.82a7.9,7.9,0,0,1,7.36,0c1.81,1,2.92,2.62,2.82,2.82s-1.41-1.21-3.73-1.82a10.47,10.47,0,0,0-5.54,0C533.37,228.92,532.16,230.33,532.06,230.13Z"/><path class="cls-28" d="M506.16,249.5s1.91,3.23,2.82,4.64a20.09,20.09,0,0,0,6.45,6.46,15.36,15.36,0,0,0,13.91,0,16.6,16.6,0,0,0,5.54-4.64,38.19,38.19,0,0,0,3.73-6.46H506.16Z"/><path class="cls-29" d="M511.7,257c.1-.71.81-1.11,1.81-1.82a11,11,0,0,1,5.54-1.82c2.12-.2,8-.61,12.9,2.82.4.3.81.5.91.91.4,1.82-5.34,5.65-11.09,5.55C516.64,262.41,511.4,259,511.7,257Z"/><path class="cls-30" d="M509.89,252.32h25V249.5h-25Z"/><path class="cls-35" d="M516.34,276.23c-.81.81-.4,2.22.5,5.85,1.81,7.47,1.71,8.37,3.23,12.81,1.92,5.45,2.52,5.55,2.82,5.55.6-.1.91-1.41,1.81-5.55s1.71-8.27,2.82-12.31,1.81-5.45.91-6.26-2.32.1-6.45,0C518.36,276.23,517.15,275.53,516.34,276.23Z"/><path class="cls-26" d="M72.87,330.91c-.1-.2,1-1.82,2.82-2.82a7.91,7.91,0,0,1,7.36,0c1.81,1,2.92,2.62,2.82,2.82s-1.41-1.21-3.73-1.82a10.47,10.47,0,0,0-5.54,0C74.28,329.7,73,331.11,72.87,330.91Z"/><path class="cls-25" d="M139.39,307.81a25,25,0,0,0-2.32,3.23c-3.73,6.15-1.81,17.15-1.41,30.06.4,10.09-.5,9.79.5,13.42,3,11.1,12.09,17.05,12.9,17.55,9.27,5.85,22,6.56,31.85.5.6-.4,9.88-6.36,12.9-17.55.5-1.92.6-3.23.91-8.37,1.51-27,.4-30.57-.91-33.29a29.06,29.06,0,0,0-10.18-11.1c-15.22-10.19-33.56-2.72-37.9,0A32,32,0,0,0,139.39,307.81Z"/><path class="cls-26" d="M143,330c-.1-.2,1-1.82,2.82-2.82a7.91,7.91,0,0,1,7.36,0c1.81,1,2.92,2.62,2.82,2.82s-1.41-1.21-3.73-1.82a10.47,10.47,0,0,0-5.54,0C144.43,328.79,143.22,330.21,143,330Z"/><path class="cls-26" d="M175.37,330c-.1-.2,1-1.82,2.82-2.82a7.91,7.91,0,0,1,7.36,0c1.81,1,2.92,2.62,2.82,2.82s-1.41-1.21-3.73-1.82a10.47,10.47,0,0,0-5.54,0C176.78,328.79,175.57,330.21,175.37,330Z"/><circle class="cls-26" cx="150.88" cy="336.97" r="3.23"/><circle class="cls-26" cx="180.51" cy="336.97" r="3.23"/><path class="cls-25" d="M159.65,376.11c-.81.81-.4,2.22.5,5.85,1.81,7.47,1.71,8.37,3.23,12.81,1.91,5.45,2.52,5.55,2.82,5.55.6-.1.91-1.41,1.81-5.55s1.71-8.27,2.82-12.31,1.81-5.45.91-6.26-2.32.1-6.45,0C161.77,376.11,160.56,375.4,159.65,376.11Z"/><path class="cls-25" d="M242.8,307.81a25,25,0,0,0-2.32,3.23c-3.73,6.15-1.81,17.15-1.41,30.06.4,10.09-.5,9.79.5,13.42,3,11.1,12.09,17.05,12.9,17.55,9.27,5.85,22,6.56,31.85.5.6-.4,9.88-6.36,12.9-17.55.5-1.92.6-3.23.91-8.37,1.51-27,.4-30.57-.91-33.29A29.06,29.06,0,0,0,287,302.26c-15.22-10.19-33.56-2.72-37.9,0A32,32,0,0,0,242.8,307.81Z"/><path class="cls-26" d="M246.53,330c-.1-.2,1-1.82,2.82-2.82a7.91,7.91,0,0,1,7.36,0c1.81,1,2.92,2.62,2.82,2.82s-1.41-1.21-3.73-1.82a10.47,10.47,0,0,0-5.54,0C247.94,328.79,246.63,330.21,246.53,330Z"/><path class="cls-26" d="M278.88,330c-.1-.2,1-1.82,2.82-2.82a7.91,7.91,0,0,1,7.36,0c1.81,1,2.92,2.62,2.82,2.82s-1.41-1.21-3.73-1.82a10.47,10.47,0,0,0-5.54,0C280.29,328.79,279,330.21,278.88,330Z"/><circle class="cls-26" cx="254.39" cy="336.97" r="3.23"/><circle class="cls-26" cx="283.92" cy="336.97" r="3.23"/><path class="cls-28" d="M253,349.38s1.91,3.23,2.82,4.64a20.09,20.09,0,0,0,6.45,6.46,15.36,15.36,0,0,0,13.91,0,16.6,16.6,0,0,0,5.54-4.64,38.18,38.18,0,0,0,3.73-6.46Z"/><path class="cls-29" d="M258.52,356.84c.1-.71.81-1.11,1.81-1.82a11,11,0,0,1,5.54-1.82c2.12-.2,8-.61,12.9,2.82.4.3.81.5.91.91.4,1.82-5.34,5.65-11.09,5.55C263.46,362.29,258.32,358.86,258.52,356.84Z"/><path class="cls-30" d="M256.71,352.2h25v-2.82h-25Z"/><path class="cls-36" d="M245.62,414.15s5.44,2.42,9.27,3.73c5.54,1.82,10.18,1.82,15.72,1.82a67,67,0,0,0,11.09-.91c2.92-.5,9.68-1.82,10.18-4.64V408.6a29.28,29.28,0,0,0-4.64-15.74,23.92,23.92,0,0,0-11.09-8.37c-2-.71-9.07-3.23-16.63,0a22,22,0,0,0-8.37,6.46,26.58,26.58,0,0,0-5.54,12.91A52.12,52.12,0,0,0,245.62,414.15Z"/><path class="cls-25" d="M263.16,376.11c-.81.81-.4,2.22.5,5.85,1.81,7.47,1.71,8.37,3.23,12.81,1.91,5.45,2.52,5.55,2.82,5.55.6-.1.91-1.41,1.81-5.55s1.71-8.27,2.82-12.31,1.81-5.45.91-6.26-2.32.1-6.45,0C265.17,376.11,264,375.4,263.16,376.11Z"/><path class="cls-25" d="M342.58,306.9a25,25,0,0,0-2.32,3.23c-3.73,6.15-1.81,17.15-1.41,30.06.4,10.09-.5,9.79.5,13.42,3,11.1,12.09,17.05,12.9,17.55,9.27,5.85,22,6.56,31.85.5.6-.4,9.88-6.36,12.9-17.55.5-1.92.6-3.23.91-8.37,1.51-27,.4-30.57-.91-33.29a29.06,29.06,0,0,0-10.18-11.1c-15.22-10.19-33.56-2.72-37.9,0A32,32,0,0,0,342.58,306.9Z"/><path class="cls-26" d="M346.31,329.1c-.1-.2,1-1.82,2.82-2.82a7.91,7.91,0,0,1,7.36,0c1.81,1,2.92,2.62,2.82,2.82s-1.41-1.21-3.73-1.82a10.47,10.47,0,0,0-5.54,0A14.21,14.21,0,0,0,346.31,329.1Z"/><path class="cls-26" d="M378.66,329.1c-.1-.2,1-1.82,2.82-2.82a7.91,7.91,0,0,1,7.36,0c1.81,1,2.92,2.62,2.82,2.82s-1.41-1.21-3.73-1.82a10.47,10.47,0,0,0-5.54,0A14.21,14.21,0,0,0,378.66,329.1Z"/><circle class="cls-26" cx="354.17" cy="335.96" r="3.23"/><circle class="cls-26" cx="383.7" cy="335.96" r="3.23"/><path class="cls-28" d="M352.76,348.47s1.91,3.23,2.82,4.64a20.09,20.09,0,0,0,6.45,6.46,15.36,15.36,0,0,0,13.91,0,16.6,16.6,0,0,0,5.54-4.64,38.18,38.18,0,0,0,3.73-6.46Z"/><path class="cls-29" d="M358.3,355.93c.1-.71.81-1.11,1.81-1.82a11,11,0,0,1,5.54-1.82c2.12-.2,8-.61,12.9,2.82.4.3.81.5.91.91.4,1.82-5.34,5.65-11.09,5.55C363.24,361.28,358.1,358,358.3,355.93Z"/><path class="cls-30" d="M356.49,351.29h25v-2.82h-25Z"/><path class="cls-25" d="M362.94,375.2c-.81.81-.4,2.22.5,5.85,1.81,7.47,1.71,8.37,3.23,12.81,1.91,5.45,2.52,5.55,2.82,5.55.6-.1.91-1.41,1.81-5.55s1.71-8.27,2.82-12.31,1.81-5.45.91-6.26-2.32.1-6.45,0C365,375.2,363.75,374.4,362.94,375.2Z"/><path class="cls-34" d="M446.09,306.9a25,25,0,0,0-2.32,3.23c-3.73,6.15-1.81,17.15-1.41,30.06.4,10.09-.5,9.79.5,13.42,3,11.1,12.09,17.05,12.9,17.55,9.27,5.85,22,6.56,31.85.5.6-.4,9.88-6.36,12.9-17.55.5-1.92.6-3.23.91-8.37,1.51-27,.4-30.57-.91-33.29a29.06,29.06,0,0,0-10.18-11.1c-15.22-10.19-33.56-2.72-37.9,0A32,32,0,0,0,446.09,306.9Z"/><path class="cls-26" d="M449.82,329.1c-.1-.2,1-1.82,2.82-2.82a7.91,7.91,0,0,1,7.36,0c1.81,1,2.92,2.62,2.82,2.82s-1.41-1.21-3.73-1.82a10.47,10.47,0,0,0-5.54,0A14.21,14.21,0,0,0,449.82,329.1Z"/><path class="cls-26" d="M482.17,329.1c-.1-.2,1-1.82,2.82-2.82a7.91,7.91,0,0,1,7.36,0c1.81,1,2.92,2.62,2.82,2.82s-1.41-1.21-3.73-1.82a10.47,10.47,0,0,0-5.54,0A12.37,12.37,0,0,0,482.17,329.1Z"/><circle class="cls-26" cx="457.68" cy="335.96" r="3.23"/><circle class="cls-26" cx="487.21" cy="335.96" r="3.23"/><path class="cls-37" d="M448.91,413.24s5.44,2.42,9.27,3.73c5.54,1.82,10.18,1.82,15.72,1.82a67,67,0,0,0,11.09-.91c2.92-.5,9.68-1.82,10.18-4.64v-5.55A29.28,29.28,0,0,0,490.54,392a23.92,23.92,0,0,0-11.09-8.37c-2-.71-9.07-3.23-16.63,0a22,22,0,0,0-8.37,6.46,26.58,26.58,0,0,0-5.54,12.91,52.12,52.12,0,0,0,0,10.29Z"/><path class="cls-34" d="M466.45,375.2c-.81.81-.4,2.22.5,5.85,1.81,7.47,1.71,8.37,3.23,12.81,1.91,5.45,2.52,5.55,2.82,5.55.6-.1.91-1.41,1.81-5.55s1.71-8.27,2.82-12.31,1.81-5.45.91-6.26-2.32.1-6.45,0C468.47,375.2,467.26,374.4,466.45,375.2Z"/><path class="cls-25" d="M545.87,306a25,25,0,0,0-2.32,3.23c-3.73,6.15-1.81,17.15-1.41,30.06.4,10.09-.5,9.79.5,13.42,3,11.1,12.09,17.05,12.9,17.55,9.27,5.85,22,6.56,31.85.5.6-.4,9.88-6.36,12.9-17.55.5-1.92.6-3.23.91-8.37,1.51-27,.4-30.57-.91-33.29a29.05,29.05,0,0,0-10.18-11.1c-15.22-10.19-33.56-2.72-37.9,0A28.73,28.73,0,0,0,545.87,306Z"/><path class="cls-26" d="M549.6,328.19c-.1-.2,1-1.82,2.82-2.82a7.91,7.91,0,0,1,7.36,0c1.81,1,2.92,2.62,2.82,2.82s-1.41-1.21-3.73-1.82a10.47,10.47,0,0,0-5.54,0A14.21,14.21,0,0,0,549.6,328.19Z"/><path class="cls-26" d="M582,328.19c-.1-.2,1-1.82,2.82-2.82a7.91,7.91,0,0,1,7.36,0c1.81,1,2.92,2.62,2.82,2.82s-1.41-1.21-3.73-1.82a10.47,10.47,0,0,0-5.54,0A12.37,12.37,0,0,0,582,328.19Z"/><circle class="cls-26" cx="557.46" cy="335.05" r="3.23"/><circle class="cls-26" cx="586.99" cy="335.05" r="3.23"/><path class="cls-28" d="M556.05,347.56s1.92,3.23,2.82,4.64a20.09,20.09,0,0,0,6.45,6.46,15.36,15.36,0,0,0,13.91,0,16.6,16.6,0,0,0,5.54-4.64,38.18,38.18,0,0,0,3.73-6.46Z"/><path class="cls-29" d="M561.59,354.92c.1-.71.81-1.11,1.81-1.82a11,11,0,0,1,5.54-1.82c2.12-.2,8-.61,12.9,2.82.4.3.81.5.91.91.4,1.82-5.34,5.65-11.09,5.55C566.53,360.37,561.29,357,561.59,354.92Z"/><path class="cls-30" d="M559.78,350.38h25v-2.82h-25Z"/><path class="cls-38" d="M548.69,412.33s5.44,2.42,9.27,3.73c5.54,1.82,10.18,1.82,15.72,1.82a67,67,0,0,0,11.09-.91c2.92-.5,9.68-1.82,10.18-4.64v-5.55A29.28,29.28,0,0,0,590.32,391a23.92,23.92,0,0,0-11.09-8.37c-2-.71-9.07-3.23-16.63,0a20.65,20.65,0,0,0-8.26,6.46A26.58,26.58,0,0,0,548.79,402,47.89,47.89,0,0,0,548.69,412.33Z"/><path class="cls-25" d="M566.23,374.29c-.81.81-.4,2.22.5,5.85,1.81,7.47,1.71,8.37,3.23,12.81,1.92,5.45,2.52,5.55,2.82,5.55.6-.1.91-1.41,1.81-5.55s1.71-8.27,2.82-12.31,1.81-5.45.91-6.26-2.32.1-6.45,0C568.25,374.19,567,373.49,566.23,374.29Z"/><path class="cls-33" d="M385.11,203.29c-.1,3.73,5.44,6.66,9.68,8.78,11.39,5.65,17.13,8.47,26.81,10.19,12.5,2.22,35.88,4,38.3-3.23a6.11,6.11,0,0,0,0-2.82c-1.71-11.5-9.37-19.57-10.18-20.38a40.48,40.48,0,0,0-20.36-11.1s-18.34-4.24-34.17,6.46a35.07,35.07,0,0,0-8.37,8.37C385.42,201.68,385.11,202.48,385.11,203.29Z"/><path class="cls-39" d="M303.07,302.26c.1,3.73-5.44,6.66-9.68,8.78-11.39,5.65-17.13,8.47-26.81,10.19-12.5,2.22-35.88,4-38.3-3.23a6.12,6.12,0,0,1,0-2.82c1.71-11.5,9.37-19.57,10.18-20.38a40.48,40.48,0,0,1,20.36-11.1s18.34-4.24,34.17,6.46a35.07,35.07,0,0,1,8.37,8.37C302.77,300.65,303.07,301.45,303.07,302.26Z"/><path class="cls-40" d="M192,201.47h0s-1-5.55-.5-8.78c1.31-7.26,12.2-12.61,19.45-12,1.91.2,3.43,1.82,6.45,1.82,2.62,0,3.73-.81,6-1.41,4.94-1.11,9.27.71,12,1.82,3.63,1.51,9.07,3.83,10.18,8.37,1,4.24-1.81,10.19-1.81,10.19h0s4.64-.3,7.36.91c4.54,2,5.44,8.68,5.54,9.28a14,14,0,0,1-5.54,12.91c-.3.2-5.34,3.63-11.09,1.82a12.92,12.92,0,0,1-6.45-4.64c-1.51-2.22-1.21-3.63-2.82-4.64s-2.62.2-6.45,0c-3.33-.1-3.43-1-6.45-.91-2.72.1-2.72.81-5.54.91-4.23.2-6-1.21-7.36,0-1,.91-.6,2.32-.91,3.73-1.11,4.34-8.16,7.06-13.91,6.46A12.46,12.46,0,0,1,179,210.65c.2-.5,1.91-5.35,6.45-7.36C185.55,203.29,186.36,202.89,192,201.47Z"/><path class="cls-33" d="M544.06,96h0s-1-5.55-.5-8.78c1.31-7.26,12.2-12.61,19.45-12,1.92.2,3.43,1.82,6.45,1.82,2.62,0,3.73-.81,6-1.41,4.94-1.11,9.27.71,12,1.82,3.63,1.51,9.07,3.83,10.18,8.37,1,4.24-1.81,10.19-1.81,10.19h0s4.64-.3,7.36.91c4.54,2,5.44,8.68,5.54,9.28a14,14,0,0,1-5.54,12.91c-.3.2-5.34,3.63-11.09,1.82a12.92,12.92,0,0,1-6.45-4.64c-1.51-2.22-1.21-3.63-2.82-4.64s-2.62.2-6.45,0c-3.33-.1-3.43-1-6.45-.91-2.72.1-2.72.81-5.54.91-4.23.2-6-1.21-7.36,0-1,.91-.6,2.32-.91,3.73-1.11,4.34-8.16,7.06-13.91,6.46a12.52,12.52,0,0,1-8.26-3.73,13,13,0,0,1-2.82-12.91c.2-.5,1.92-5.35,6.45-7.36C537.61,97.86,538.31,97.46,544.06,96Z"/><path class="cls-33" d="M130.12,99.68c-.81,4.14,6.25,8.58,10.18,11.1,8.16,5.15,13.71,8.68,22.17,9.28,0,0,16.23,1.21,34.17-16.65.91-.91,3.23-3.13,2.82-5.55a3.61,3.61,0,0,0-.91-1.82c-13.1-15.54-32.35-15.74-32.35-15.74a48.59,48.59,0,0,0-35.07,17.55A3.91,3.91,0,0,0,130.12,99.68Z"/><path class="cls-41" d="M608.06,301.35c.81,4.14-6.25,8.58-10.18,11.1-8.16,5.15-13.71,8.68-22.17,9.28,0,0-16.23,1.21-34.17-16.65-.91-.91-3.23-3.13-2.82-5.55a3.61,3.61,0,0,1,.91-1.82C552.72,282.18,572,282,572,282A48.59,48.59,0,0,1,607,299.54,2.63,2.63,0,0,1,608.06,301.35Z"/><path class="cls-22" d="M548.49,404.46c.91-.3-.3-3.83,0-12a41.3,41.3,0,0,1,.91-9.28c1.51-6.26,3.93-8.58,2.82-10.19s-5.14-1-7.36,0a11.09,11.09,0,0,0-5.54,6.46c-.4,1.21-1.11,4.14,1.81,12C543.25,397.3,547.08,405,548.49,404.46Z"/><path class="cls-42" d="M329.68,134.89h0a109.22,109.22,0,0,1,1.41-18.06c.81-4.24,2.12-11.4,7.36-18.46A37.23,37.23,0,0,1,357.4,84.95,29.81,29.81,0,0,1,373.12,84c8.47,2,13.4,7.57,16.63,11.1s5.85,6.56,6.45,11.1c.81,5.65-2,10.19-3.73,12.91-5.95,9.69-15.92,13.12-18.44,13.92-4,1.21-3.43.3-23.08.91C350.95,134,347.82,134.08,329.68,134.89Z"/><path class="cls-43" d="M397.11,147.8s1-6.76,2.82-19.47c.5-3.73,1.41-5.45,1.81-9.28a23.65,23.65,0,0,0,0-5.55,10.16,10.16,0,0,0-.91-3.73c-1.31-2.52-4-4.14-4.64-3.73-.2.2-.1.61,0,.91.5,1.92,0,2.82,0,7.36,0,5.85.81,12.31.91,23.1C397.11,141.34,397.11,147.8,397.11,147.8Z"/><path class="cls-25" d="M36.79,308.72a25,25,0,0,0-2.32,3.23c-3.73,6.15-1.81,17.15-1.41,30.06.4,10.09-.5,9.79.5,13.42,3,11.1,12.09,17.05,12.9,17.55,9.27,5.85,22,6.56,31.85.5.6-.4,9.88-6.36,12.9-17.55.5-1.92.6-3.23.91-8.37,1.51-27,.4-30.57-.91-33.29A29.05,29.05,0,0,0,81,303.17c-15.22-10.19-33.56-2.72-37.9,0A32,32,0,0,0,36.79,308.72Z"/><path class="cls-26" d="M40.52,330.91c-.1-.2,1-1.82,2.82-2.82a7.91,7.91,0,0,1,7.36,0c1.81,1,2.92,2.62,2.82,2.82s-1.41-1.21-3.73-1.82a10.47,10.47,0,0,0-5.54,0C41.93,329.7,40.62,331.11,40.52,330.91Z"/><circle class="cls-26" cx="48.38" cy="337.87" r="3.23"/><circle class="cls-26" cx="77.91" cy="337.87" r="3.23"/><path class="cls-28" d="M47,350.38s1.91,3.23,2.82,4.64a20.09,20.09,0,0,0,6.45,6.46,15.36,15.36,0,0,0,13.91,0,16.6,16.6,0,0,0,5.54-4.64,38.18,38.18,0,0,0,3.73-6.46Z"/><path class="cls-29" d="M52.51,357.75c.1-.71.81-1.11,1.81-1.82a11,11,0,0,1,5.54-1.82c2.12-.2,8-.61,12.9,2.82.4.3.81.5.91.91.4,1.82-5.34,5.65-11.09,5.55C57.45,363.2,52.21,359.77,52.51,357.75Z"/><path class="cls-30" d="M50.7,353.11h25v-2.82h-25Z"/><path class="cls-44" d="M39.61,415.05s5.44,2.42,9.27,3.73c5.54,1.82,10.18,1.82,15.72,1.82a67,67,0,0,0,11.09-.91c2.92-.5,9.68-1.82,10.18-4.64V409.5a29.28,29.28,0,0,0-4.64-15.74,23.92,23.92,0,0,0-11.09-8.37c-2-.71-9.07-3.23-16.63,0a22,22,0,0,0-8.37,6.46,26.58,26.58,0,0,0-5.54,12.91A52.12,52.12,0,0,0,39.61,415.05Z"/><path class="cls-25" d="M57.15,377.12c-.81.81-.4,2.22.5,5.85,1.81,7.47,1.71,8.37,3.23,12.81,1.91,5.45,2.52,5.55,2.82,5.55.6-.1.91-1.41,1.81-5.55s1.71-8.27,2.82-12.31,1.81-5.45.91-6.26-2.32.1-6.45,0C59.16,377,58,376.31,57.15,377.12Z"/><path class="cls-9" d="M100.59,337.37h0a109.22,109.22,0,0,0-1.41-18.06c-.81-4.24-2.12-11.4-7.36-18.46a37.23,37.23,0,0,0-18.95-13.42,29.81,29.81,0,0,0-15.72-.91c-8.47,2-13.4,7.57-16.63,11.1s-5.85,6.56-6.45,11.1c-.81,5.65,2,10.19,3.73,12.91,5.95,9.69,15.92,13.12,18.44,13.92,4,1.21,3.43.3,23.08.91C79.42,336.46,82.45,336.56,100.59,337.37Z"/><path class="cls-10" d="M33.16,350.38s-.4-2.52-1-7.26C31,335,30.44,331,30.44,331c-.3-2.12-.5-4.34-.91-6.46-.6-3.43-1.21-5.35-.91-8.37a8.94,8.94,0,0,1,.91-3.73c1.31-2.52,4-4.14,4.64-3.73.2.2.1.61,0,.91-.5,1.92,0,2.82,0,7.36,0,5.85-.81,12.31-.91,23.1C33.16,343.83,33.16,350.38,33.16,350.38Z"/><path class="cls-45" d="M402.65,309.22c-.1,3.33-2.62,5.75-5.54,8.37a42.91,42.91,0,0,1-15.22,8.78c-20.46,6.26-42.43,2.82-42.53,2.82h0l-11.09-1.82h0v-2.82a30.38,30.38,0,0,1,1.81-8.37,43.24,43.24,0,0,1,11.09-16.65c9.57-8.17,21-8.27,26.81-8.37a48.43,48.43,0,0,1,25.9,7.36C397.51,300.95,402.75,304.48,402.65,309.22Z"/><path class="cls-39" d="M489.53,209.34c.1,3.33,2.62,5.75,5.54,8.37a42.91,42.91,0,0,0,15.22,8.78c20.46,6.26,42.43,2.82,42.53,2.82h0l11.09-1.82h0v-2.82a30.38,30.38,0,0,0-1.81-8.37A43.24,43.24,0,0,0,551,199.66c-9.57-8.17-21-8.27-26.81-8.37a48.43,48.43,0,0,0-25.9,7.36C494.67,201.07,489.43,204.6,489.53,209.34Z"/><path class="cls-46" d="M237.26,105.23c-.3,1.72.3,4.64,12,12.91,6.35,4.54,9.57,6.86,14.82,9.28,5.64,2.62,9.88,3.63,17.54,5.55,12.9,3.13,24.29,6,26.81,1.82.5-.81.3-2.12,0-4.64a26.25,26.25,0,0,0-.91-4.64,83,83,0,0,1-1.81-9.28c-.5-2.52-4-16.75-16.63-25a36.11,36.11,0,0,0-15.72-5.55c-2.72-.3-15-1.82-25,5.55-2.92,2.12-5.34,5.45-10.18,12A12.25,12.25,0,0,0,237.26,105.23Z"/><path class="cls-46" d="M503.54,307.81c.3,1.72-.3,4.64-12,12.91-6.35,4.54-9.57,6.86-14.82,9.28-5.64,2.62-9.88,3.63-17.54,5.55-12.9,3.13-24.29,6-26.81,1.82-.5-.81-.3-2.12,0-4.64a26.25,26.25,0,0,1,.91-4.64,83,83,0,0,0,1.81-9.28c.5-2.52,4-16.75,16.63-25a36.11,36.11,0,0,1,15.72-5.55c2.72-.3,15-1.82,25,5.55,2.92,2.12,5.34,5.45,10.18,12A12.27,12.27,0,0,1,503.54,307.81Z"/><path class="cls-45" d="M430.37,122.88c1,2.93,12.8,2.93,22.17-.91,3.53-1.41,8.47-3.43,12-8.37,3.73-5.15,3.73-10.19,5.54-10.19s2.12,5.35,6.45,11.1a31.41,31.41,0,0,0,8.37,7.36c10.58,6.26,26.1,4.74,27.72,0a3.64,3.64,0,0,0,0-1.82c-.91-6.15-1.41-9.28-2.82-12.91-2.12-5.65-3.63-9.69-7.36-13.92-5-5.65-10.89-7.77-14.82-9.28a49.45,49.45,0,0,0-18.44-2.82c-4.84.1-11.19.2-18.44,3.73a30.17,30.17,0,0,0-12,9.28,37.5,37.5,0,0,0-5.54,12c-.3.81-.81,3.33-1.81,8.37a70.46,70.46,0,0,0-.91,7.36A5.18,5.18,0,0,0,430.37,122.88Z"/><path class="cls-45" d="M125.48,325.36c1,2.93,12.8,2.93,22.17-.91,3.53-1.41,8.47-3.43,12-8.37,3.73-5.15,3.73-10.19,5.54-10.19s2.12,5.35,6.45,11.1a31.41,31.41,0,0,0,8.37,7.36c10.58,6.26,26.1,4.74,27.72,0a3.64,3.64,0,0,0,0-1.82c-.91-6.15-1.41-9.28-2.82-12.91-2.12-5.65-3.63-9.69-7.36-13.92-5-5.65-10.89-7.77-14.82-9.28a49.45,49.45,0,0,0-18.44-2.82c-4.84.1-11.19.2-18.44,3.73a30.17,30.17,0,0,0-12,9.28,37.5,37.5,0,0,0-5.54,12c-.3.81-.81,3.33-1.81,8.37a70.46,70.46,0,0,0-.91,7.36A5.87,5.87,0,0,0,125.48,325.36Z"/><path class="cls-42" d="M152.39,237.49h0A109.22,109.22,0,0,0,151,219.43c-.81-4.24-2.12-11.4-7.36-18.46a37.23,37.23,0,0,0-18.95-13.42,29.81,29.81,0,0,0-15.72-.91c-8.47,2-13.4,7.57-16.63,11.1s-5.85,6.56-6.45,11.1c-.81,5.65,2,10.19,3.73,12.91,5.95,9.69,15.92,13.12,18.44,13.92,4,1.21,3.43.3,23.08.91C131.13,236.58,134.15,236.68,152.39,237.49Z"/><path class="cls-43" d="M85,250.51s-.4-2.52-1-7.26c-1.11-8.07-1.71-12.11-1.71-12.11-.3-2.12-.5-4.34-.91-6.46-.6-3.43-1.21-5.35-.91-8.37a8.94,8.94,0,0,1,.91-3.73c1.31-2.52,4-4.14,4.64-3.73.2.2.1.61,0,.91-.5,1.92,0,2.82,0,7.36,0,5.85-.81,12.31-.91,23.1C84.86,243.95,85,250.51,85,250.51Z"/><path class="cls-40" d="M294.61,202.38h0s-1-5.55-.5-8.78c1.31-7.26,12.2-12.61,19.45-12,1.91.2,3.43,1.82,6.45,1.82,2.62,0,3.73-.81,6-1.41,4.94-1.11,9.27.71,12,1.82,3.63,1.51,9.07,3.83,10.18,8.37,1,4.24-1.81,10.19-1.81,10.19h0s4.64-.3,7.36.91c4.54,2,5.44,8.68,5.54,9.28a14,14,0,0,1-5.54,12.91c-.3.2-5.34,3.63-11.09,1.82a12.92,12.92,0,0,1-6.45-4.64c-1.51-2.22-1.21-3.63-2.82-4.64s-2.62.2-6.45,0c-3.33-.1-3.43-1-6.45-.91-2.72.1-2.72.81-5.54.91-4.23.2-6-1.21-7.36,0-1,.91-.6,2.32-.91,3.73-1.11,4.34-8.16,7.06-13.91,6.46a12.46,12.46,0,0,1-11.19-16.65c.2-.5,1.91-5.35,6.45-7.36C288.15,204.2,288.86,203.89,294.61,202.38Z"/><polyline class="cls-47" points="338.45 131.66 342.18 131.66 396.7 131.66"/><path class="cls-1" d="M343.59,128.43h21.27v1.82A12.22,12.22,0,0,1,362,136.7c-1.41,1.82-3.93,5-8.37,5.55-3.23.4-7.36-.81-9.27-3.73C343.49,137.11,343.59,135.8,343.59,128.43Z"/><path class="cls-1" d="M392.47,128.43H371.2v1.82A12.22,12.22,0,0,0,374,136.7c1.41,1.82,3.93,5,8.37,5.55,3.23.4,7.36-.81,9.27-3.73C392.47,137.11,392.47,135.8,392.47,128.43Z"/><polyline class="cls-47" points="239.57 308.21 243.3 308.21 297.83 308.21"/><path class="cls-1" d="M244.71,305H266v1.82a12.22,12.22,0,0,1-2.82,6.46c-1.41,1.82-3.93,5-8.37,5.55-3.23.4-7.36-.81-9.27-3.73C244.71,313.76,244.71,312.35,244.71,305Z"/><path class="cls-1" d="M293.7,305H272.43v1.82a12.22,12.22,0,0,0,2.82,6.46c1.41,1.82,3.93,5,8.37,5.55,3.23.4,7.36-.81,9.27-3.73C293.7,313.76,293.6,312.35,293.7,305Z"/><ellipse class="cls-47" cx="557.46" cy="132.57" rx="8.77" ry="8.78"/><ellipse class="cls-47" cx="586.09" cy="132.57" rx="8.77" ry="8.78"/><line class="cls-47" x1="541.24" y1="132.06" x2="548.69" y2="132.06"/><line class="cls-47" x1="566.63" y1="132.06" x2="577.32" y2="132.06"/><line class="cls-47" x1="594.35" y1="132.06" x2="600.8" y2="132.06"/><path class="cls-48" d="M151.38,357.75a29.43,29.43,0,0,0,7.36,3.73,22.62,22.62,0,0,0,12.9.91,19.59,19.59,0,0,0,6.45-2.82"/><path class="cls-48" d="M485.8,355.93a29.43,29.43,0,0,1-7.36,3.73,22.62,22.62,0,0,1-12.9.91,19.59,19.59,0,0,1-6.45-2.82"/><path class="cls-48" d="M47.87,154.26A29.43,29.43,0,0,0,55.23,158a22.62,22.62,0,0,0,12.9.91,19.59,19.59,0,0,0,6.45-2.82"/><path class="cls-26" d="M42.33,133.07c-.1.2.81,1.61,2.42,2.42a7.25,7.25,0,0,0,6.45,0c1.61-.81,2.52-2.22,2.42-2.42s-1.21,1-3.23,1.61a9,9,0,0,1-4.84,0C43.54,134.08,42.43,132.87,42.33,133.07Z"/><path class="cls-26" d="M70.45,133.07c-.1.2.81,1.61,2.42,2.42a7.25,7.25,0,0,0,6.45,0c1.61-.81,2.52-2.22,2.42-2.42s-1.21,1-3.23,1.61a9,9,0,0,1-4.84,0C71.76,134.08,70.65,132.87,70.45,133.07Z"/><path class="cls-26" d="M502.43,237.59c-.1.2.81,1.61,2.42,2.42a7.25,7.25,0,0,0,6.45,0c1.61-.81,2.52-2.22,2.42-2.42s-1.21,1-3.23,1.61a9,9,0,0,1-4.84,0C503.64,238.6,502.53,237.39,502.43,237.59Z"/><path class="cls-26" d="M530.55,237.59c-.1.2.81,1.61,2.42,2.42a7.25,7.25,0,0,0,6.45,0c1.61-.81,2.52-2.22,2.42-2.42s-1.21,1-3.23,1.61a9,9,0,0,1-4.84,0C531.86,238.6,530.75,237.39,530.55,237.59Z"/><rect class="cls-49" x="161.46" y="456.62" width="345.3" height="40.76"/><g class="cls-50"><text class="cls-51" transform="translate(184.1 473.46)">Glades</text><text class="cls-52" transform="translate(249.95 473.46)">k</text><text class="cls-51" transform="translate(259.35 473.46)">olen - 8.B - </text><text class="cls-52" transform="translate(365.16 473.46)">2</text><text class="cls-53" transform="translate(377.7 473.46)">0</text><text class="cls-54" transform="translate(388.51 473.46)">1</text><text class="cls-51" transform="translate(399.04 473.46)">7/</text><text class="cls-52" transform="translate(425.83 473.46)">2</text><text class="cls-53" transform="translate(438.38 473.46)">0</text><text class="cls-55" transform="translate(449.18 473.46)">1</text><text class="cls-51" transform="translate(459.42 473.46)">8</text></g></g></g></svg>
