<svg xmlns="http://www.w3.org/2000/svg" viewBox="0 0 639.8 569"><defs><style>.cls-1{fill:#202532;}.cls-2{fill:#89cce5;}.cls-3{fill:#e9eced;}.cls-4{fill:#4681b7;}.cls-5{fill:#b8d1d5;}.cls-6{fill:#fdfcfd;}.cls-7{fill:#569bc5;}.cls-21,.cls-8{fill:none;}.cls-28,.cls-8{stroke:#fff;}.cls-21,.cls-28,.cls-8{stroke-miterlimit:10;}.cls-8{stroke-width:10px;}.cls-9{fill:#e5b090;}.cls-10{fill:#eaac41;}.cls-11{fill:#c07d08;}.cls-12{fill:#fecda4;}.cls-13{fill:#333;}.cls-14{fill:#962d69;}.cls-15{fill:#72263c;}.cls-16,.cls-28{fill:#fff;}.cls-17{fill:#edb143;}.cls-18{fill:#a92d2b;}.cls-19{fill:#7c1f15;}.cls-20{fill:#952819;}.cls-21{stroke:#152230;}.cls-22{fill:#152230;}.cls-23{fill:#33100a;}.cls-24{fill:#000100;}.cls-25{fill:#9ed1ff;}.cls-26{fill:#006d8c;}.cls-27{fill:#004365;}</style></defs><title>rejse_insta</title><g id="Layer_2" data-name="Layer 2"><g id="Layer_1-2" data-name="Layer 1"><path class="cls-1" d="M12.5,566A9.56,9.56,0,0,1,3,556.5V12.5A9.56,9.56,0,0,1,12.5,3H627.3a9.56,9.56,0,0,1,9.5,9.5v544a9.56,9.56,0,0,1-9.5,9.5Z"/><rect class="cls-2" x="3" y="3" width="633.8" height="419.65" rx="12" ry="12"/><rect class="cls-3" x="3" y="390.5" width="633.8" height="175.5" rx="12" ry="12"/><path class="cls-4" d="M271.64,111.22c.84-3.63,9.08-5.72,15.92-4.41,4.42.85,7.13,2.9,10.31,5.05,7.55,5.12,23.4,15.88,41.13,19,4.49.78,6.17.56,6.7,1.8,2.66,6.25-30.73,32.48-44.61,24.39-2.09-1.22-1.13-1.7-6.53-10.29-10.29-16.37-15.43-24.55-20.65-30.6C272.8,114.83,271.22,113.06,271.64,111.22Z"/><path class="cls-5" d="M287.63,156.52c-.12,1.48,12.33,3.81,18.88,4.76,29.79,4.28,58.75-2.72,63.3-3.85,33.78-8.44,53.43-14.85,88.8-25.32,53-15.69,79.55-23.53,83.29-24,4.91-.65,15.32-3.92,36.14-10.46,5.74-1.8,14.93-4.82,21.1-13.39,1.09-1.52,5.43-7.55,3.7-10-3.39-4.72-27.59,7.48-38.37,12.54-42.31,19.86-83.5,26.16-165.41,38.69-21.82,3.34-36.47,4.76-55,11.69,0,0-23.3,8.73-41.1,14.61-4.84,1.6-7.25,2.4-9,2.85C289.55,155.81,287.68,155.95,287.63,156.52Z"/><path class="cls-6" d="M287.13,156.34c-.07-.23,8.78-2.77,20.32-7.76a200.26,200.26,0,0,0,19.6-9.78c21-11.71,72.28-25.41,119.7-41.58,2.06-.7,73.2-25,103.46-29.93a98.31,98.31,0,0,1,25.86-.74c2.26.24,12.75,1.44,20.32,4.71l7,3s-33.05,16.08-65,27.3c-44.4,15.57-47.66,8.06-84,21.43A161.17,161.17,0,0,1,413,131.29c-4,.23-13.49.79-18-1.33a7.62,7.62,0,0,0-3.73-.93s-1.26,0-5.46,1.86c0,0,.94,1.39,1.6,2.26a11.11,11.11,0,0,0,3.06,3.19,6.78,6.78,0,0,0,3.2.87c5.23.3,23.76-2.12,23.82-1.93s-18.05,5.78-28,9.05a321.1,321.1,0,0,1-57.6,12.3c-.66.07-1.66.13-1.89-.32-.34-.67,1.16-2.05,1.71-2.56,9.36-8.71,14.33-13.33,13.86-14.34-.69-1.5-14.1,3.55-30.75,8.92,0,0-7.27,2.64-25,7.42A15.28,15.28,0,0,1,287.13,156.34Z"/><path class="cls-7" d="M362.65,134.83a2.33,2.33,0,0,0-2.69.51c-.73.81-.46,2-.13,3.45.28,1.23.45,2,1.15,2.43a2.46,2.46,0,0,0,3.07-.38c.37-.5.17-1.4-.26-3.2S363.21,135.15,362.65,134.83Z"/><path class="cls-7" d="M368.8,132.85a2.33,2.33,0,0,0-2.69.51c-.73.81-.46,2-.13,3.45.28,1.23.45,2,1.15,2.43a2.46,2.46,0,0,0,3.07-.38c.37-.5.17-1.4-.26-3.2S369.35,133.17,368.8,132.85Z"/><path class="cls-7" d="M375.05,130.93a2.33,2.33,0,0,0-2.69.51c-.73.81-.46,2-.13,3.45.28,1.23.45,2,1.15,2.43a2.46,2.46,0,0,0,3.07-.38c.37-.5.17-1.4-.26-3.2S375.61,131.25,375.05,130.93Z"/><path class="cls-7" d="M380.74,129.36a2.33,2.33,0,0,0-2.69.51c-.73.81-.46,2-.13,3.45.28,1.23.45,2,1.15,2.43a2.46,2.46,0,0,0,3.07-.38c.37-.5.17-1.4-.26-3.2S381.29,129.68,380.74,129.36Z"/><path class="cls-7" d="M415,119.31a2.33,2.33,0,0,0-2.69.51c-.73.81-.46,2-.13,3.45.28,1.23.45,2,1.15,2.43a2.46,2.46,0,0,0,3.07-.38c.37-.5.17-1.4-.26-3.2S415.56,119.62,415,119.31Z"/><path class="cls-7" d="M421.06,117.39a2.33,2.33,0,0,0-2.69.51c-.73.81-.46,2-.13,3.45.28,1.23.45,2,1.15,2.43a2.46,2.46,0,0,0,3.07-.38c.37-.5.17-1.4-.26-3.2S421.61,117.71,421.06,117.39Z"/><path class="cls-7" d="M427.11,115.47a2.33,2.33,0,0,0-2.69.51c-.73.81-.46,2-.13,3.45.28,1.23.45,2,1.15,2.43a2.46,2.46,0,0,0,3.07-.38c.37-.5.17-1.4-.26-3.2S427.66,115.79,427.11,115.47Z"/><path class="cls-7" d="M433.15,113.9a2.33,2.33,0,0,0-2.69.51c-.73.81-.46,2-.13,3.45.28,1.23.45,2,1.15,2.43a2.46,2.46,0,0,0,3.07-.38c.37-.5.17-1.4-.26-3.2S433.7,114.21,433.15,113.9Z"/><path class="cls-7" d="M439.21,112a2.33,2.33,0,0,0-2.69.51c-.73.81-.46,2-.13,3.45.28,1.23.45,2,1.15,2.43a2.46,2.46,0,0,0,3.07-.38c.37-.5.17-1.4-.26-3.2S439.76,112.29,439.21,112Z"/><path class="cls-7" d="M445.21,110a2.33,2.33,0,0,0-2.69.51c-.73.81-.46,2-.13,3.45.28,1.23.45,2,1.15,2.43a2.46,2.46,0,0,0,3.07-.38c.37-.5.17-1.4-.26-3.2S445.76,110.35,445.21,110Z"/><path class="cls-7" d="M451.21,108.49a2.33,2.33,0,0,0-2.69.51c-.73.81-.46,2-.13,3.45.28,1.23.45,2,1.15,2.43a2.46,2.46,0,0,0,3.07-.38c.37-.5.17-1.4-.26-3.2S451.76,108.8,451.21,108.49Z"/><path class="cls-7" d="M457.27,106.54a2.33,2.33,0,0,0-2.69.51c-.73.81-.46,2-.13,3.45.28,1.23.45,2,1.15,2.43a2.46,2.46,0,0,0,3.07-.38c.37-.5.17-1.4-.26-3.2S457.82,106.86,457.27,106.54Z"/><path class="cls-7" d="M463.36,104.6a2.33,2.33,0,0,0-2.69.51c-.73.81-.46,2-.13,3.45.28,1.23.45,2,1.15,2.43a2.46,2.46,0,0,0,3.07-.38c.37-.5.17-1.4-.26-3.2S463.92,104.91,463.36,104.6Z"/><path class="cls-7" d="M474.58,101.3a4.7,4.7,0,0,0-5.2.94c-1.41,1.48-.9,3.61-.25,6.32.54,2.25.87,3.62,2.23,4.45,1.83,1.11,4.76.79,5.94-.7.72-.91.32-2.57-.49-5.85C476.05,103.41,475.65,101.87,474.58,101.3Z"/><path class="cls-7" d="M481.77,99.06a2.33,2.33,0,0,0-2.69.51c-.73.81-.46,2-.13,3.45.28,1.23.45,2,1.15,2.43a2.46,2.46,0,0,0,3.07-.38c.37-.5.17-1.4-.26-3.2S482.32,99.37,481.77,99.06Z"/><path class="cls-7" d="M487.86,97.22a2.33,2.33,0,0,0-2.69.51c-.73.81-.46,2-.13,3.45.28,1.23.45,2,1.15,2.43a2.46,2.46,0,0,0,3.07-.38c.37-.5.17-1.4-.26-3.2S488.41,97.54,487.86,97.22Z"/><path class="cls-7" d="M494,95.56a2.33,2.33,0,0,0-2.69.51c-.73.81-.46,2-.13,3.45.28,1.23.45,2,1.15,2.43a2.46,2.46,0,0,0,3.07-.38c.37-.5.17-1.4-.26-3.2S494.54,95.88,494,95.56Z"/><path class="cls-7" d="M500.11,93.73a2.33,2.33,0,0,0-2.69.51c-.73.81-.46,2-.13,3.45.28,1.23.45,2,1.15,2.43a2.46,2.46,0,0,0,3.07-.38c.37-.5.17-1.4-.26-3.2S500.66,94,500.11,93.73Z"/><path class="cls-7" d="M506.17,91.69a2.33,2.33,0,0,0-2.69.51c-.73.81-.46,2-.13,3.45.28,1.23.45,2,1.15,2.43a2.46,2.46,0,0,0,3.07-.38c.37-.5.17-1.4-.26-3.2S506.73,92,506.17,91.69Z"/><path class="cls-7" d="M512.33,89.86a2.33,2.33,0,0,0-2.69.51c-.73.81-.46,2-.13,3.45.28,1.23.45,2,1.15,2.43a2.46,2.46,0,0,0,3.07-.38c.37-.5.17-1.4-.26-3.2S512.88,90.17,512.33,89.86Z"/><path class="cls-7" d="M518.35,88.2a2.33,2.33,0,0,0-2.69.51c-.73.81-.46,2-.13,3.45.28,1.23.45,2,1.15,2.43a2.46,2.46,0,0,0,3.07-.38c.37-.5.17-1.4-.26-3.2S518.9,88.51,518.35,88.2Z"/><path class="cls-7" d="M524.33,86.36a2.33,2.33,0,0,0-2.69.51c-.73.81-.46,2-.13,3.45.28,1.23.45,2,1.15,2.43a2.46,2.46,0,0,0,3.07-.38c.37-.5.17-1.4-.26-3.2S524.89,86.68,524.33,86.36Z"/><path class="cls-7" d="M530.38,84.71a2.33,2.33,0,0,0-2.69.51c-.73.81-.46,2-.13,3.45.28,1.23.45,2,1.15,2.43a2.46,2.46,0,0,0,3.07-.38c.37-.5.17-1.4-.26-3.2S530.93,85,530.38,84.71Z"/><path class="cls-7" d="M540.87,81.13a4.7,4.7,0,0,0-5.2.94c-1.41,1.48-.9,3.61-.25,6.32.54,2.25.87,3.62,2.23,4.45,1.83,1.11,4.76.79,5.94-.7.72-.91.32-2.57-.49-5.85C542.34,83.24,541.94,81.7,540.87,81.13Z"/><path class="cls-7" d="M569.91,70.36a13.47,13.47,0,0,0-6.29,1.32h0s1,4.09,3.39,5.22c1,.47,2.16.2,4.47-.33,2.69-.62,4.88-1.12,5.05-2.24.2-1.32-2.54-2.89-4.39-3.51A9.19,9.19,0,0,0,569.91,70.36Z"/><path class="cls-7" d="M574.05,69.12c0,.15,0,.48,1.74,1.74s2.78,2,3.81,2.32,1.76.16,6.62-1.32c4.62-1.41,5.17-1.67,5.16-2,0-.64-2.08-1.06-6-1.85a23.19,23.19,0,0,0-5.54-.74C577.47,67.34,574.16,68,574.05,69.12Z"/><rect class="cls-8" x="8.54" y="8.25" width="151.17" height="382.25" rx="12" ry="12"/><rect class="cls-8" x="165.9" y="8.25" width="151.17" height="382.25" rx="12" ry="12"/><rect class="cls-8" x="323.27" y="8.25" width="151.17" height="382.25" rx="12" ry="12"/><rect class="cls-8" x="480.64" y="8.25" width="151.17" height="382.25" rx="12" ry="12"/><path class="cls-9" d="M333.09,434.31c-4,4.6,4.6,62.9,4.6,62.9l-1.4,17.2s37.1,5.4,40.2-4.6-30.9-7.2-28-15.5,1.9-54.6,1.9-54.6,2.6-44.3,5.5-60.1-4.6-47.5-4.4-50.6c.2-2.8,2.3-31.8,2.3-31.8s9.8,26.6,6.7,29.8,6.2,43.4,6.2,43.4-6.5,45,8.2,32.9-.6-34.1-.6-34.1c2.8-20.1-4.6-35.9-6.9-63.9-3-36-13.8-37.1-13.8-37.1a108,108,0,0,0-44.9,0c-16.17,3.55-15.36,7.54-34.45,12.3-22.36,5.58-44.71,5.39-46.46,13.61-.47,2.21.56,5-1.41,8.45-2.28,4-6.25,5-6.1,5.63.22,1,9.55.41,51.15-7L311,292.81l3.6,36.4-4.4,42.3,1.4,55.3c-3.4,6.8,6.1,68.1,2.1,70.4-8.1,4.5-30.9,8-25.9,15.8s38.1,2,38.3,1.4a62.54,62.54,0,0,0,0-15.7c-1.1-8.3,4.3-59.6,3.1-61.9s2.7-56.6,2.7-56.6S337.09,429.71,333.09,434.31Z"/><path class="cls-10" d="M434.87,168.28a46.35,46.35,0,0,0-15.1,5c-10.3,5.9-14.7,16-16.5,20.2-4.3,10.3-1.4,12.9-2.8,39.4-.8,17.2-2.4,23.5,0,35.8,1.5,7.4,3.7,13.3,8.3,18.3,4.1,4.5,8.5,6.6,11.9,8.3,4.5,2.1,25.5,11.1,42.2.9A41.44,41.44,0,0,0,473,287a43.54,43.54,0,0,0,7.3-13.8c3.6-10.6,2.1-17.6,1.8-35.8-.3-23.2,1.9-25.4-.9-36.7-1.8-7-3.7-14.3-10.1-21.1-9.4-10-21.6-11.6-23.8-11.9A47.53,47.53,0,0,0,434.87,168.28Z"/><path class="cls-11" d="M436,198.18a38,38,0,0,0-12.1,3.9c-8.3,4.6-11.8,12.3-13.2,15.6-3.5,7.9-1.2,9.9-2.2,30.4-.7,13.3-1.9,18.1,0,27.6,1.2,5.7,2.9,10.2,6.6,14.1a28.54,28.54,0,0,0,9.6,6.4c3.6,1.6,20.5,8.6,33.8.7a30.88,30.88,0,0,0,8.1-7.1,35,35,0,0,0,5.9-10.6c2.9-8.2,1.7-13.6,1.5-27.6-.3-17.9,1.5-19.6-.7-28.3-1.4-5.4-3-11-8.1-16.3a32.85,32.85,0,0,0-19.1-9.2A41.06,41.06,0,0,0,436,198.18Z"/><path class="cls-12" d="M415.17,192.58a24.76,24.76,0,0,0-2.3,3.2c-3.7,6.1-1.8,17-1.4,29.8.4,10-.5,9.7.5,13.3,3,11,12,16.9,12.8,17.4,9.2,5.8,21.8,6.5,31.6.5.6-.4,9.8-6.3,12.8-17.4.5-1.9.6-3.2.9-8.3,1.5-26.8.4-30.3-.9-33a28.81,28.81,0,0,0-10.1-11c-15.1-10.1-33.3-2.7-37.6,0A31.72,31.72,0,0,0,415.17,192.58Z"/><path class="cls-13" d="M418.77,214.58c-.1-.2,1-1.8,2.8-2.8a7.85,7.85,0,0,1,7.3,0c1.8,1,2.9,2.6,2.8,2.8s-1.4-1.2-3.7-1.8a10.4,10.4,0,0,0-5.5,0C420.17,213.38,419,214.78,418.77,214.58Z"/><path class="cls-13" d="M450.87,214.58c-.1-.2,1-1.8,2.8-2.8a7.85,7.85,0,0,1,7.3,0c1.8,1,2.9,2.6,2.8,2.8s-1.4-1.2-3.7-1.8a10.4,10.4,0,0,0-5.5,0C452.27,213.38,451,214.78,450.87,214.58Z"/><circle class="cls-13" cx="426.57" cy="221.48" r="3.2"/><circle class="cls-13" cx="455.87" cy="221.48" r="3.2"/><path class="cls-14" d="M425.17,233.88s1.9,3.2,2.8,4.6a19.92,19.92,0,0,0,6.4,6.4,15.25,15.25,0,0,0,13.8,0,16.47,16.47,0,0,0,5.5-4.6,37.84,37.84,0,0,0,3.7-6.4h-32.2Z"/><path class="cls-15" d="M430.67,241.18c.1-.7.8-1.1,1.8-1.8a10.89,10.89,0,0,1,5.5-1.8c2.1-.2,7.9-.6,12.8,2.8.4.3.8.5.9.9.4,1.8-5.3,5.6-11,5.5C435.57,246.58,430.47,243.18,430.67,241.18Z"/><path class="cls-16" d="M428.87,236.58h24.8v-2.8h-24.8Z"/><path class="cls-12" d="M435.27,260.38c-.8.8-.4,2.2.5,5.8,1.8,7.4,1.7,8.3,3.2,12.7,1.9,5.4,2.5,5.5,2.8,5.5.6-.1.9-1.4,1.8-5.5s1.7-8.2,2.8-12.2,1.8-5.4.9-6.2-2.3.1-6.4,0C437.27,260.28,436.17,259.58,435.27,260.38Z"/><path class="cls-17" d="M406.87,187.08c-.1,3.7,5.4,6.6,9.6,8.7,11.3,5.6,17,8.4,26.6,10.1,12.4,2.2,35.6,4,38-3.2a6.05,6.05,0,0,0,0-2.8c-1.7-11.4-9.3-19.4-10.1-20.2a40.17,40.17,0,0,0-20.2-11s-18.2-4.2-33.9,6.4a34.78,34.78,0,0,0-8.3,8.3C407.17,185.48,406.87,186.28,406.87,187.08Z"/><path class="cls-12" d="M448.65,268.55l7.5,4.1c16.2,2.1,20.7,36.5,20.7,36.5s10.1-24.8,7.9-29.2,3.1-11.3,3.1-11.3.3-9.1,1.6-8.1,1.9,8.4,1.9,8.4,2.5-10.1,4.9-8.2-2,10.1-2,10.1c6,9.1-3.1,11.6-3.1,11.6,2.2,19.1-10.3,50.2-14.1,50.9s-12.9-28.9-12.9-28.9-14.4,29.2-6.9,33,22.3,28.6,22.3,28.6l-15.7,140.5V533h-12.9l-.6-9.7,2.2-15.7v-72.1l-7.9-51.5c-.6,1.6-22.6,43.4-20.4,52.5,3.9,15.9-24.5,69.5-23,71.7s1.6,18.8,1.6,18.8l-33.5,6.1.3-11.9,14.1-3.8,6-9.4,30.2-152.7s-3.2,4-5.8,5.6-8.2-1.1-8.2-1.1c0-.8,5.1-.6,4.9-2.4-.6-6,7.1-8.6,3.8-10.8s-26.2-36.3-26.2-36.3l29.6-35.7,15.3-5.5Z"/><path class="cls-2" d="M422,301.09c-1.17-.84-6,2.26-15.71,8.49l-.16.1.1.2c10,20.51,11,21.06,11.47,21,1.51-.33-.3-6.65,1.83-17.37C421,305.81,423.33,302.08,422,301.09Z"/><path class="cls-18" d="M119.62,169.51a46.35,46.35,0,0,1,15.1,5c10.3,5.9,14.7,16,16.5,20.2,4.3,10.3,1.4,12.9,2.8,39.4.8,17.2,2.4,23.5,0,35.8-1.5,7.4-3.7,13.3-8.3,18.3-4.1,4.5-8.5,6.6-11.9,8.3-4.5,2.1-25.5,11.1-42.2.9a41.44,41.44,0,0,1-10.1-9.2,43.54,43.54,0,0,1-7.3-13.8c-3.6-10.6-2.1-17.6-1.8-35.8.3-23.2-1.9-25.4.9-36.7,1.8-7,3.7-14.3,10.1-21.1,9.4-10,21.6-11.6,23.8-11.9A47.85,47.85,0,0,1,119.62,169.51Z"/><path class="cls-19" d="M118.52,199.41a38,38,0,0,1,12.1,3.9c8.3,4.6,11.8,12.3,13.2,15.6,3.5,7.9,1.2,9.9,2.2,30.4.7,13.3,1.9,18.1,0,27.6-1.2,5.7-2.9,10.2-6.6,14.1a28.54,28.54,0,0,1-9.6,6.4c-3.6,1.6-20.5,8.6-33.8.7a30.88,30.88,0,0,1-8.1-7.1,35,35,0,0,1-5.9-10.6c-2.9-8.2-1.7-13.6-1.5-27.6.3-17.9-1.5-19.6.7-28.3,1.4-5.4,3-11,8.1-16.3a32.85,32.85,0,0,1,19.1-9.2A36.82,36.82,0,0,1,118.52,199.41Z"/><path class="cls-12" d="M87.82,193.81a24.76,24.76,0,0,0-2.3,3.2c-3.7,6.1-1.8,17-1.4,29.8.4,10-.5,9.7.5,13.3,3,11,12,16.9,12.8,17.4,9.2,5.8,21.8,6.5,31.6.5.6-.4,9.8-6.3,12.8-17.4.5-1.9.6-3.2.9-8.3,1.5-26.8.4-30.3-.9-33a28.81,28.81,0,0,0-10.1-11c-15.1-10.1-33.3-2.7-37.6,0A31.72,31.72,0,0,0,87.82,193.81Z"/><path class="cls-13" d="M91.52,215.81c-.1-.2,1-1.8,2.8-2.8a7.85,7.85,0,0,1,7.3,0c1.8,1,2.9,2.6,2.8,2.8s-1.4-1.2-3.7-1.8a10.4,10.4,0,0,0-5.5,0C92.92,214.61,91.62,216,91.52,215.81Z"/><path class="cls-13" d="M123.62,215.81c-.1-.2,1-1.8,2.8-2.8a7.85,7.85,0,0,1,7.3,0c1.8,1,2.9,2.6,2.8,2.8s-1.4-1.2-3.7-1.8a10.4,10.4,0,0,0-5.5,0C125,214.61,123.72,216,123.62,215.81Z"/><circle class="cls-13" cx="99.32" cy="222.71" r="3.2"/><circle class="cls-13" cx="128.62" cy="222.71" r="3.2"/><path class="cls-14" d="M97.92,235s1.9,3.2,2.8,4.6a19.92,19.92,0,0,0,6.4,6.4,15.25,15.25,0,0,0,13.8,0,16.47,16.47,0,0,0,5.5-4.6,37.84,37.84,0,0,0,3.7-6.4H97.92Z"/><path class="cls-15" d="M103.42,242.41c.1-.7.8-1.1,1.8-1.8a10.89,10.89,0,0,1,5.5-1.8c2.1-.2,7.9-.6,12.8,2.8.4.3.8.5.9.9.4,1.8-5.3,5.6-11,5.5C108.32,247.81,103.22,244.41,103.42,242.41Z"/><path class="cls-16" d="M101.62,237.81h24.8V235h-24.8Z"/><path class="cls-12" d="M108,261.51c-.8.8-.4,2.2.5,5.8,1.8,7.4,1.7,8.3,3.2,12.7,1.9,5.4,2.5,5.5,2.8,5.5.6-.1.9-1.4,1.8-5.5s1.7-8.2,2.8-12.2,1.8-5.4.9-6.2-2.3.1-6.4,0C110,261.51,108.82,260.81,108,261.51Z"/><path class="cls-20" d="M147.62,188.31c.1,3.7-5.4,6.6-9.6,8.7-11.3,5.6-17,8.4-26.6,10.1-12.4,2.2-35.6,4-38-3.2a6.06,6.06,0,0,1,0-2.8c1.7-11.4,9.3-19.4,10.1-20.2a40.17,40.17,0,0,1,20.2-11s18.2-4.2,33.9,6.4a34.78,34.78,0,0,1,8.3,8.3C147.32,186.71,147.62,187.51,147.62,188.31Z"/><polyline class="cls-21" points="84.62 194.21 88.32 194.21 142.42 194.21"/><path class="cls-22" d="M89.72,191h21.1v1.8a12.11,12.11,0,0,1-2.8,6.4c-1.4,1.8-3.9,5-8.3,5.5-3.2.4-7.3-.8-9.2-3.7C89.72,199.71,89.72,198.31,89.72,191Z"/><path class="cls-22" d="M138.32,191h-21.1v1.8a12.11,12.11,0,0,0,2.8,6.4c1.4,1.8,3.9,5,8.3,5.5,3.2.4,7.3-.8,9.2-3.7C138.32,199.71,138.22,198.31,138.32,191Z"/><path class="cls-12" d="M121.14,269.05l15.3,5.5,29.6,35.7s-22.9,34.1-26.2,36.3,4.4,4.8,3.8,10.8c-.2,1.8,4.9,1.6,4.9,2.4,0,0-5.6,2.7-8.2,1.1s-5.8-5.6-5.8-5.6L164.74,508l6,9.4,14.1,3.8.3,11.9-33.5-6.1s.1-16.6,1.6-18.8-26.9-55.8-23-71.7c2.2-9.1-19.8-50.9-20.4-52.5l-7.9,51.5v72.1l2.2,15.7-.6,9.7H90.64v-26.4l-15.7-140.5s14.8-24.8,22.3-28.6-6.9-33-6.9-33-9.1,29.6-12.9,28.9-16.3-31.8-14.1-50.9c0,0-9.1-2.5-3.1-11.6,0,0-4.4-8.2-2-10.1s4.9,8.2,4.9,8.2.6-7.4,1.9-8.4,1.6,8.1,1.6,8.1,5.3,6.9,3.1,11.3,7.9,29.2,7.9,29.2,4.5-34.4,20.7-36.5l7.5-4.1Z"/><path class="cls-2" d="M133.22,300.09c1.17-.84,6,2.26,15.71,8.49l.16.1-.1.2c-10,20.51-11,21.06-11.47,21-1.51-.33.3-6.65-1.83-17.37C134.16,304.81,131.85,301.08,133.22,300.09Z"/><path class="cls-12" d="M185.1,187.4a24.76,24.76,0,0,0-2.3,3.2c-3.7,6.1-1.8,17-1.4,29.8.4,10-.5,9.7.5,13.3,3,11,12,16.9,12.8,17.4,9.2,5.8,21.8,6.5,31.6.5.6-.4,9.8-6.3,12.8-17.4.5-1.9.6-3.2.9-8.3,1.5-26.8.4-30.3-.9-33a28.81,28.81,0,0,0-10.1-11c-15.1-10.1-33.3-2.7-37.6,0A31.72,31.72,0,0,0,185.1,187.4Z"/><path class="cls-13" d="M188.8,209.4c-.1-.2,1-1.8,2.8-2.8a7.85,7.85,0,0,1,7.3,0c1.8,1,2.9,2.6,2.8,2.8s-1.4-1.2-3.7-1.8a10.4,10.4,0,0,0-5.5,0C190.2,208.2,188.9,209.6,188.8,209.4Z"/><circle class="cls-13" cx="196.6" cy="216.3" r="3.2"/><circle class="cls-13" cx="225.9" cy="216.3" r="3.2"/><path class="cls-14" d="M195.2,228.7s1.9,3.2,2.8,4.6a19.92,19.92,0,0,0,6.4,6.4,15.25,15.25,0,0,0,13.8,0,16.47,16.47,0,0,0,5.5-4.6,37.84,37.84,0,0,0,3.7-6.4H195.2Z"/><path class="cls-15" d="M200.7,236c.1-.7.8-1.1,1.8-1.8a10.89,10.89,0,0,1,5.5-1.8c2.1-.2,7.9-.6,12.8,2.8.4.3.8.5.9.9.4,1.8-5.3,5.6-11,5.5C205.6,241.4,200.4,238,200.7,236Z"/><path class="cls-16" d="M198.9,231.4h24.8v-2.8H198.9Z"/><path class="cls-12" d="M205.3,255.2c-.8.8-.4,2.2.5,5.8,1.8,7.4,1.7,8.3,3.2,12.7,1.9,5.4,2.5,5.5,2.8,5.5.6-.1.9-1.4,1.8-5.5s1.7-8.2,2.8-12.2,1.8-5.4.9-6.2-2.3.1-6.4,0C207.3,255.1,206.1,254.4,205.3,255.2Z"/><path class="cls-10" d="M248.4,215.8h0a108.15,108.15,0,0,0-1.4-17.9c-.8-4.2-2.1-11.3-7.3-18.3a36.94,36.94,0,0,0-18.8-13.3,29.6,29.6,0,0,0-15.6-.9c-8.4,2-13.3,7.5-16.5,11s-5.8,6.5-6.4,11c-.8,5.6,2,10.1,3.7,12.8,5.9,9.6,15.8,13,18.3,13.8,4,1.2,3.4.3,22.9.9C227.4,214.9,230.4,215,248.4,215.8Z"/><path class="cls-11" d="M181.5,228.7s-.4-2.5-1-7.2c-1.1-8-1.7-12-1.7-12-.3-2.1-.5-4.3-.9-6.4-.6-3.4-1.2-5.3-.9-8.3a8.85,8.85,0,0,1,.9-3.7c1.3-2.5,4-4.1,4.6-3.7.2.2.1.6,0,.9-.5,1.9,0,2.8,0,7.3,0,5.8-.8,12.2-.9,22.9C181.5,222.2,181.5,228.7,181.5,228.7Z"/><path class="cls-12" d="M210.63,380.21s3.9,54.3,2.7,56.6,4.2,53.6,3.1,61.9a62.54,62.54,0,0,0,0,15.7c.2.6,33.3,6.4,38.3-1.4s-17.8-11.3-25.9-15.8c-4-2.3,5.5-63.6,2.1-70.4l1.4-55.3-4.4-42.3,3.6-36.4,7.8,34.3s3.1,36.7,5,43.2c1.4,4.9-2.4,19.4-2.4,19.4s5.5,15.5,10.9,13.8,4.3-26.8,4.3-26.8l-4.8-8.3s.2-40.6-3.8-42.6.5-57.1-14.7-57.6-44.9,0-44.9,0-10.8,1.1-13.8,37.1c-2.3,28-9.7,43.8-6.9,63.9,0,0-15.3,22-.6,34.1s8.2-32.9,8.2-32.9,9.3-40.2,6.2-43.4,6.7-29.8,6.7-29.8,2.1,29,2.3,31.8c.2,3.1-7.3,34.8-4.4,50.6s5.5,60.1,5.5,60.1-1,46.3,1.9,54.6-31.1,5.5-28,15.5,40.2,4.6,40.2,4.6l-1.4-17.2s8.6-58.3,4.6-62.9S210.63,380.21,210.63,380.21Z"/><path class="cls-9" d="M309,186.75a24.76,24.76,0,0,0-2.3,3.2c-3.7,6.1-1.8,17-1.4,29.8.4,10-.5,9.7.5,13.3,3,11,12,16.9,12.8,17.4,9.2,5.8,21.8,6.5,31.6.5.6-.4,9.8-6.3,12.8-17.4.5-1.9.6-3.2.9-8.3,1.5-26.8.4-30.3-.9-33a28.81,28.81,0,0,0-10.1-11c-15.1-10.1-33.3-2.7-37.6,0A31.72,31.72,0,0,0,309,186.75Z"/><path class="cls-13" d="M344.76,208.75c-.1-.2,1-1.8,2.8-2.8a7.85,7.85,0,0,1,7.3,0c1.8,1,2.9,2.6,2.8,2.8s-1.4-1.2-3.7-1.8a10.4,10.4,0,0,0-5.5,0C346.16,207.55,344.86,208.95,344.76,208.75Z"/><path class="cls-14" d="M319.06,228s1.9,3.2,2.8,4.6a19.92,19.92,0,0,0,6.4,6.4,15.25,15.25,0,0,0,13.8,0,16.47,16.47,0,0,0,5.5-4.6,37.84,37.84,0,0,0,3.7-6.4h-32.2Z"/><path class="cls-15" d="M324.56,235.35c.1-.7.8-1.1,1.8-1.8a10.89,10.89,0,0,1,5.5-1.8c2.1-.2,7.9-.6,12.8,2.8.4.3.8.5.9.9.4,1.8-5.3,5.6-11,5.5C329.46,240.75,324.26,237.35,324.56,235.35Z"/><path class="cls-16" d="M322.76,230.75h24.8v-2.8h-24.8Z"/><path class="cls-9" d="M329.16,254.55c-.8.8-.4,2.2.5,5.8,1.8,7.4,1.7,8.3,3.2,12.7,1.9,5.4,2.5,5.5,2.8,5.5.6-.1.9-1.4,1.8-5.5s1.7-8.2,2.8-12.2,1.8-5.4.9-6.2-2.3.1-6.4,0C331.16,254.45,330,253.75,329.16,254.55Z"/><path class="cls-23" d="M297.06,217.95h0a108.15,108.15,0,0,1,1.4-17.9c.8-4.2,2.1-11.3,7.3-18.3a36.94,36.94,0,0,1,18.8-13.3,29.6,29.6,0,0,1,15.6-.9c8.4,2,13.3,7.5,16.5,11s5.8,6.5,6.4,11c.8,5.6-2,10.1-3.7,12.8-5.9,9.6-15.8,13-18.3,13.8-4,1.2-3.4.3-22.9.9C318.16,217,315.06,217.15,297.06,217.95Z"/><path class="cls-24" d="M364,230.75s1-6.7,2.8-19.3c.5-3.7,1.4-5.4,1.8-9.2a23.42,23.42,0,0,0,0-5.5,10.06,10.06,0,0,0-.9-3.7c-1.3-2.5-4-4.1-4.6-3.7-.2.2-.1.6,0,.9.5,1.9,0,2.8,0,7.3,0,5.8.8,12.2.9,22.9C364,224.35,364,230.75,364,230.75Z"/><polyline class="cls-21" points="305.76 214.75 309.46 214.75 363.56 214.75"/><path class="cls-22" d="M310.86,211.55H332v1.8a12.11,12.11,0,0,1-2.8,6.4c-1.4,1.8-3.9,5-8.3,5.5-3.2.4-7.3-.8-9.2-3.7C310.76,220.15,310.86,218.85,310.86,211.55Z"/><path class="cls-22" d="M359.36,211.55h-21.1v1.8a12.11,12.11,0,0,0,2.8,6.4c1.4,1.8,3.9,5,8.3,5.5,3.2.4,7.3-.8,9.2-3.7C359.36,220.15,359.36,218.85,359.36,211.55Z"/><path d="M79.74,360.35c-.71-.39-3.16,2-4.39,4.7a12.77,12.77,0,0,0-.75,7.46c2,11.4,2.69,23,3.69,34.52.46,5.23,1.57,14.43,3.8,32.83,4.93,40.76,5.49,38.57,5.17,44.23-.67,12.07-3.09,19.77,1.48,23.44,3.7,3,10.39,2,14.25-.84,6.22-4.62,1.33-14.47-.21-38.85a281.15,281.15,0,0,1,.21-32.51c1-14.92,3.43-15.76,4.86-33.36.6-7.38.9-15.3,2.32-15.41.75-.06,1.44,2.31,2.43,5.07,2.23,6.24,2.31,4.26,7.71,16.26,1.5,3.33,3.39,8.24,7.18,18.05a40.18,40.18,0,0,1,1.48,4.86,17.39,17.39,0,0,1,.63,4.22,35,35,0,0,1-.53,3.91,18.17,18.17,0,0,0,.32,5,159.69,159.69,0,0,0,6.44,24.81c1.45,4,3,8.24,5.49,13.83,5.65,12.63,7.57,12.8,8.87,19.42.46,2.36.58,4.15,2.11,5.38,3.36,2.7,11.13.74,12.77-3.27.77-1.88-.16-3.34-1.58-7.92-1.24-4-1.79-8.17-2.74-12.25-2.11-9-2.4-13.07-4.54-24.6-1.8-9.68-1.88-8.34-5-23.33-2.6-12.63-2.08-11.33-6.23-32.41-.66-3.34-2.13-10.56-5.07-25-.6-2.94-.9-4.41-1-4.54-6.31-15.5-58.13-5.31-59.22-11.51C79.64,361.75,80.18,360.59,79.74,360.35Z"/><path class="cls-25" d="M474.95,360.39c.71-.39,3.16,2,4.39,4.7a12.77,12.77,0,0,1,.75,7.46c-2,11.4-2.69,23-3.69,34.52-.46,5.23-1.57,14.43-3.8,32.83-4.93,40.76-5.49,38.57-5.17,44.23.67,12.07,3.09,19.77-1.48,23.44-3.7,3-10.39,2-14.25-.84-6.22-4.62-1.33-14.47.21-38.85a281.15,281.15,0,0,0-.21-32.51c-1-14.92-3.43-15.76-4.86-33.36-.6-7.38-.9-15.3-2.32-15.41-.75-.06-1.44,2.31-2.43,5.07-2.23,6.24-2.31,4.26-7.71,16.26-1.5,3.33-3.39,8.24-7.18,18.05a40.19,40.19,0,0,0-1.48,4.86,17.39,17.39,0,0,0-.63,4.22,35,35,0,0,0,.53,3.91,18.17,18.17,0,0,1-.32,5,159.69,159.69,0,0,1-6.44,24.81c-1.45,4-3,8.24-5.49,13.83-5.65,12.63-7.57,12.8-8.87,19.42-.46,2.36-.58,4.15-2.11,5.38-3.36,2.7-11.13.74-12.77-3.27-.77-1.88.16-3.34,1.58-7.92,1.24-4,1.79-8.17,2.74-12.25,2.11-9,2.4-13.07,4.54-24.6,1.8-9.68,1.88-8.34,5-23.33,2.6-12.63,2.08-11.33,6.23-32.41.66-3.34,2.13-10.56,5.07-25,.6-2.94.9-4.41,1-4.54,6.31-15.5,58.13-5.31,59.22-11.51C475,361.79,474.51,360.63,474.95,360.39Z"/><path class="cls-1" d="M309.18,372.73c-.78,1.57-.3,1.65.25,12.5,1,20.22-.3,27.27.88,34.13a21.59,21.59,0,0,1,.25,6,21.34,21.34,0,0,1-1.25,5.38c-2,5.6,0,16.89,1.5,32.63,1.08,11.47,1.59,17.29.38,21.38-1.08,3.62-2.45,5.85-1.25,7.75,3,4.7,18,1.62,18,1.63s-.07-11.87.5-23.13c.72-14.19,2-18,1.88-31.63,0-2.71-.07-2.37-.13-5.75-.31-19.58,1.21-37,1.75-37,.39,0,.38,9.11.38,18.38,0,24.27-1.14,25.33-.75,41.63.25,10.15,1,24.7,1.25,28.51,0,.73.5,9.13.5,9.13s16.84,4.52,20.25-.5c1.09-1.6-.08-2.86-1-10.75,0,0-.22-1.88-.63-9.38A335.88,335.88,0,0,1,353.82,414c1.62-11.21,1.83-22.62,3.88-33.76.75-4.1,1.25-6.21.13-8.63C352.23,359.63,315.71,359.67,309.18,372.73Z"/><path class="cls-26" d="M233.52,374.83c.78,1.57.3,1.65-.25,12.5-1,20.22.3,27.27-.88,34.13a21.59,21.59,0,0,0-.25,6,21.34,21.34,0,0,0,1.25,5.38c2,5.6,0,16.89-1.5,32.63-1.08,11.47-1.59,17.29-.38,21.38,1.08,3.62,2.45,5.85,1.25,7.75-3,4.7-18,1.62-18,1.63s.07-11.87-.5-23.13c-.72-14.19-2-18-1.88-31.63,0-2.71.07-2.37.13-5.75.31-19.58-1.21-37-1.75-37-.39,0-.38,9.11-.38,18.38,0,24.27,1.14,25.33.75,41.63-.25,10.15-1,24.7-1.25,28.51,0,.73-.5,9.13-.5,9.13s-16.84,4.52-20.25-.5c-1.09-1.6.08-2.86,1-10.75,0,0,.22-1.88.63-9.38a335.88,335.88,0,0,0-1.88-59.64c-1.62-11.21-1.83-22.62-3.88-33.76-.75-4.1-1.25-6.21-.13-8.63C190.47,361.73,227,361.77,233.52,374.83Z"/><path class="cls-27" d="M323,270.83c.59,1.07,3.27,6,8.21,7.09s10.51-1.79,11.94-5.41a26.71,26.71,0,0,0,1-5.49s7.6-.33,12.77,2.53c3.5,1.94,5.18,4.94,6.89,8,2.71,4.84,2.14,7.06,4.48,16,2.89,11.12,4.67,12.5,3.36,15.49C369,315.21,358,317.45,356,314.87c-.74-.94.13-2,.37-5.23.42-5.55-1.5-10.78-2.24-10.72-1.14.09-1.33,12.63-.75,22.64a270.82,270.82,0,0,0,4.43,33c2.5,13.57,3.38,14.74,2.17,17.35-6.55,14.05-48,13.68-53.2,1.35-1.55-3.66,1.15-5.37,3.77-17.07,1.59-7.1,1.75-15.23,2-31.19.42-25.37-1.11-28.35-3.32-29.38-3.75-1.75-11.61,1.1-16.6,2.91-3.1,1.13-3.86,1.72-5.23,1.33-6.54-1.86-7.28-20.64-3.11-24.11.28-.24.6-.46.6-.46,1-.61,2.4-.54,7.19-1.88,6.85-1.91,6.56-2.69,12.07-4.24a86.6,86.6,0,0,1,16.59-2.75S322.39,269.79,323,270.83Z"/><path class="cls-27" d="M200.92,271.38c2.1,3,4.39,6.23,8.21,7.09,4.86,1.1,10.51-1.79,11.94-5.41a26.71,26.71,0,0,0,1-5.49h0a79.55,79.55,0,0,1,11.52.16,14.34,14.34,0,0,1,4,.62c3.07,1.43,4,4.95,5.4,9.92,1.57,5.47,2.36,8.21,6.89,27.76a5.75,5.75,0,0,1,.11,2.22,6.14,6.14,0,0,1-.4,1.39C246.95,315.76,236,318,234,315.42c-.74-.94.13-2,.37-5.23.42-5.55-1.5-10.78-2.24-10.72-1.14.09-1.33,12.63-.75,22.64a270.82,270.82,0,0,0,4.43,33c2.5,13.57,3.38,14.74,2.17,17.35-6.55,14.05-48,13.68-53.2,1.35a10.66,10.66,0,0,1-.43-1.59,25.42,25.42,0,0,1,1.12-14c2.63-7.79,3.14-18.66,3.79-32.67.58-12.41-.3-25.82-.3-25.82h0a40.47,40.47,0,0,0-4.08,12.54c-.49,3.64.06,4.72-.88,5.4-2.24,1.61-9.36-1.65-12-7.15-2.14-4.5,1-5.88,1.9-19.11.05-.76.77-5.46,2.19-14.88.21-1.4.69-4.3,2.88-5.77a8.42,8.42,0,0,1,3.16-1c6.82-1.51,6-1.4,6.81-1.53a60.8,60.8,0,0,1,9.79-.61h0A24.7,24.7,0,0,0,200.92,271.38Z"/><path class="cls-27" d="M430.89,274.21c5.73,4.81,5.78,6.54,8.21,7.09,4.86,1.1,10.51-1.79,11.94-5.41a26.71,26.71,0,0,0,1-5.49s7.6-.33,12.77,2.53c3.5,1.94,5.18,4.94,6.89,8,2.71,4.84,2.14,7.06,4.48,16,2.42,9.29,4.05,11.78,3.76,14.1a5.2,5.2,0,0,1-.4,1.39c-1.89,5.15-7.86,9.07-10.74,7.66-.46-.23-1.18-.76-2.82-7.71-1.37-5.84-1.46-8-1.9-8-.83,0-.81,7.6-2.84,20.5-1,6.09-1.51,7.91-.68,11,.76,2.84,2.51,5.47,6,10.72,2,3.08,3.79,5.4,4.17,5.91,5.83,7.77,7.75,8.5,8,10.86.56,5.29-8.14,10.28-10.9,11.86-22.84,13.1-51.24,7-53.2,1.35a14.93,14.93,0,0,1-.43-1.59c-.66-3.17.25-4.35.52-8.51.24-3.67-.32-4.81.79-6.41.35-.5.46-.47,1.82-2.06,1.84-2.15,2.27-2.95,2.54-2.85.74.28-1.44,6.37-.8,6.64s6.59-6.18,6-13.57c-.47-5.37-4.39-11.41-4.69-11.86a14.63,14.63,0,0,1-2.75-5.62c-.33-1.65-.16-2.67.3-6,1.31-9.67,1-9.32,1.66-12,.26-1,.72-2.74,1.62-6.29,1-3.89,1.23-5,.72-5.39s-1.85.35-5,2.87c-6.56,5.22-6.81,6.56-8.75,7.12-4.55,1.31-12.18-3.45-13.2-9-.87-4.77,3.88-5.57,15-21.22,2-2.83,3.78-5.52,7.31-7.19,3.93-1.86,9.85-2.39,9.85-2.39h0C428,271.9,429.34,272.91,430.89,274.21Z"/><path class="cls-27" d="M124.23,273.21c-5.73,4.81-5.78,6.54-8.21,7.09-4.86,1.1-10.51-1.79-11.94-5.41a26.71,26.71,0,0,1-1-5.49s-7.6-.33-12.77,2.53c-3.5,1.94-5.18,4.94-6.89,8-2.71,4.84-2.14,7.06-4.48,16-2.42,9.29-4.05,11.78-3.76,14.1a5.2,5.2,0,0,0,.4,1.39c1.89,5.15,7.86,9.07,10.74,7.66.46-.23,1.18-.76,2.82-7.71,1.37-5.84,1.46-8,1.9-8,.83,0,.81,7.6,2.84,20.5,1,6.09,1.51,7.91.68,11-.76,2.84-2.51,5.47-6,10.72-2,3.08-3.79,5.4-4.17,5.91-5.83,7.77-7.75,8.5-8,10.86-.56,5.29,8.14,10.28,10.9,11.86,22.84,13.1,51.24,7,53.2,1.35a14.93,14.93,0,0,0,.43-1.59,10.52,10.52,0,0,0,.23-2c.05-2.9-.62-3.79-.76-6.56-.16-3.07.72-3.44,0-4.71s-1.76-1.08-3.56-2.9c-1.53-1.54-1.91-2.81-2.24-2.7-.7.23,1,5.73.44,5.91s-5.77-6.37-4.95-13.84a29.75,29.75,0,0,1,4.69-11.86,14.63,14.63,0,0,0,2.75-5.62c.33-1.65.16-2.67-.3-6-1.31-9.67-1-9.32-1.66-12-.26-1-.72-2.74-1.62-6.29-1-3.89-1.23-5-.72-5.39s1.85.35,5,2.87c6.56,5.22,6.81,6.56,8.75,7.12,4.55,1.31,12.18-3.45,13.2-9,.87-4.77-3.88-5.57-15-21.22-2-2.83-3.78-5.52-7.31-7.19-3.93-1.86-9.85-2.39-9.85-2.39C127.11,270.9,125.78,271.91,124.23,273.21Z"/><path class="cls-16" d="M110.26,316.29c-1.05-1,.42-2.86-.47-4.92a4.63,4.63,0,0,0-3.89-2.65c-2.43-.1-4.49,2.13-4.95,4.42a5,5,0,0,0,1.24,4.59c1.92,1.62,4.65,0,5.79,1.49.64.85-.11,1.5.22,3.81a7.12,7.12,0,0,0,2,4.58,5.88,5.88,0,0,0,5.39,1.07,6.23,6.23,0,0,0,4.42-5.83,6,6,0,0,0-2-4.48,9.16,9.16,0,0,0-5.07-1.7C111.27,316.49,110.77,316.78,110.26,316.29Z"/><path class="cls-16" d="M110.78,303.66c0,2.13,2.72,2.55,7.66,6.77,4.39,3.75,5,5.78,7,5.56,2.38-.27,4.24-3.54,4.62-6.07a6.76,6.76,0,0,0-.34-3.54,5.37,5.37,0,0,0-2.4-3,5.47,5.47,0,0,0-4.51-.06c-1.71.77-2.1,2.14-2.8,1.94s-.28-2.15-1.6-3.88a4.69,4.69,0,0,0-3.31-1.83A4.62,4.62,0,0,0,110.78,303.66Z"/><path class="cls-27" d="M106,311.76a1.78,1.78,0,0,0-1.37.46,2.07,2.07,0,0,0-.29,2.34c0,.08.64,1.28,1.71,1.2a1.87,1.87,0,0,0,1.54-1.54A2.13,2.13,0,0,0,106,311.76Z"/><path class="cls-27" d="M112.28,320.56a2.57,2.57,0,0,0-.34,1.94,3.13,3.13,0,0,0,1.26,2.51,2.69,2.69,0,0,0,3.37-4.06C115.49,319.57,113.13,319.54,112.28,320.56Z"/><path class="cls-27" d="M113.59,303.42c0,.3.52.27,1.54.8,1.33.69,1.71,1.36,2,1.2s.18-1.32-.29-2.11a2,2,0,0,0-1.09-1C114.75,302,113.51,302.91,113.59,303.42Z"/><path class="cls-27" d="M120.85,308.62c.09.63.95.54,2.4,1.71,1.68,1.36,1.77,2.49,2.51,2.46,1,0,1.89-2.09,1.83-3.77a3,3,0,0,0-.8-2.17,2.86,2.86,0,0,0-1.94-.69C122.85,306.09,120.71,307.59,120.85,308.62Z"/><path class="cls-16" d="M205.89,305.68c-.08-1.46,2.27-1.79,3-3.91a4.63,4.63,0,0,0-1-4.6c-1.69-1.74-4.72-1.54-6.63-.18a5,5,0,0,0-2.25,4.19c.28,2.5,3.39,3.17,3.18,5.06-.12,1.05-1.11,1-2.45,2.92a7.12,7.12,0,0,0-1.67,4.72,5.88,5.88,0,0,0,3.19,4.48,6.23,6.23,0,0,0,7.21-1.21,6,6,0,0,0,1.62-4.63,9.16,9.16,0,0,0-2.52-4.72C206.48,306.52,205.93,306.39,205.89,305.68Z"/><path class="cls-16" d="M214.11,296.94c-1.46,1.56.23,3.72.92,10.18.62,5.74-.32,7.65,1.26,8.83,1.91,1.44,5.51.33,7.53-1.24A6.76,6.76,0,0,0,226,311.9a5.37,5.37,0,0,0,.29-3.81A5.47,5.47,0,0,0,223,305c-1.77-.61-3,.12-3.37-.51s1.27-1.75,1.5-3.92a4.69,4.69,0,0,0-1.16-3.6A4.62,4.62,0,0,0,214.11,296.94Z"/><path class="cls-27" d="M205.89,299.45a1.78,1.78,0,0,0-1.31-.61,2.07,2.07,0,0,0-1.82,1.51,2,2,0,0,0,.42,2,1.87,1.87,0,0,0,2.18-.06A2.13,2.13,0,0,0,205.89,299.45Z"/><path class="cls-27" d="M204.42,310.17a2.57,2.57,0,0,0-1.58,1.18A3.13,3.13,0,0,0,202,314a2.69,2.69,0,0,0,5.24-.64C207.44,311.65,205.74,310,204.42,310.17Z"/><path class="cls-27" d="M216.32,298.69c-.17.25.2.55.57,1.64.49,1.42.3,2.16.63,2.24s1-.84,1.24-1.73a2,2,0,0,0-.08-1.49C218.15,298.44,216.61,298.26,216.32,298.69Z"/><path class="cls-27" d="M218,307.45c-.37.51.32,1,.57,2.89.29,2.15-.42,3,.14,3.51.75.65,2.81-.22,3.92-1.49a3,3,0,0,0,.91-2.13,2.86,2.86,0,0,0-.94-1.83C221.22,307,218.63,306.6,218,307.45Z"/><path class="cls-16" d="M328.77,302.42c.89-1.15,2.89.13,4.85-1a4.63,4.63,0,0,0,2.23-4.14c-.15-2.42-2.58-4.25-4.91-4.46a5,5,0,0,0-4.44,1.71c-1.42,2.08.5,4.62-.88,5.91-.77.72-1.5,0-3.77.61a7.12,7.12,0,0,0-4.35,2.49A5.88,5.88,0,0,0,317,309a6.23,6.23,0,0,0,6.26,3.79,6,6,0,0,0,4.25-2.45,9.16,9.16,0,0,0,1.17-5.22C328.68,303.44,328.34,303,328.77,302.42Z"/><path class="cls-16" d="M341.19,301.85c-2.12.23-2.25,3-5.94,8.32-3.27,4.75-5.23,5.59-4.81,7.52.51,2.33,4,3.85,6.51,4a6.76,6.76,0,0,0,3.48-.71,5.37,5.37,0,0,0,2.71-2.69,5.47,5.47,0,0,0-.41-4.5c-.95-1.62-2.35-1.87-2.22-2.58s2.11-.5,3.7-2a4.69,4.69,0,0,0,1.48-3.48A4.62,4.62,0,0,0,341.19,301.85Z"/><path class="cls-27" d="M332.84,297.7a1.78,1.78,0,0,0-.6-1.32,2.07,2.07,0,0,0-2.36,0c-.08,0-1.2.77-1,1.83a1.87,1.87,0,0,0,1.69,1.37A2.13,2.13,0,0,0,332.84,297.7Z"/><path class="cls-27" d="M324.74,304.86a2.57,2.57,0,0,0-2-.14,3.13,3.13,0,0,0-2.37,1.51,2.69,2.69,0,0,0,4.38,2.93C326,308,325.83,305.6,324.74,304.86Z"/><path class="cls-27" d="M341.72,304.61c-.29.08-.21.55-.64,1.62-.55,1.39-1.18,1.84-1,2.11s1.33,0,2.07-.5a2,2,0,0,0,.91-1.19C343.27,305.62,342.22,304.49,341.72,304.61Z"/><path class="cls-27" d="M337.3,312.37c-.61.15-.44,1-1.46,2.56-1.18,1.82-2.29,2-2.18,2.75.15,1,2.27,1.67,3.94,1.43a3,3,0,0,0,2.08-1,2.86,2.86,0,0,0,.48-2C340,314.1,338.31,312.12,337.3,312.37Z"/><path class="cls-16" d="M436.66,316.8c-1.05-1,.42-2.86-.47-4.92a4.63,4.63,0,0,0-3.89-2.65c-2.43-.1-4.49,2.13-4.95,4.42a5,5,0,0,0,1.24,4.59c1.92,1.62,4.65,0,5.79,1.49.64.85-.11,1.5.22,3.81a7.12,7.12,0,0,0,2,4.58,5.88,5.88,0,0,0,5.39,1.07,6.23,6.23,0,0,0,4.42-5.83,6,6,0,0,0-2-4.48,9.16,9.16,0,0,0-5.07-1.7C437.67,317,437.17,317.28,436.66,316.8Z"/><path class="cls-16" d="M437.18,304.17c0,2.13,2.72,2.55,7.66,6.77,4.39,3.75,5,5.78,7,5.56,2.38-.27,4.24-3.54,4.62-6.07a6.76,6.76,0,0,0-.34-3.54,5.37,5.37,0,0,0-2.4-3,5.47,5.47,0,0,0-4.51-.06c-1.71.77-2.1,2.14-2.8,1.94s-.28-2.15-1.6-3.88a4.69,4.69,0,0,0-3.31-1.83A4.62,4.62,0,0,0,437.18,304.17Z"/><path class="cls-27" d="M432.39,312.27a1.78,1.78,0,0,0-1.37.46,2.07,2.07,0,0,0-.29,2.34c0,.08.64,1.28,1.71,1.2a1.87,1.87,0,0,0,1.54-1.54A2.13,2.13,0,0,0,432.39,312.27Z"/><path class="cls-27" d="M438.67,321.06a2.57,2.57,0,0,0-.34,1.94,3.13,3.13,0,0,0,1.26,2.51,2.69,2.69,0,0,0,3.37-4.06C441.88,320.08,439.52,320,438.67,321.06Z"/><path class="cls-27" d="M440,303.92c0,.3.52.27,1.54.8,1.33.69,1.71,1.36,2,1.2s.18-1.32-.29-2.11a2,2,0,0,0-1.09-1C441.15,302.49,439.91,303.42,440,303.92Z"/><path class="cls-27" d="M447.24,309.12c.09.63.95.54,2.4,1.71,1.68,1.36,1.77,2.49,2.51,2.46,1,0,1.89-2.09,1.83-3.77a3,3,0,0,0-.8-2.17,2.86,2.86,0,0,0-1.94-.69C449.25,306.6,447.1,308.1,447.24,309.12Z"/><circle class="cls-16" cx="123.13" cy="319.7" r="2.09"/><circle class="cls-16" cx="212.77" cy="316.94" r="2.09"/><circle class="cls-16" cx="326.21" cy="315.91" r="2.09"/><circle class="cls-16" cx="448.52" cy="319.32" r="2.09"/><path class="cls-28" d="M627.3,5.5a7,7,0,0,1,7,7v544a7,7,0,0,1-7,7H12.5a7,7,0,0,1-7-7V12.5a7,7,0,0,1,7-7H627.3m0-5H12.5a12,12,0,0,0-12,12v544a12,12,0,0,0,12,12H627.3a12,12,0,0,0,12-12V12.5A12,12,0,0,0,627.3.5Z"/></g></g></svg>
