<svg xmlns="http://www.w3.org/2000/svg" viewBox="0 0 638.8 568"><defs><style>.cls-1{fill:#202532;}.cls-2{fill:#f0f0f0;}.cls-3{fill:#d7d7d7;}.cls-4{fill:#fff;}.cls-5{fill:#efefef;}.cls-6{fill:#eaac41;}.cls-7{fill:#c07d08;}.cls-8{fill:#fecda4;}.cls-9{fill:#333;}.cls-10{fill:#962d69;}.cls-11{fill:#72263c;}.cls-12{fill:#edb143;}.cls-13{fill:#e9eced;}.cls-14{fill:#89cce5;}</style></defs><title>toilet</title><g id="Layer_2" data-name="Layer 2"><g id="Layer_1-2" data-name="Layer 1"><path class="cls-1" d="M12,565.5A9.56,9.56,0,0,1,2.5,556V12A9.56,9.56,0,0,1,12,2.5H626.8a9.56,9.56,0,0,1,9.5,9.5V556a9.56,9.56,0,0,1-9.5,9.5Z"/><path class="cls-1" d="M626.8,5a7,7,0,0,1,7,7V556a7,7,0,0,1-7,7H12a7,7,0,0,1-7-7V12a7,7,0,0,1,7-7H626.8m0-5H12A12,12,0,0,0,0,12V556a12,12,0,0,0,12,12H626.8a12,12,0,0,0,12-12V12a12,12,0,0,0-12-12Z"/><polygon class="cls-2" points="214 162.9 428 162.9 428 187.7 416.7 187.7 416.7 334.1 227.5 334.1 227.5 189.9 214 189.9 214 162.9"/><polygon class="cls-3" points="274.8 433.2 263.6 536.8 378.4 536.8 367.2 433.2 274.8 433.2"/><path class="cls-4" d="M229.8,198.9c3.1-10.2,7.1-17.3,11.3-24.8,6.3-11.5,11.9-21.7,22.5-31.5a91,91,0,0,1,36-20.3c6.8-1.9,25.4-6.9,47.3,0,21,6.6,33.1,20.5,40.5,29.3,19.3,22.8,24.1,47.2,27,63.1,2.2,12.1,8.2,44.3-4.5,74.3-6.6,15.6-17.5,28.7-18,29.3-3.6,4.3-8,9.5-13.5,13.5-10.9,8-20.8,7.3-60.8,6.8-36-.5-43.9-.1-54.1-6.8-8.2-5.4-12.3-11.6-18-20.3-21.1-32.1-20.5-66.5-20.3-81.1C225.6,214,228.2,203.9,229.8,198.9Z"/><path class="cls-4" d="M220.8,349.8s-.3,14.5,0,20.3c1,18.9,13.8,33.5,18,38.3,11.5,13.1,24.4,18.7,33.8,22.5,10,4.1,50.9,21.1,94.6,2.3,11.2-4.8,37.1-16,47.3-40.5,6.5-15.7,9-42.8,9-42.8h0c0-.1-202.7-.1-202.7-.1Z"/><path class="cls-5" d="M214,352.1s1.5-4.9,2.3-6.8c0,0,2-4.8,9-9,12.1-7.2,79.7-6.6,94.6-6.8,15.5-.1,82.1-2,96.9,4.5a22.1,22.1,0,0,1,9,6.8c3,4.4,4.5,11.3,4.5,11.3H214Z"/><path class="cls-6" d="M308.9,8.7c-4,.7-15.5,2.6-26,8.6-17.7,10.2-25.3,27.6-28.4,34.8-7.4,17.7-2.4,22.2-4.8,67.9-1.4,29.6-4.1,40.5,0,61.7,2.6,12.7,6.4,22.9,14.3,31.5,7.1,7.7,14.6,11.4,20.5,14.3,7.7,3.6,43.9,19.1,72.7,1.5,9.1-5.7,15.3-13.3,17.4-15.8,2.8-3.4,8.4-11.2,12.6-23.8,6.2-18.3,3.6-30.3,3.1-61.7-.5-40,3.3-43.7-1.5-63.2-3.1-12.1-6.4-24.6-17.4-36.3-16.2-17.2-37.2-20-41-20.5A80.7,80.7,0,0,0,308.9,8.7Z"/><path class="cls-7" d="M310.8,60.2A65.54,65.54,0,0,0,290,66.9c-14.3,7.9-20.3,21.2-22.7,26.9-6,13.6-2.1,17-3.8,52.4-1.2,22.9-3.3,31.2,0,47.5,2.1,9.8,5,17.6,11.4,24.3,5.7,6,11.7,8.8,16.5,11,6.2,2.8,35.3,14.8,58.2,1.2A51.79,51.79,0,0,0,363.5,218a62.52,62.52,0,0,0,10.2-18.3c5-14.1,2.9-23.4,2.6-47.5-.5-30.8,2.6-33.8-1.2-48.7-2.4-9.3-5.2-18.9-13.9-28.1-12.9-13.3-29.8-15.5-32.9-15.8A63.47,63.47,0,0,0,310.8,60.2Z"/><path class="cls-8" d="M275,50.5a53,53,0,0,0-4,5.5c-6.4,10.5-3.1,29.3-2.4,51.3.7,17.2-.9,16.7.9,22.9,5.2,18.9,20.7,29.1,22,30,15.8,10,37.5,11.2,54.4.9,1-.7,16.9-10.8,22-30,.9-3.3,1-5.5,1.5-14.3,2.6-46.2.7-52.2-1.5-56.8-5.3-10.7-13.8-16.5-17.4-18.9-26-17.4-57.3-4.6-64.8,0A53.39,53.39,0,0,0,275,50.5Z"/><path class="cls-9" d="M281.2,88.4c-.2-.3,1.7-3.1,4.8-4.8a13.39,13.39,0,0,1,12.6,0c3.1,1.7,5,4.5,4.8,4.8s-2.4-2.1-6.4-3.1a17.55,17.55,0,0,0-9.5,0C283.6,86.3,281.5,88.7,281.2,88.4Z"/><path class="cls-9" d="M336.4,88.4c-.2-.3,1.7-3.1,4.8-4.8a13.39,13.39,0,0,1,12.6,0c3.1,1.7,5,4.5,4.8,4.8s-2.4-2.1-6.4-3.1a17.55,17.55,0,0,0-9.5,0C338.9,86.3,336.6,88.7,336.4,88.4Z"/><circle class="cls-9" cx="294.6" cy="100.3" r="5.5"/><circle class="cls-9" cx="345.1" cy="100.3" r="5.5"/><path class="cls-10" d="M292.2,121.6s3.3,5.5,4.8,7.9c1.5,2.2,5.2,7.7,11,11,7.6,4.1,16.9,3.4,23.8,0a30.19,30.19,0,0,0,9.5-7.9,71.35,71.35,0,0,0,6.4-11H292.2Z"/><path class="cls-11" d="M301.7,134.2c.2-1.2,1.4-1.9,3.1-3.1a18.5,18.5,0,0,1,9.5-3.1c3.6-.3,13.6-1,22,4.8.7.5,1.4.9,1.5,1.5.7,3.1-9.1,9.6-18.9,9.5C310.1,143.5,301.3,137.6,301.7,134.2Z"/><path class="cls-4" d="M298.6,126.3h42.7v-4.8H298.6Z"/><path class="cls-8" d="M309.6,167.3c-1.4,1.4-.7,3.8.9,10,3.1,12.7,2.9,14.3,5.5,21.9,3.3,9.3,4.3,9.5,4.8,9.5,1-.2,1.5-2.4,3.1-9.5s2.9-14.1,4.8-21,3.1-9.3,1.5-10.7-4,.2-11,0C313,167.1,311.1,165.9,309.6,167.3Z"/><path class="cls-12" d="M260.7,41c-.2,6.4,9.3,11.4,16.5,15,19.5,9.6,29.3,14.5,45.8,17.4,21.4,3.8,61.3,6.9,65.4-5.5.3-1,.3-1.9,0-4.8-2.9-19.6-16-33.4-17.4-34.8A69.12,69.12,0,0,0,336.2,9.4s-31.3-7.2-58.4,11c-7.2,4.8-12.6,11.9-14.3,14.3C261.2,38.3,260.7,39.7,260.7,41Z"/><path class="cls-8" d="M326.1,187.2c4.3,1.5,10.9,3.9,18.9,6.9,13.3,4.9,19.9,7.3,22.4,8.6,17,8.9,25.8,32.4,27.4,49.9,3.3,36.1-22.1,71.8-33.7,69.8-3.8-.6-7.1-5.5-7.2-9.6-.2-7.1,9-10.5,14.4-16.9,15.1-17.7,0-58.2-4.8-57.8-4.4.4-9.1,36.1-2.4,69.8,1.7,8.3,9.3,21.1,7.2,38.5-.7,5.6-1.3,10.5-4.4,15.3-14.6,22.1-68.2,15.9-75-1-1.2-2.9-1.7-8.1-2.1-12.2a92.4,92.4,0,0,1-.3-17.4c.4-6.9-.1-13.9-.1-20.9,0-9.6-1.3-28.1-7.2-67.4-5.5,15.8-13.9,40.6-24.1,72.2-5.5,17-7.5,23.6-10.7,23.8-6.1.3-15.5-21.7-30.2-119.3,0,0-19.5-5.9-6.6-27.2,0,0-9.4-19.2-4.3-23.7,4.9-4.5,10.5,19.2,10.5,19.2s1.3-17.3,4.1-19.7,3.4,19,3.4,19,11.3,16.2,6.6,26.5,16.9,68.5,16.9,68.5,9.6-80.6,44.3-85.6c8.3-3.2,16.6-6.3,24.8-9.5C318.1,187.2,322.1,187.2,326.1,187.2Z"/><path class="cls-13" d="M248.6,251c.9,12.8,17.2,23.7,22.4,20.7,1.8-1.1.6-2.9,3.4-12.1,1.4-4.7,6.9-18.4,5.2-13.8h0s1.6,11.1,1.7,12.1c1.9,13.5,3.2,22.6,3.4,32.7.1,5.5-.5,16.3-1.7,37.9-.4,6.6-.4,7.3,0,8.6,6.8,20,76.7,23.8,87.8,1.7,2.6-5.1-.8-6.1-8.6-41.3-1-4.6-5.8-27-1.7-49.9.7-3.9,1.8-8.5,3.4-8.6,2.4-.1,5.7,9,6.9,17.2,1.1,7.8-.3,10.2,1.7,12.1,4.3,3.9,17.6.1,22.4-8.6,3.2-5.9,1.9-12.9,1.7-13.8a25.78,25.78,0,0,0-1.7-5.2c-3.3-7.9-4.9-11.9-6.9-15.5a62.64,62.64,0,0,0-17.2-20.7c-5.3-4-15-11.3-24.1-8.6-2.9.8-2.4,1.7-8.6,5.2-6.5,3.7-11.2,6.3-17.2,6.9-10.2,1.1-18.7-4-20.7-5.2-6-3.6-6.3-6.1-10.3-6.9-6.5-1.2-12.4,4.2-17.2,8.6-9.5,8.7-13.7,18.1-20.7,34.4C248.8,246.5,248.4,248.6,248.6,251Z"/><path class="cls-14" d="M288.3,359.8s-9.3,18.3-16.6,32c-17.3,32.8-17.1,29.3-19,35-2.1,6.7-1.6,9.2,3.6,51,5.3,43.1,6.1,51.3,0,62-3.1,5.4-6.6,9.1-4.7,13,4.6,9.5,37.2,12.5,48.6,1,4.4-4.4,3.8-9.1,2.4-27-3.7-46.4-1-28.3-3.6-51-3.8-33.1-5.4-35.3-2.4-43,4.1-10.4,8.2-9.3,20.1-31,4.8-8.8,7.5-14.9,11.9-15,4-.1,7,5,11.9,13,17,27.9,16.5,23.9,19,30s2.4,8.7,2.4,46c0,48.2.2,46.6,0,48-1.9,12.7-4.2,17.8,0,23,8.8,10.9,37.3,11.7,43.8,3,3-4,.7-8.9-1.2-14-4-10.9-3.4-29.3-2.4-66,.9-32.3,4.8-31.7,1.2-43-2.5-7.6-3.4-5.3-21.3-37-7.2-12.7-16.6-30-16.6-30H288.3Z"/><path class="cls-8" d="M363,300.8s-19.8,7.5-33,23c-6.7,7.8-12,18.1-13,20-3.5,6.8-3.6,9-6,12a10.61,10.61,0,0,1-3,3c-4.5,2.7-8.9-.4-11,2-1.3,1.4-1.1,4.1,0,5s2.6-.2,6-1c1.3-.3,7.9-1.8,9,0,.2.3.3.9-4,9a6.29,6.29,0,0,0-1,4c.2,1.2,1,2.9,2,3,2.9.3,6.4-14.2,7-14,.3.1-.3,4.4-1,8-.6,3.4-1.2,5.5,0,7,.1.1,1,1.2,2,1,1.3-.2,1.9-2.4,2-3a10.39,10.39,0,0,0,0-4c-.7-4.7,1.7-9.1,2-9s-.3,3.7,0,10c.1,1.9.3,4.3,2,6,.3.3,1.3,1.3,2,1,1.2-.4,1.1-3.7,1-5-.1-2.5-.6-3.2-1-6s-.4-5.9,0-6,1.2,3.3,4,8c1.1,1.8,2.1,3.2,3,3,.6-.1.9-.8,1-1,1.4-2.9-3.2-6.4-4-12a12.37,12.37,0,0,1,1-7c2.9-7.1,4.3-10.6,8-16,6.2-9.1,9.4-13.6,13-15,3.8-1.5,11.6-2.8,15-5,.1-.1,3-2,3-2Z"/></g></g></svg>
