<?xml version="1.0" encoding="utf-8"?>
<!-- Generator: Adobe Illustrator 22.0.1, SVG Export Plug-In . SVG Version: 6.00 Build 0)  -->
<svg version="1.1" id="Layer_1" xmlns="http://www.w3.org/2000/svg" xmlns:xlink="http://www.w3.org/1999/xlink" x="0px" y="0px"
	 viewBox="0 0 100 100" style="enable-background:new 0 0 100 100;" xml:space="preserve">
<style type="text/css">
	.st0{fill:none;}
	.st1{fill:none;stroke:#FFFFFF;stroke-miterlimit:10;}
	.st2{fill:none;stroke:#FFFFFF;stroke-width:0.8711;stroke-miterlimit:10;}
	.st3{fill:none;stroke:#FFFFFF;stroke-width:0.849;stroke-miterlimit:10;}
</style>
<g>
	<rect class="st0" width="100" height="100"/>
</g>
<g>
	<rect x="68.7" y="13.2" class="st1" width="8.5" height="4.8"/>
	<path class="st1" d="M66.7,22.7"/>
	<path class="st1" d="M19.4,64.7h17v0.1h47.3v-0.1h14.4c0,0,0-21,0-28.7c0-6.7-6.7-11.9-14.4-13.1c0,0-4.3-0.2-4.8-0.2
		c0,0-5.4,0-12.3,0"/>
	<path class="st1" d="M64.8,22.7c-12,0-27.2,0-27.5,0l-0.9,0.1c-8.2,0.9-17,6.1-17,13.2c0,0.8,0,1.5,0,2.3"/>
	<path class="st1" d="M19.5,41.5l-0.1-3c0-0.2,0-0.4,0-0.6c0-0.6,0-1.2,0-1.9c0-7.9,10.6-13.4,19.4-13.4c9,0,17.7,5.7,17.7,13.4
		s0,28.7,0,28.7H19.4c0,0,0.1-2.2,0.1-4.2"/>
	<g>
		<path class="st1" d="M64.8,24.4v11c-1.1,0.5-1.9,1.9-1.9,3.6c0,2.1,1.3,3.8,2.8,3.8s2.8-1.7,2.8-3.8c0-1.7-0.8-3.1-1.9-3.6v-11"/>
		<polyline class="st1" points="66.7,24.4 66.7,13.2 64.8,13.2 64.8,24.4 		"/>
	</g>
	<path class="st2" d="M19.5,64.8c0,0-9.7,5.7-11.6,7.1C0.1,77.6-1,83.8,9.8,86.1c13.6,2.8,23.2-2.8,25.2-4.3s21.3-17,21.3-17H19.5z"
		/>
	<g>
		<polygon class="st3" points="32.2,53.9 15,41.7 15,60.9 51.2,60.9 51.2,41.7 		"/>
		<line class="st3" x1="14.6" y1="41.4" x2="51.6" y2="41.4"/>
	</g>
</g>
</svg>
