<svg id="Layer_1" data-name="Layer 1" xmlns="http://www.w3.org/2000/svg" xmlns:xlink="http://www.w3.org/1999/xlink" width="200.28" height="200.28" viewBox="0 0 200.28 200.28"><defs><style>.cls-1{fill:none;}.cls-2{fill:#eb726a;stroke:#eb938d;stroke-miterlimit:10;stroke-width:6.16px;}.cls-3{fill:#fff;}.cls-4{clip-path:url(#clip-path);}.cls-5{fill:#ea5045;fill-rule:evenodd;}</style><clipPath id="clip-path" transform="translate(-1.92 -1.84)"><rect class="cls-1" x="30.1" y="46.04" width="143.73" height="36.97"/></clipPath></defs><title>KEA intern logony</title><circle class="cls-2" cx="100.14" cy="100.14" r="97.06"/><path class="cls-3" d="M23.22,131.57,37.35,93.71s1.88-5.94,6.17-4.18A47.69,47.69,0,0,0,50,91.8s3.16,1,1.14,6.43-15,40-15,40-1.14,2.4-5,1.27L24.6,136.7S21.58,135.14,23.22,131.57Z" transform="translate(-1.92 -1.84)"/><path class="cls-3" d="M59.4,99.45,45.1,137.86l10.72,12.83-2.41,2.72L42.08,140.73s-1.66-3.32-.15-5.28,14.8-39.1,14.8-39.1,3.47-2.86,6.34.76,9.2,2.26,9.2,2.26,6.37-2.84,12.83-6.64,12.83,1.36,12.83,1.36l-2.56,2.72A12.16,12.16,0,0,0,83,98.17C73.19,105.44,66,105.19,59.4,99.45Z" transform="translate(-1.92 -1.84)"/><path class="cls-3" d="M74.63,115.76s-6.32,4.11-3.09,9.69,11.75-.29,11.75-.29,21-12.78,22.47-12.19S147,157.18,147,157.18l14-13.66a5.83,5.83,0,0,0-.59-8.37l-17.33-34.22-6,3.08s-3.23,1.76-4.56-.59-13.65-9.1-13.65-9.1-6.61-3.38-12.78.14S74.63,115.76,74.63,115.76Z" transform="translate(-1.92 -1.84)"/><path class="cls-3" d="M147.59,94.08l8.59-4s3.5-1.41,3.85,1.4,19.64,38.92,19.64,38.92,2.28,2.63.35,4.56-8.42,4.56-8.42,4.56-3.33,1.22-4.9-.7-19.46-39.1-19.46-39.1S144.43,95.66,147.59,94.08Z" transform="translate(-1.92 -1.84)"/><path class="cls-3" d="M69.26,164.18,79,154.73s3.62-3.21,5.72-1l3,3.21s3.15,2.45-1.29,7.07-9.4,9.4-9.4,9.4-2.72,2.57-5.69.61l-3.14-3.52S66.21,167.4,69.26,164.18Z" transform="translate(-1.92 -1.84)"/><path class="cls-3" d="M81.55,172.78l9.72-9.48s4.82-4.22,6.91-2.05l3.43,3.54s1.55,3.13-2.88,7.76S89.34,182,89.34,182s-3.77,3.28-6.74,1.32l-3.67-4A8.49,8.49,0,0,1,81.55,172.78Z" transform="translate(-1.92 -1.84)"/><path class="cls-3" d="M55.62,157.89l5.5-5.29s3.42-1.32,4.52.55l2,2a3.29,3.29,0,0,1,1.1,3.31c-.44,2.2-5.83,7.16-5.83,7.16s-1.77,2-4.52.22l-3.2-3.2A3.57,3.57,0,0,1,55.62,157.89Z" transform="translate(-1.92 -1.84)"/><path class="cls-3" d="M93.47,184.1l8.82-9.64a4.17,4.17,0,0,1,3.9.21c1.84,1.23,2.87,1.84,2.87,1.84s2,2.47.82,4.31-7.59,10.05-7.59,10.05-2.87,1.44-4.72,1.24l-3.69-3.29S92,186.36,93.47,184.1Z" transform="translate(-1.92 -1.84)"/><path class="cls-3" d="M111.13,187.64l.27-3.61s3.34.84,5.28,0,4.45-4.44,3.34-8.61-11.12-10.28-12.78-14.17,2.22-3.89,3.33-2.22,13.34,15,13.34,15,4.16,4.17,8.05.56,2.78-5.84.84-9.17-11.67-11.12-13.34-14.17,2.5-4.45,3.33-2.23,14.45,16.4,14.45,16.4,3.06,3.61,6.67,1.11,2.22-4.17,2.22-4.17L150,161s1.39,6.67-2.5,8.34-6.94,2.5-9.17,1.39c0,0-2.5,6.94-5,7.5s-4.17,2.78-9.44,1.39c0,0-.28,5.83-4.17,6.66C119.74,186.25,121.13,187.92,111.13,187.64Z" transform="translate(-1.92 -1.84)"/><g id="KEA_logo" data-name="KEA logo"><g class="cls-4"><g id="Shape_6" data-name="Shape 6"><path class="cls-5" d="M74.22,46.62l-8.68.09-29.48,28,.08-28-6-.05,0,36.19h6.62L50.67,69.56,66.49,82.85l9.71-.09L55.31,65.17Zm36.36.13s-2.84.13-18,.13S77.75,61.72,77.75,61.72l.07,8.51C78.9,82.64,91.14,82.76,91.14,82.76h29.52V77s-20.52.12-28.44-.25-8-6.74-8-6.74,23.52-.12,26.28-.24,11.28.72,12-11.32S110.58,46.75,110.58,46.75Zm1,16.69c-3.78-.09-27.76-.09-27.76-.09S82.73,53.44,92,52.75l18.91-.09s4.82,0,4.9,3.28.18,4.48.18,4.48A4.06,4.06,0,0,1,111.61,63.44Zm46-16.85c-17-.48-25.93,0-25.93,0l.12,6.26h26.29s9.48.24,9.12,6.63l-26.65.24s-11.64-.12-11.4,11,7.08,11.92,9,12.16,35.53.12,35.53.12l.12-23.12S174.67,47.07,157.63,46.59Zm10.25,30.28-27.25-.09c-1.51,0-4.82,0-5.09-5.53a4.77,4.77,0,0,1,5-5.39L168,65.7Z" transform="translate(-1.92 -1.84)"/></g></g></g></svg>